<?xml version="1.0" encoding="iso-8859-1"?>
<!-- Generator: Adobe Illustrator 18.0.0, SVG Export Plug-In . SVG Version: 6.00 Build 0)  -->
<!DOCTYPE svg PUBLIC "-//W3C//DTD SVG 1.1//EN" "http://www.w3.org/Graphics/SVG/1.1/DTD/svg11.dtd">
<svg version="1.1" xmlns="http://www.w3.org/2000/svg" xmlns:xlink="http://www.w3.org/1999/xlink" x="0px" y="0px"
	 viewBox="0 0 28.758 28.688" style="enable-background:new 0 0 28.758 28.688;" xml:space="preserve">
<g id="Layer_17">
	<path d="M4.184,4.184C6.972,1.396,10.359,0,14.344,0c3.983,0,7.383,1.396,10.195,4.184c2.812,2.789,4.219,6.177,4.219,10.16
		c0,3.984-1.406,7.372-4.219,10.16c-2.812,2.789-6.212,4.184-10.195,4.184c-3.985,0-7.372-1.395-10.16-4.184
		C1.394,21.716,0,18.328,0,14.344C0,10.36,1.394,6.973,4.184,4.184z M5.484,23.238c2.437,2.461,5.39,3.691,8.859,3.691
		c3.468,0,6.434-1.241,8.895-3.727c2.461-2.484,3.691-5.438,3.691-8.859c0-3.421-1.23-6.374-3.691-8.859
		C20.777,3,17.812,1.758,14.344,1.758c-3.422,0-6.363,1.23-8.824,3.691s-3.691,5.426-3.691,8.895
		C1.828,17.813,3.046,20.777,5.484,23.238z M8.438,9.633h2.25c0.187,0,0.375,0.141,0.562,0.422l1.547,2.672l-2.461,4.359
		c-0.188,0.281-0.376,0.422-0.562,0.422h-2.32c-0.141,0-0.235-0.046-0.281-0.141c-0.047-0.094-0.047-0.211,0-0.352l2.461-4.219
		l-1.547-2.672c-0.047-0.141-0.047-0.257,0-0.352C8.132,9.68,8.25,9.633,8.438,9.633z M17.859,6.539h2.32
		c0.141,0,0.234,0.047,0.281,0.141c0.046,0.095,0.046,0.211,0,0.352l-4.992,8.859l3.164,5.766c0.046,0.141,0.046,0.258,0,0.352
		c-0.047,0.095-0.141,0.141-0.281,0.141h-2.25c-0.235,0-0.446-0.141-0.633-0.422l-3.164-5.836l4.992-8.93
		C17.483,6.68,17.671,6.539,17.859,6.539z"/>
</g>
<g id="Layer_1">
</g>
</svg>
