<?xml version="1.0" encoding="iso-8859-1"?>
<!-- Generator: Adobe Illustrator 18.0.0, SVG Export Plug-In . SVG Version: 6.00 Build 0)  -->
<!DOCTYPE svg PUBLIC "-//W3C//DTD SVG 1.1//EN" "http://www.w3.org/Graphics/SVG/1.1/DTD/svg11.dtd">
<svg version="1.1" xmlns="http://www.w3.org/2000/svg" xmlns:xlink="http://www.w3.org/1999/xlink" x="0px" y="0px"
	 viewBox="0 0 21.586 25.242" style="enable-background:new 0 0 21.586 25.242;" xml:space="preserve">
<g id="Layer_18">
	<path d="M2.004,4.992v0.07H5.59c0.422,0,0.773,0.235,1.055,0.703c1.688,2.859,2.531,4.313,2.531,4.359l-3.938,6.961
		c-0.281,0.469-0.61,0.703-0.984,0.703H0.598c-0.141,0-0.306-0.094-0.492-0.281c-0.141-0.187-0.141-0.375,0-0.562l3.867-6.82v-0.07
		L1.512,5.766c-0.141-0.234-0.141-0.422,0-0.562S1.816,4.992,2.004,4.992z M17.332,0h3.656c0.187,0,0.352,0.07,0.492,0.211
		c0.141,0.188,0.141,0.376,0,0.562l-8.086,14.273v0.07l5.133,9.352c0.141,0.235,0.141,0.422,0,0.562
		c-0.047,0.141-0.188,0.211-0.422,0.211h-3.656c-0.422,0-0.75-0.211-0.984-0.633c-3.47-6.328-5.203-9.516-5.203-9.562l8.086-14.344
		C16.629,0.235,16.956,0,17.332,0z"/>
</g>
<g id="Layer_1">
</g>
</svg>
