<?xml version="1.0" encoding="iso-8859-1"?>
<!-- Generator: Adobe Illustrator 18.0.0, SVG Export Plug-In . SVG Version: 6.00 Build 0)  -->
<!DOCTYPE svg PUBLIC "-//W3C//DTD SVG 1.1//EN" "http://www.w3.org/Graphics/SVG/1.1/DTD/svg11.dtd">
<svg version="1.1" xmlns="http://www.w3.org/2000/svg" xmlns:xlink="http://www.w3.org/1999/xlink" x="0px" y="0px"
	 viewBox="0 0 28.758 28.688" style="enable-background:new 0 0 28.758 28.688;" xml:space="preserve">
<g id="Layer_19">
	<path d="M4.184,4.184C6.972,1.396,10.359,0,14.344,0c3.983,0,7.383,1.396,10.195,4.184c2.812,2.789,4.219,6.177,4.219,10.16
		c0,3.984-1.406,7.372-4.219,10.16c-2.812,2.789-6.212,4.184-10.195,4.184c-3.985,0-7.372-1.395-10.16-4.184
		C1.394,21.716,0,18.328,0,14.344C0,10.36,1.394,6.973,4.184,4.184z M5.484,23.238c2.437,2.461,5.39,3.691,8.859,3.691
		c3.468,0,6.434-1.241,8.895-3.727c2.461-2.484,3.691-5.438,3.691-8.859c0-3.421-1.23-6.374-3.691-8.859
		C20.777,3,17.812,1.758,14.344,1.758c-3.422,0-6.363,1.23-8.824,3.691s-3.691,5.426-3.691,8.895
		C1.828,17.813,3.046,20.777,5.484,23.238z M21.656,11.672c0.046,0.562,0.07,1.406,0.07,2.531c0,1.079-0.024,1.898-0.07,2.461
		c-0.095,1.125-0.399,2.016-0.914,2.672c-0.61,0.703-1.383,1.125-2.32,1.266c-0.517,0.095-1.336,0.141-2.461,0.141h-1.828h-1.828
		c-1.079,0-1.875-0.046-2.391-0.141c-1.032-0.141-1.828-0.562-2.391-1.266c-0.517-0.656-0.821-1.547-0.914-2.672
		c-0.047-0.562-0.07-1.382-0.07-2.461c0-1.125,0.023-1.969,0.07-2.531C6.703,10.547,7.007,9.657,7.523,9
		C8.132,8.297,8.93,7.875,9.914,7.734c0.515-0.094,1.312-0.141,2.391-0.141h1.828h1.828c1.125,0,1.944,0.047,2.461,0.141
		C19.406,7.875,20.18,8.297,20.742,9C21.257,9.657,21.562,10.547,21.656,11.672z M19.969,16.875c0.093-0.608,0.141-1.5,0.141-2.672
		c0.046-0.797,0-1.711-0.141-2.742c-0.188-1.312-0.961-1.992-2.32-2.039c-0.75-0.046-1.923-0.07-3.516-0.07
		c-1.547,0-2.696,0.024-3.445,0.07c-1.36,0.047-2.134,0.728-2.32,2.039c-0.141,0.938-0.211,1.853-0.211,2.742
		c-0.047,0.562,0.023,1.453,0.211,2.672c0.187,1.36,0.96,2.063,2.32,2.109h3.445h3.516C19.007,18.938,19.781,18.235,19.969,16.875z
		 M14.555,10.617c0.187-0.094,0.48-0.234,0.879-0.422c0.397-0.187,0.691-0.327,0.879-0.422c0.141,0.328,0.538,1.114,1.195,2.355
		c0.656,1.242,1.148,2.215,1.477,2.918c-3.938,1.969-6.305,3.141-7.102,3.516c-1.125-2.344-1.993-4.124-2.602-5.344
		c0.796-0.422,1.382-0.727,1.758-0.914c0.234,0.517,0.598,1.266,1.09,2.25s0.854,1.712,1.09,2.18l0.844-0.422
		c-0.235-0.468-0.598-1.195-1.09-2.18s-0.856-1.733-1.09-2.25c0.234-0.094,0.538-0.234,0.914-0.422
		c0.375-0.187,0.679-0.327,0.914-0.422c0.234,0.517,0.598,1.266,1.09,2.25s0.854,1.712,1.09,2.18l0.844-0.422
		c-0.235-0.516-0.598-1.266-1.09-2.25S14.789,11.086,14.555,10.617z"/>
</g>
<g id="Layer_1">
</g>
</svg>
