<?xml version="1.0" encoding="iso-8859-1"?>
<!-- Generator: Adobe Illustrator 18.0.0, SVG Export Plug-In . SVG Version: 6.00 Build 0)  -->
<!DOCTYPE svg PUBLIC "-//W3C//DTD SVG 1.1//EN" "http://www.w3.org/Graphics/SVG/1.1/DTD/svg11.dtd">
<svg version="1.1" xmlns="http://www.w3.org/2000/svg" xmlns:xlink="http://www.w3.org/1999/xlink" x="0px" y="0px"
	 viewBox="0 0 28.758 28.688" style="enable-background:new 0 0 28.758 28.688;" xml:space="preserve">
<g id="Layer_2">
	<g id="Layer_11">
		<path d="M4.184,4.184C6.972,1.396,10.359,0,14.344,0c3.983,0,7.383,1.396,10.195,4.184c2.812,2.789,4.219,6.177,4.219,10.16
			c0,3.984-1.406,7.372-4.219,10.16c-2.812,2.789-6.212,4.184-10.195,4.184c-3.984,0-7.372-1.395-10.16-4.184
			C1.395,21.716,0,18.328,0,14.344C0,10.36,1.395,6.973,4.184,4.184z"/>
	</g>
	<g id="Layer_10">
		<path d="M5.484,23.238c2.437,2.461,5.39,3.691,8.859,3.691c3.469,0,6.434-1.241,8.895-3.727c2.461-2.484,3.691-5.438,3.691-8.859
			c0-3.421-1.23-6.374-3.691-8.859C20.777,3,17.812,1.758,14.344,1.758c-3.422,0-6.363,1.23-8.824,3.691s-3.691,5.426-3.691,8.895
			C1.828,17.813,3.047,20.777,5.484,23.238z"/>
	</g>
	<g id="Layer_9">
		<path d="M21.727,12.867c1.5,0.376,1.522,1.406,0.07,3.094c-0.517,0.609-1.523,1.172-3.023,1.688
			c-0.095,0.047-0.141,0.095-0.141,0.141c0.046,0.984,0.164,2.109,0.352,3.375c0.046,0.75-0.211,1.207-0.773,1.371
			c-0.562,0.165-1.336-0.011-2.32-0.527c-0.984-0.516-1.969-1.195-2.953-2.039c-0.095-0.046-0.165-0.046-0.211,0
			c-0.188,0.188-0.938,0.728-2.25,1.617c-1.031,0.657-1.758,0.258-2.18-1.195c-0.376-1.312-0.281-3.023,0.281-5.133
			c0.094-0.141,0.094-0.257,0-0.352c-1.031-1.5-1.571-2.953-1.617-4.359C6.914,9.844,7.055,9.328,7.383,9
			C7.71,8.673,8.039,8.603,8.367,8.789c1.125,0.609,2.109,0.984,2.953,1.125c0.046,0.047,0.116,0.024,0.211-0.07
			c1.171-1.359,2.32-2.273,3.445-2.742c1.312-0.562,2.085-0.141,2.32,1.266c0.281,1.688,0.492,2.93,0.633,3.727
			c0,0.047,0.023,0.07,0.07,0.07C18.984,12.399,20.226,12.633,21.727,12.867z"/>
	</g>
	<g id="Layer_8">
		<path d="M16.242,16.383c0.187,0.188,0.305,0.258,0.352,0.211c-0.235-0.234-0.352-0.538-0.352-0.914
			c-0.095,0.188-0.117,0.376-0.07,0.562c-1.547,1.172-2.883,1.571-4.008,1.195c-0.891-0.281-1.477-1.289-1.758-3.023l0.422-0.422
			c-0.281,0.235-0.587,0.352-0.914,0.352l0.141,0.07h0.211c0.375,1.969,0.938,3.094,1.688,3.375
			C13.078,18.165,14.508,17.695,16.242,16.383z"/>
	</g>
	<g id="Layer_7">
		<path d="M11.461,13.289c-0.095,1.031,0.164,1.617,0.773,1.758c0.468,0.095,0.938-0.141,1.406-0.703
			c-0.095,0.938,0.187,1.477,0.844,1.617c0.749,0.188,1.336-0.352,1.758-1.617c0.468-1.593,0.257-2.531-0.633-2.812
			c-0.469-0.141-0.891,0.024-1.266,0.492c-0.095-0.797-0.422-1.266-0.984-1.406c-0.422-0.046-0.82,0.2-1.195,0.738
			C11.788,11.895,11.555,12.54,11.461,13.289z"/>
	</g>
	<g id="Layer_6">
		<path d="M13.078,13.078c-0.141-0.046-0.223-0.164-0.246-0.352c-0.024-0.187,0.011-0.375,0.105-0.562
			c0.046-0.281,0.141-0.492,0.281-0.633s0.281-0.187,0.422-0.141c0.281,0.095,0.305,0.469,0.07,1.125
			C13.476,12.938,13.265,13.125,13.078,13.078z"/>
	</g>
	<g id="Layer_5">
		<path d="M13.5,11.602c-0.095,0-0.165,0.07-0.211,0.211c0,0.141,0.07,0.211,0.211,0.211s0.211-0.07,0.211-0.211
			S13.641,11.602,13.5,11.602z"/>
	</g>
	<g id="Layer_4">
		<path d="M15.469,13.992c-0.235-0.046-0.306-0.352-0.211-0.914c0.046-0.281,0.129-0.503,0.246-0.668
			c0.116-0.164,0.222-0.222,0.316-0.176c0.281,0.047,0.352,0.398,0.211,1.055C15.937,13.758,15.75,13.992,15.469,13.992z"/>
	</g>
	<g id="Layer_3">
		<path d="M15.961,12.727c0-0.141-0.07-0.211-0.211-0.211s-0.211,0.07-0.211,0.211s0.07,0.211,0.211,0.211
			S15.961,12.867,15.961,12.727z"/>
	</g>
</g>
<g id="Layer_1">
</g>
</svg>
