<?xml version="1.0" encoding="iso-8859-1"?>
<!-- Generator: Adobe Illustrator 18.0.0, SVG Export Plug-In . SVG Version: 6.00 Build 0)  -->
<!DOCTYPE svg PUBLIC "-//W3C//DTD SVG 1.1//EN" "http://www.w3.org/Graphics/SVG/1.1/DTD/svg11.dtd">
<svg version="1.1" xmlns="http://www.w3.org/2000/svg" xmlns:xlink="http://www.w3.org/1999/xlink" x="0px" y="0px"
	 viewBox="0 0 28.705 24.961" style="enable-background:new 0 0 28.705 24.961;" xml:space="preserve">
<g id="Layer_20">
	<path d="M28.547,7.734c0.141,1.782,0.187,3.375,0.141,4.781c0.046,1.36,0,2.93-0.141,4.711c-0.188,2.156-0.773,3.821-1.758,4.992
		c-1.079,1.266-2.579,2.063-4.5,2.391c-1.735,0.235-3.259,0.352-4.57,0.352h-3.375h-3.445c-1.313,0-2.837-0.116-4.57-0.352
		c-1.923-0.281-3.422-1.078-4.5-2.391c-0.938-1.125-1.501-2.788-1.688-4.992C0.046,16.148,0,14.579,0,12.516
		c0-1.593,0.07-3.188,0.211-4.781C0.397,5.531,0.96,3.867,1.898,2.742c1.03-1.219,2.531-1.992,4.5-2.32C8.46,0.141,9.984,0,10.969,0
		h3.375h3.445c0.984,0,2.507,0.141,4.57,0.422c1.969,0.328,3.468,1.102,4.5,2.32C27.796,3.867,28.359,5.531,28.547,7.734z
		 M25.312,17.578c0.234-1.406,0.352-3.094,0.352-5.062c0-2.015-0.118-3.727-0.352-5.133c-0.235-1.359-0.68-2.344-1.336-2.953
		c-0.657-0.608-1.665-0.938-3.023-0.984c-0.657,0-1.348,0-2.074,0c-0.728,0-1.547,0-2.461,0s-1.606,0-2.074,0
		c-2.157-0.094-4.336-0.094-6.539,0C6.444,3.492,5.437,3.821,4.781,4.43C4.124,5.039,3.679,6.023,3.445,7.383
		c-0.235,1.406-0.352,3.118-0.352,5.133c0,1.969,0.116,3.656,0.352,5.062c0.234,1.36,0.679,2.345,1.336,2.953
		c0.656,0.609,1.663,0.938,3.023,0.984c1.452,0.047,3.632,0.07,6.539,0.07c1.452,0.047,3.656,0.024,6.609-0.07
		c1.359-0.046,2.366-0.375,3.023-0.984C24.632,19.923,25.077,18.938,25.312,17.578z M15.188,5.766
		c0.234-0.141,0.585-0.316,1.055-0.527c0.468-0.211,0.89-0.41,1.266-0.598c0.375-0.187,0.726-0.375,1.055-0.562
		c0.562,1.125,1.382,2.802,2.461,5.027c1.078,2.227,1.898,3.902,2.461,5.027c-5.906,2.907-10.36,5.087-13.359,6.539
		c-3.234-6.609-4.876-9.96-4.922-10.055c0.375-0.187,0.937-0.457,1.688-0.809C7.64,9.457,8.202,9.188,8.578,9
		C9,9.891,9.679,11.274,10.617,13.148c0.937,1.875,1.617,3.259,2.039,4.148c0.187-0.094,0.457-0.222,0.809-0.387
		c0.352-0.164,0.621-0.292,0.809-0.387c-0.281-0.608-0.903-1.874-1.863-3.797c-0.961-1.922-1.7-3.421-2.215-4.5l3.375-1.688
		c0.281,0.609,0.902,1.875,1.863,3.797c0.96,1.923,1.698,3.422,2.215,4.5c0.187-0.094,0.457-0.222,0.809-0.387
		c0.352-0.164,0.621-0.292,0.809-0.387c-0.281-0.608-0.903-1.874-1.863-3.797C16.441,8.344,15.703,6.845,15.188,5.766z"/>
</g>
<g id="Layer_1">
</g>
</svg>
