<?xml version="1.0" encoding="iso-8859-1"?>
<!-- Generator: Adobe Illustrator 18.0.0, SVG Export Plug-In . SVG Version: 6.00 Build 0)  -->
<!DOCTYPE svg PUBLIC "-//W3C//DTD SVG 1.1//EN" "http://www.w3.org/Graphics/SVG/1.1/DTD/svg11.dtd">
<svg version="1.1" xmlns="http://www.w3.org/2000/svg" xmlns:xlink="http://www.w3.org/1999/xlink" x="0px" y="0px"
	 viewBox="0 0 28.582 28.688" style="enable-background:new 0 0 28.582 28.688;" xml:space="preserve">
<g id="Layer_22">
	<path d="M24.398,4.219c2.766,2.767,4.159,6.152,4.184,10.16c0.023,4.008-1.371,7.395-4.184,10.16
		c-2.767,2.766-6.142,4.148-10.125,4.148c-3.938,0-7.312-1.406-10.125-4.219C1.382,21.703,0,18.328,0,14.344
		C0,10.36,1.382,6.985,4.148,4.219C6.961,1.406,10.312,0,14.203,0C18.187,0,21.586,1.406,24.398,4.219z M4.852,6.258
		c-1.782,2.063-2.767,4.454-2.953,7.172c-0.188,2.719,0.445,5.228,1.898,7.523c-0.047-1.688,0.305-3.562,1.055-5.625
		c0.749-2.062,1.874-3.938,3.375-5.625L4.852,6.258z M9.562,11.039c-1.406,1.642-2.426,3.47-3.059,5.484
		c-0.633,2.016-0.903,3.703-0.809,5.062l7.172-7.242L9.562,11.039z M20.812,3.797c-2.016-1.219-4.219-1.828-6.609-1.828
		c-3.094,0-5.766,0.984-8.016,2.953l3.375,3.445c1.641-1.5,3.491-2.637,5.555-3.41C17.18,4.184,19.078,3.797,20.812,3.797z
		 M14.273,15.68l-7.172,7.242h0.562c1.5,0,3.164-0.34,4.992-1.02c1.828-0.679,3.469-1.652,4.922-2.918L14.273,15.68z M7.664,24.891
		c1.969,1.172,4.172,1.805,6.609,1.898c3.14,0,5.836-0.984,8.086-2.953l-3.445-3.445C15.492,23.391,11.742,24.891,7.664,24.891z
		 M10.969,9.703l3.305,3.305l7.242-7.242c-0.141-0.046-0.376-0.07-0.703-0.07c-1.501,0-3.153,0.341-4.957,1.02
		C14.051,7.395,12.421,8.392,10.969,9.703z M15.609,14.344l3.305,3.375c1.452-1.688,2.484-3.526,3.094-5.52
		c0.608-1.992,0.867-3.667,0.773-5.027L15.609,14.344z M20.25,19.055l3.445,3.375c1.781-2.062,2.766-4.476,2.953-7.242
		c0.187-2.766-0.446-5.273-1.898-7.523c0,0.844-0.141,1.969-0.422,3.375C23.625,14.18,22.265,16.852,20.25,19.055z"/>
</g>
<g id="Layer_1">
</g>
</svg>
