<?xml version="1.0" encoding="iso-8859-1"?>
<!-- Generator: Adobe Illustrator 18.0.0, SVG Export Plug-In . SVG Version: 6.00 Build 0)  -->
<!DOCTYPE svg PUBLIC "-//W3C//DTD SVG 1.1//EN" "http://www.w3.org/Graphics/SVG/1.1/DTD/svg11.dtd">
<svg version="1.1" xmlns="http://www.w3.org/2000/svg" xmlns:xlink="http://www.w3.org/1999/xlink" x="0px" y="0px"
	 viewBox="0 0 28.758 28.688" style="enable-background:new 0 0 28.758 28.688;" xml:space="preserve">
<g id="Layer_23">
	<path d="M4.184,4.184C6.972,1.396,10.359,0,14.344,0c3.983,0,7.383,1.396,10.195,4.184c2.812,2.789,4.219,6.177,4.219,10.16
		c0,3.984-1.406,7.372-4.219,10.16c-2.812,2.789-6.212,4.184-10.195,4.184c-3.984,0-7.372-1.395-10.16-4.184
		C1.395,21.716,0,18.328,0,14.344C0,10.36,1.395,6.973,4.184,4.184z M5.484,23.238c2.437,2.461,5.39,3.691,8.859,3.691
		c3.469,0,6.434-1.241,8.895-3.727c2.461-2.484,3.691-5.438,3.691-8.859c0-3.421-1.23-6.374-3.691-8.859
		C20.777,3,17.812,1.758,14.344,1.758c-3.422,0-6.363,1.23-8.824,3.691s-3.691,5.426-3.691,8.895
		C1.828,17.813,3.047,20.777,5.484,23.238z M17.93,13.289c0.281-0.656,0.281-1.195,0-1.617c-0.562-0.797-1.758-0.797-3.586,0
		l-0.352-0.211c0.281-0.844,0.211-1.477-0.211-1.898c-0.469-0.468-1.22-0.492-2.25-0.07c-1.031,0.422-2.063,1.149-3.094,2.18
		c-1.594,1.594-2.391,3.094-2.391,4.5c0,1.266,0.691,2.31,2.074,3.129c1.382,0.82,2.964,1.23,4.746,1.23
		c2.062,0,3.797-0.492,5.203-1.477s2.109-2.015,2.109-3.094c-0.047-1.125-0.703-1.874-1.969-2.25
		C17.93,13.617,17.835,13.477,17.93,13.289z M12.867,19.547c-1.312,0.141-2.485-0.046-3.516-0.562
		c-1.031-0.516-1.594-1.219-1.688-2.109c-0.095-0.89,0.305-1.688,1.195-2.391c0.89-0.703,2.015-1.125,3.375-1.266
		c1.312-0.141,2.472,0.047,3.48,0.562c1.008,0.517,1.558,1.22,1.652,2.109c0.094,0.891-0.293,1.688-1.16,2.391
		C15.339,18.984,14.227,19.406,12.867,19.547z M11.215,14.695c-0.633,0.281-1.09,0.703-1.371,1.266s-0.293,1.137-0.035,1.723
		c0.257,0.587,0.691,0.974,1.301,1.16c0.656,0.235,1.324,0.2,2.004-0.105c0.679-0.305,1.16-0.762,1.441-1.371
		c0.281-0.608,0.27-1.184-0.035-1.723c-0.306-0.538-0.785-0.902-1.441-1.09C12.469,14.368,11.848,14.414,11.215,14.695z
		 M12.164,17.508c-0.328,0.469-0.75,0.587-1.266,0.352c-0.517-0.234-0.609-0.586-0.281-1.055c0.327-0.516,0.727-0.656,1.195-0.422
		C12.375,16.664,12.491,17.04,12.164,17.508z M13.008,16.383c-0.141,0.141-0.306,0.188-0.492,0.141
		c-0.188-0.094-0.211-0.211-0.07-0.352c0.187-0.187,0.327-0.257,0.422-0.211C13.102,16.102,13.148,16.242,13.008,16.383z
		 M17.086,7.523c-0.422,0.095-0.587,0.328-0.492,0.703c0.094,0.422,0.327,0.587,0.703,0.492c1.171-0.234,2.155,0.07,2.953,0.914
		c0.844,0.891,1.055,1.898,0.633,3.023c-0.141,0.328,0,0.587,0.422,0.773c0.327,0.141,0.586,0,0.773-0.422
		c0.468-1.593,0.164-2.977-0.914-4.148C20.085,7.641,18.727,7.196,17.086,7.523z M17.508,9.633
		c-0.328,0.095-0.446,0.306-0.352,0.633c0.094,0.376,0.305,0.517,0.633,0.422c0.375-0.046,0.703,0.07,0.984,0.352
		s0.352,0.609,0.211,0.984c-0.141,0.281-0.024,0.517,0.352,0.703c0.281,0.095,0.516-0.046,0.703-0.422
		c0.141-0.797-0.024-1.477-0.492-2.039C19.03,9.657,18.352,9.446,17.508,9.633z"/>
</g>
<g id="Layer_1">
</g>
</svg>
