<?xml version="1.0" encoding="iso-8859-1"?>
<!-- Generator: Adobe Illustrator 18.0.0, SVG Export Plug-In . SVG Version: 6.00 Build 0)  -->
<!DOCTYPE svg PUBLIC "-//W3C//DTD SVG 1.1//EN" "http://www.w3.org/Graphics/SVG/1.1/DTD/svg11.dtd">
<svg version="1.1" xmlns="http://www.w3.org/2000/svg" xmlns:xlink="http://www.w3.org/1999/xlink" x="0px" y="0px"
	 viewBox="0 0 28.79 23.334" style="enable-background:new 0 0 28.79 23.334;" xml:space="preserve">
<g id="Layer_24">
	<path d="M21.656,11.24c2.296,0.657,3.445,1.969,3.445,3.938s-1.242,3.821-3.727,5.555c-2.485,1.734-5.579,2.602-9.281,2.602
		c-3.188,0-6.001-0.703-8.438-2.109C1.219,19.818,0,17.967,0,15.67c0-2.531,1.43-5.227,4.289-8.086
		c1.828-1.828,3.667-3.094,5.52-3.797c1.852-0.703,3.175-0.656,3.973,0.141c0.703,0.703,0.797,1.828,0.281,3.375
		c-0.095,0.188-0.095,0.306,0,0.352l0.703-0.07c3.28-1.359,5.414-1.336,6.398,0.07c0.516,0.75,0.516,1.712,0,2.883
		C21.023,10.865,21.188,11.099,21.656,11.24z M20.18,15.107c-0.141-1.593-1.114-2.848-2.918-3.762
		c-1.805-0.914-3.902-1.254-6.293-1.02c-2.391,0.235-4.384,0.984-5.977,2.25c-1.594,1.266-2.297,2.672-2.109,4.219
		c0.141,1.594,1.113,2.859,2.918,3.797c1.804,0.938,3.902,1.29,6.293,1.055c2.391-0.234,4.383-0.995,5.977-2.285
		C19.663,18.072,20.366,16.654,20.18,15.107z M12.586,12.717c1.171,0.328,2.015,0.974,2.531,1.934
		c0.516,0.961,0.538,1.98,0.07,3.059c-0.517,1.079-1.383,1.875-2.602,2.391c-1.22,0.517-2.415,0.587-3.586,0.211
		c-1.172-0.375-1.969-1.055-2.391-2.039s-0.376-1.992,0.141-3.023c0.468-1.03,1.276-1.781,2.426-2.25
		C10.324,12.53,11.461,12.435,12.586,12.717z M11.004,16.795c-0.117-0.375-0.363-0.656-0.738-0.844
		c-0.798-0.375-1.501-0.116-2.109,0.773c-0.517,0.844-0.352,1.477,0.492,1.898c0.844,0.376,1.57,0.141,2.18-0.703
		C11.062,17.545,11.12,17.171,11.004,16.795z M12.094,15.248c-0.281-0.141-0.539-0.046-0.773,0.281
		c-0.141,0.328-0.07,0.562,0.211,0.703c0.327,0.141,0.608,0.047,0.844-0.281C12.609,15.67,12.516,15.435,12.094,15.248z
		 M26.789,2.521c1.969,2.156,2.484,4.641,1.547,7.453c-0.281,0.703-0.75,0.938-1.406,0.703c-0.703-0.281-0.938-0.749-0.703-1.406
		c0.656-1.969,0.281-3.727-1.125-5.273c-1.453-1.593-3.164-2.155-5.133-1.688c-0.703,0.188-1.125-0.094-1.266-0.844
		c-0.188-0.703,0.094-1.125,0.844-1.266C22.405-0.407,24.82,0.366,26.789,2.521z M23.906,5.123c0.984,1.079,1.241,2.274,0.773,3.586
		c-0.188,0.609-0.587,0.82-1.195,0.633c-0.562-0.141-0.75-0.538-0.562-1.195c0.234-0.703,0.116-1.289-0.352-1.758
		c-0.469-0.516-1.055-0.703-1.758-0.562c-0.562,0.141-0.938-0.094-1.125-0.703c-0.141-0.562,0.094-0.938,0.703-1.125
		C21.75,3.717,22.922,4.093,23.906,5.123z"/>
</g>
<g id="Layer_1">
</g>
</svg>
