<?xml version="1.0" encoding="iso-8859-1"?>
<!-- Generator: Adobe Illustrator 18.0.0, SVG Export Plug-In . SVG Version: 6.00 Build 0)  -->
<!DOCTYPE svg PUBLIC "-//W3C//DTD SVG 1.1//EN" "http://www.w3.org/Graphics/SVG/1.1/DTD/svg11.dtd">
<svg version="1.1" xmlns="http://www.w3.org/2000/svg" xmlns:xlink="http://www.w3.org/1999/xlink" x="0px" y="0px"
	 viewBox="0 0 28.758 28.688" style="enable-background:new 0 0 28.758 28.688;" xml:space="preserve">
<g id="Layer_35">
	<path d="M4.184,4.184C6.972,1.396,10.359,0,14.344,0c3.983,0,7.383,1.396,10.195,4.184c2.812,2.789,4.219,6.177,4.219,10.16
		c0,3.984-1.406,7.372-4.219,10.16c-2.812,2.789-6.212,4.184-10.195,4.184c-3.984,0-7.372-1.395-10.16-4.184
		C1.395,21.716,0,18.328,0,14.344C0,10.36,1.395,6.973,4.184,4.184z M5.484,23.238c2.437,2.461,5.39,3.691,8.859,3.691
		c3.469,0,6.434-1.241,8.895-3.727c2.461-2.484,3.691-5.438,3.691-8.859c0-3.421-1.23-6.374-3.691-8.859
		C20.777,3,17.812,1.758,14.344,1.758c-3.422,0-6.363,1.23-8.824,3.691s-3.691,5.426-3.691,8.895
		C1.828,17.813,3.047,20.777,5.484,23.238z M15.117,12.867h-0.07v-1.055c0-0.516-0.281-0.773-0.844-0.773s-0.844,0.258-0.844,0.773
		v4.992c0,0.938-0.341,1.758-1.02,2.461c-0.68,0.703-1.488,1.055-2.426,1.055c-0.938,0-1.758-0.34-2.461-1.02
		c-0.703-0.679-1.055-1.512-1.055-2.496v-2.18h2.742v2.18c0,0.562,0.257,0.844,0.773,0.844c0.562,0,0.844-0.281,0.844-0.844v-5.062
		c0.046-0.938,0.41-1.733,1.09-2.391c0.679-0.656,1.487-0.984,2.426-0.984c0.938,0,1.733,0.328,2.391,0.984
		c0.656,0.657,1.008,1.453,1.055,2.391v1.125l-1.547,0.492L15.117,12.867z M19.406,14.625v0.07h2.672v2.109
		c0,0.938-0.341,1.758-1.02,2.461c-0.68,0.703-1.512,1.055-2.496,1.055c-0.938,0-1.747-0.352-2.426-1.055
		c-0.68-0.703-1.02-1.522-1.02-2.461v-2.18l1.055,0.492l1.547-0.422v2.18c0,0.562,0.281,0.844,0.844,0.844s0.844-0.281,0.844-0.844
		V14.625z"/>
</g>
<g id="Layer_1">
</g>
</svg>
