<?xml version="1.0" encoding="iso-8859-1"?>
<!-- Generator: Adobe Illustrator 18.0.0, SVG Export Plug-In . SVG Version: 6.00 Build 0)  -->
<!DOCTYPE svg PUBLIC "-//W3C//DTD SVG 1.1//EN" "http://www.w3.org/Graphics/SVG/1.1/DTD/svg11.dtd">
<svg version="1.1" xmlns="http://www.w3.org/2000/svg" xmlns:xlink="http://www.w3.org/1999/xlink" x="0px" y="0px"
	 viewBox="0 0 28.758 21.938" style="enable-background:new 0 0 28.758 21.938;" xml:space="preserve">
<g id="Layer_36">
	<path d="M15.891,8.227h-0.07V6.469c0-0.422-0.141-0.773-0.422-1.055s-0.633-0.422-1.055-0.422s-0.785,0.141-1.09,0.422
		c-0.306,0.281-0.457,0.633-0.457,1.055v9.141c-0.047,1.782-0.692,3.281-1.934,4.5c-1.242,1.22-2.731,1.828-4.465,1.828
		c-1.734,0-3.234-0.621-4.5-1.863C0.633,18.833,0,17.321,0,15.539v-4.008h4.922v4.008c0,0.422,0.141,0.773,0.422,1.055
		s0.633,0.422,1.055,0.422s0.784-0.141,1.09-0.422c0.305-0.281,0.457-0.633,0.457-1.055V6.258c0.094-1.733,0.749-3.21,1.969-4.43
		C11.133,0.609,12.609,0,14.344,0c1.733,0,3.21,0.609,4.43,1.828c1.219,1.22,1.874,2.696,1.969,4.43v2.039l-2.953,0.844
		L15.891,8.227z M23.766,11.531h4.992v4.008c0,1.734-0.633,3.234-1.898,4.5s-2.789,1.898-4.57,1.898
		c-1.734,0-3.224-0.608-4.465-1.828c-1.242-1.219-1.888-2.718-1.934-4.5v-4.008l1.969,0.914l2.883-0.914v4.078
		c0,0.422,0.151,0.773,0.457,1.055c0.305,0.281,0.668,0.422,1.09,0.422s0.773-0.141,1.055-0.422s0.422-0.633,0.422-1.055V11.531z"/>
</g>
<g id="Layer_1">
</g>
</svg>
