<?xml version="1.0" encoding="iso-8859-1"?>
<!-- Generator: Adobe Illustrator 18.0.0, SVG Export Plug-In . SVG Version: 6.00 Build 0)  -->
<!DOCTYPE svg PUBLIC "-//W3C//DTD SVG 1.1//EN" "http://www.w3.org/Graphics/SVG/1.1/DTD/svg11.dtd">
<svg version="1.1" xmlns="http://www.w3.org/2000/svg" xmlns:xlink="http://www.w3.org/1999/xlink" x="0px" y="0px"
	 viewBox="0 0 16.945 25.383" style="enable-background:new 0 0 16.945 25.383;" xml:space="preserve">
<g id="Layer_50">
	<path d="M16.945,3.445v21.938H0V3.445h6.75V0h3.375v3.445H16.945z M10.125,6.82H6.75V5.133H1.688v18.562h13.57V5.133h-5.133V6.82z
		 M5.414,18.07h6.117c0.422,0,0.773,0.152,1.055,0.457c0.281,0.306,0.422,0.668,0.422,1.09v1.477h-9.07v-1.477
		c0-0.422,0.141-0.784,0.422-1.09C4.641,18.223,4.992,18.07,5.414,18.07z M6.047,10.336C6.703,9.68,7.499,9.352,8.438,9.352
		c0.938,0,1.733,0.328,2.391,0.984c0.656,0.657,0.984,1.453,0.984,2.391c0,0.938-0.328,1.734-0.984,2.391
		c-0.657,0.657-1.453,0.984-2.391,0.984c-0.938,0-1.734-0.327-2.391-0.984c-0.657-0.656-0.984-1.452-0.984-2.391
		C5.062,11.789,5.39,10.993,6.047,10.336z M8.438,10.406c-0.609,0-1.137,0.223-1.582,0.668c-0.446,0.446-0.668,0.996-0.668,1.652
		c0,0.657,0.211,1.195,0.633,1.617s0.96,0.633,1.617,0.633c0.656,0,1.206-0.222,1.652-0.668c0.445-0.445,0.668-0.973,0.668-1.582
		c0-0.656-0.223-1.206-0.668-1.652C9.644,10.629,9.094,10.406,8.438,10.406z M8.438,0.844c-0.469,0-0.75,0.306-0.844,0.914
		c0,0.562,0.281,0.844,0.844,0.844c0.608,0,0.914-0.281,0.914-0.844C9.352,1.149,9.046,0.844,8.438,0.844z"/>
</g>
<g id="Layer_1">
</g>
</svg>
