<?xml version="1.0" encoding="iso-8859-1"?>
<!-- Generator: Adobe Illustrator 18.0.0, SVG Export Plug-In . SVG Version: 6.00 Build 0)  -->
<!DOCTYPE svg PUBLIC "-//W3C//DTD SVG 1.1//EN" "http://www.w3.org/Graphics/SVG/1.1/DTD/svg11.dtd">
<svg version="1.1" xmlns="http://www.w3.org/2000/svg" xmlns:xlink="http://www.w3.org/1999/xlink" x="0px" y="0px"
	 viewBox="0 0 28.758 28.688" style="enable-background:new 0 0 28.758 28.688;" xml:space="preserve">
<g id="Layer_53">
	<path d="M4.184,4.184C6.972,1.396,10.359,0,14.344,0c3.983,0,7.383,1.396,10.195,4.184c2.812,2.789,4.219,6.177,4.219,10.16
		c0,3.984-1.406,7.372-4.219,10.16c-2.812,2.789-6.212,4.184-10.195,4.184c-3.985,0-7.372-1.395-10.16-4.184
		C1.394,21.716,0,18.328,0,14.344C0,10.36,1.394,6.973,4.184,4.184z M5.484,23.238c2.437,2.461,5.39,3.691,8.859,3.691
		c3.468,0,6.434-1.241,8.895-3.727c2.461-2.484,3.691-5.438,3.691-8.859c0-3.421-1.23-6.374-3.691-8.859
		C20.777,3,17.812,1.758,14.344,1.758c-3.422,0-6.363,1.23-8.824,3.691s-3.691,5.426-3.691,8.895
		C1.828,17.813,3.046,20.777,5.484,23.238z M13.219,7.102v4.5c0,1.547-0.387,2.965-1.16,4.254c-0.773,1.29-1.793,2.239-3.059,2.848
		c-1.125-1.266-1.688-2.788-1.688-4.57c0-1.733,0.562-3.27,1.688-4.605S11.531,7.383,13.219,7.102z M14.414,15.891
		c0.422,1.734,1.547,3.211,3.375,4.43c-0.984,0.562-2.109,0.844-3.375,0.844s-2.391-0.281-3.375-0.844
		C12.867,19.102,13.992,17.625,14.414,15.891z M15.609,7.102c1.688,0.281,3.094,1.09,4.219,2.426s1.688,2.872,1.688,4.605
		c0,1.782-0.562,3.305-1.688,4.57c-1.266-0.608-2.285-1.558-3.059-2.848c-0.773-1.289-1.16-2.707-1.16-4.254V7.102z"/>
</g>
<g id="Layer_1">
</g>
</svg>
