<?xml version="1.0" encoding="iso-8859-1"?>
<!-- Generator: Adobe Illustrator 18.0.0, SVG Export Plug-In . SVG Version: 6.00 Build 0)  -->
<!DOCTYPE svg PUBLIC "-//W3C//DTD SVG 1.1//EN" "http://www.w3.org/Graphics/SVG/1.1/DTD/svg11.dtd">
<svg version="1.1" xmlns="http://www.w3.org/2000/svg" xmlns:xlink="http://www.w3.org/1999/xlink" x="0px" y="0px"
	 viewBox="0 0 25.453 25.312" style="enable-background:new 0 0 25.453 25.312;" xml:space="preserve">
<g id="Layer_54">
	<path d="M10.617,0v8.086c0,2.812-0.703,5.355-2.109,7.629c-1.406,2.274-3.234,3.973-5.484,5.098C1.007,18.422,0,15.68,0,12.586
		c0-3.14,1.007-5.895,3.023-8.262C5.038,1.958,7.569,0.517,10.617,0z M12.727,15.82c0.749,3.234,2.788,5.883,6.117,7.945
		c-1.923,1.031-3.962,1.547-6.117,1.547c-2.157,0-4.196-0.516-6.117-1.547C9.937,21.61,11.976,18.961,12.727,15.82z M14.836,0
		c3.046,0.517,5.578,1.958,7.594,4.324c2.015,2.367,3.023,5.122,3.023,8.262c0,3.094-1.009,5.836-3.023,8.227
		c-2.25-1.125-4.078-2.823-5.484-5.098c-1.406-2.273-2.109-4.816-2.109-7.629V0z"/>
</g>
<g id="Layer_1">
</g>
</svg>
