<?xml version="1.0" encoding="iso-8859-1"?>
<!-- Generator: Adobe Illustrator 18.0.0, SVG Export Plug-In . SVG Version: 6.00 Build 0)  -->
<!DOCTYPE svg PUBLIC "-//W3C//DTD SVG 1.1//EN" "http://www.w3.org/Graphics/SVG/1.1/DTD/svg11.dtd">
<svg version="1.1" xmlns="http://www.w3.org/2000/svg" xmlns:xlink="http://www.w3.org/1999/xlink" x="0px" y="0px"
	 viewBox="0 0 21.094 28.758" style="enable-background:new 0 0 21.094 28.758;" xml:space="preserve">
<g id="Layer_58">
	<path d="M21.094,10.547c0,1.969-0.504,3.786-1.512,5.449c-1.009,1.664-2.38,2.965-4.113,3.902l0.844,8.859l-5.695-3.797
		l-5.766,3.797l0.773-8.859c-1.735-0.938-3.106-2.238-4.113-3.902C0.503,14.333,0,12.516,0,10.547c0-2.906,1.03-5.39,3.094-7.453
		C5.156,1.031,7.64,0,10.547,0c2.906,0,5.39,1.031,7.453,3.094C20.062,5.157,21.094,7.641,21.094,10.547z M4.43,16.664
		c1.688,1.688,3.727,2.531,6.117,2.531s4.43-0.844,6.117-2.531s2.531-3.727,2.531-6.117s-0.844-4.418-2.531-6.082
		c-1.688-1.663-3.727-2.496-6.117-2.496S6.117,2.802,4.43,4.465c-1.688,1.664-2.531,3.691-2.531,6.082S2.742,14.977,4.43,16.664z
		 M9.141,12.094l5.062-5.062l1.336,1.336l-6.398,6.398L5.555,11.25l1.336-1.336L9.141,12.094z"/>
</g>
<g id="Layer_1">
</g>
</svg>
