<?xml version="1.0" encoding="iso-8859-1"?>
<!-- Generator: Adobe Illustrator 18.0.0, SVG Export Plug-In . SVG Version: 6.00 Build 0)  -->
<!DOCTYPE svg PUBLIC "-//W3C//DTD SVG 1.1//EN" "http://www.w3.org/Graphics/SVG/1.1/DTD/svg11.dtd">
<svg version="1.1" xmlns="http://www.w3.org/2000/svg" xmlns:xlink="http://www.w3.org/1999/xlink" x="0px" y="0px"
	 viewBox="0 0 24.398 25.664" style="enable-background:new 0 0 24.398 25.664;" xml:space="preserve">
<g id="Layer_59">
	<path d="M24.398,25.664H22.43v-4.289c0-0.89-0.306-1.652-0.914-2.285c-0.609-0.633-1.36-0.949-2.25-0.949H5.133
		c-0.891,0-1.652,0.316-2.285,0.949s-0.949,1.396-0.949,2.285v4.289H0v-4.289c0-1.406,0.503-2.612,1.512-3.621
		c1.008-1.008,2.215-1.512,3.621-1.512h14.133c1.406,0,2.612,0.504,3.621,1.512c1.008,1.009,1.512,2.215,1.512,3.621V25.664z
		 M12.164,12.586c-1.312,0-2.438-0.48-3.375-1.441c-0.938-0.96-1.406-2.098-1.406-3.41V4.781c0-1.312,0.468-2.437,1.406-3.375
		C9.727,0.469,10.852,0,12.164,0c1.312,0,2.437,0.469,3.375,1.406c0.938,0.938,1.406,2.063,1.406,3.375v2.953
		c0.046,1.312-0.398,2.45-1.336,3.41C14.671,12.105,13.523,12.586,12.164,12.586z M14.238,2.742
		c-0.587-0.562-1.277-0.844-2.074-0.844c-0.798,0-1.477,0.281-2.039,0.844S9.281,3.984,9.281,4.781v2.953
		c0,0.798,0.281,1.477,0.844,2.039s1.241,0.844,2.039,0.844c0.797,0,1.477-0.281,2.039-0.844s0.844-1.241,0.844-2.039V4.781
		C15.093,3.984,14.824,3.305,14.238,2.742z"/>
</g>
<g id="Layer_1">
</g>
</svg>
