<?xml version="1.0" encoding="iso-8859-1"?>
<!-- Generator: Adobe Illustrator 18.0.0, SVG Export Plug-In . SVG Version: 6.00 Build 0)  -->
<!DOCTYPE svg PUBLIC "-//W3C//DTD SVG 1.1//EN" "http://www.w3.org/Graphics/SVG/1.1/DTD/svg11.dtd">
<svg version="1.1" xmlns="http://www.w3.org/2000/svg" xmlns:xlink="http://www.w3.org/1999/xlink" x="0px" y="0px"
	 viewBox="0 0 24.609 25.734" style="enable-background:new 0 0 24.609 25.734;" xml:space="preserve">
<g id="Layer_79">
	<path d="M24.609,25.734h-2.742v-4.008c0-0.749-0.258-1.395-0.773-1.934c-0.517-0.538-1.149-0.809-1.898-0.809H5.414
		c-0.75,0-1.396,0.271-1.934,0.809c-0.54,0.539-0.809,1.185-0.809,1.934v4.008H0v-4.008c0-1.452,0.538-2.718,1.617-3.797
		c1.078-1.078,2.343-1.617,3.797-1.617h13.781c1.452,0,2.718,0.539,3.797,1.617c1.078,1.079,1.617,2.345,1.617,3.797V25.734z
		 M15.891,11.25c-0.984,1.031-2.18,1.547-3.586,1.547s-2.614-0.516-3.621-1.547C7.675,10.22,7.172,9,7.172,7.594V5.203
		c0-1.406,0.503-2.625,1.512-3.656C9.691,0.517,10.898,0,12.305,0s2.612,0.517,3.621,1.547c1.007,1.032,1.512,2.25,1.512,3.656
		v2.391C17.39,9,16.875,10.22,15.891,11.25z M13.992,3.48c-0.469-0.492-1.032-0.738-1.688-0.738c-0.657,0-1.23,0.246-1.723,0.738
		S9.844,4.547,9.844,5.203v2.461c0,0.657,0.246,1.23,0.738,1.723s1.065,0.738,1.723,0.738c0.656,0,1.23-0.246,1.723-0.738
		s0.738-1.065,0.738-1.723V5.203C14.718,4.547,14.46,3.973,13.992,3.48z"/>
</g>
<g id="Layer_1">
</g>
</svg>
