<?xml version="1.0" encoding="iso-8859-1"?>
<!-- Generator: Adobe Illustrator 18.0.0, SVG Export Plug-In . SVG Version: 6.00 Build 0)  -->
<!DOCTYPE svg PUBLIC "-//W3C//DTD SVG 1.1//EN" "http://www.w3.org/Graphics/SVG/1.1/DTD/svg11.dtd">
<svg version="1.1" xmlns="http://www.w3.org/2000/svg" xmlns:xlink="http://www.w3.org/1999/xlink" x="0px" y="0px"
	 viewBox="0 0 28.758 28.688" style="enable-background:new 0 0 28.758 28.688;" xml:space="preserve">
<g id="Layer_83">
	<path d="M4.184,4.184C6.972,1.396,10.359,0,14.344,0c3.983,0,7.383,1.396,10.195,4.184c2.812,2.789,4.219,6.177,4.219,10.16
		c0,3.984-1.406,7.372-4.219,10.16c-2.812,2.789-6.212,4.184-10.195,4.184c-3.985,0-7.372-1.395-10.16-4.184
		C1.394,21.716,0,18.328,0,14.344C0,10.36,1.394,6.973,4.184,4.184z M5.484,23.238c2.437,2.461,5.39,3.691,8.859,3.691
		c3.468,0,6.434-1.241,8.895-3.727c2.461-2.484,3.691-5.438,3.691-8.859c0-3.421-1.23-6.374-3.691-8.859
		C20.777,3,17.812,1.758,14.344,1.758c-3.422,0-6.363,1.23-8.824,3.691s-3.691,5.426-3.691,8.895
		C1.828,17.813,3.046,20.777,5.484,23.238z M17.156,18.773c-1.969,0-3.422,0.024-4.359,0.07h-0.492
		c-0.141-0.046-0.352-0.164-0.633-0.352c-0.281-0.234-0.61-0.679-0.984-1.336c-0.517-0.797-1.055-1.804-1.617-3.023
		c-0.095-0.141-0.306-0.586-0.633-1.336c-0.329-0.749-0.61-1.312-0.844-1.688c-0.376-0.656-0.68-1.125-0.914-1.406
		c-0.376-0.608-0.773-0.96-1.195-1.055h0.773c1.64,0,2.858,0.047,3.656,0.141c1.5,0.188,2.647,0.517,3.445,0.984
		c0.749,0.469,1.406,1.431,1.969,2.883c0.141,0.376,0.445,1.477,0.914,3.305c0.046,0.188,0.116,0.457,0.211,0.809
		c0.093,0.352,0.164,0.622,0.211,0.809c0.141,0.469,0.211,0.728,0.211,0.773C17.016,18.587,17.109,18.728,17.156,18.773z
		 M21.164,18.844h0.07v1.477c-0.469,0.095-0.891,0.07-1.266-0.07c-0.422-0.141-0.703-0.281-0.844-0.422
		c-0.047-0.046-0.188-0.305-0.422-0.773c-0.095-0.234-0.141-0.819-0.141-1.758c0-1.547-0.024-2.718-0.07-3.516
		c0-0.046-0.024-0.292-0.07-0.738c-0.047-0.445-0.095-0.784-0.141-1.02c0-0.094-0.024-0.222-0.07-0.387
		c-0.047-0.164-0.07-0.292-0.07-0.387c-0.141-0.375-0.306-0.562-0.492-0.562h0.07h1.266c0.281,0,0.492,0.07,0.633,0.211
		c0.093,0.095,0.187,0.328,0.281,0.703c0.046,0.095,0.07,0.246,0.07,0.457s0.023,0.363,0.07,0.457
		c0.141,1.125,0.211,2.274,0.211,3.445v1.758c0,0.422,0.046,0.703,0.141,0.844C20.531,18.75,20.788,18.844,21.164,18.844z"/>
</g>
<g id="Layer_1">
</g>
</svg>
