<?xml version="1.0" encoding="iso-8859-1"?>
<!-- Generator: Adobe Illustrator 18.0.0, SVG Export Plug-In . SVG Version: 6.00 Build 0)  -->
<!DOCTYPE svg PUBLIC "-//W3C//DTD SVG 1.1//EN" "http://www.w3.org/Graphics/SVG/1.1/DTD/svg11.dtd">
<svg version="1.1" xmlns="http://www.w3.org/2000/svg" xmlns:xlink="http://www.w3.org/1999/xlink" x="0px" y="0px"
	 viewBox="0 0 28.688 21.395" style="enable-background:new 0 0 28.688 21.395;" xml:space="preserve">
<g id="Layer_84">
	<path d="M21.305,18.562c-1.828,0.047-4.454,0.024-7.875-0.07c-0.376,0-0.68-0.023-0.914-0.07c-0.376-0.141-0.75-0.352-1.125-0.633
		c-0.517-0.422-1.149-1.195-1.898-2.32c-0.891-1.406-1.853-3.258-2.883-5.555C5.484,7.478,4.593,5.649,3.938,4.43
		C3.468,3.586,2.906,2.719,2.25,1.828C1.547,0.844,0.796,0.235,0,0h1.406c2.906,0.095,5.133,0.211,6.68,0.352
		c2.858,0.281,4.968,0.844,6.328,1.687c1.5,0.984,2.695,2.742,3.586,5.273c0.422,1.22,0.984,3.259,1.688,6.117
		c0.375,1.782,0.585,2.742,0.633,2.883c0.234,0.844,0.375,1.312,0.422,1.406C20.929,18.235,21.117,18.517,21.305,18.562z
		 M28.617,18.562h0.07v2.742c-0.798,0.141-1.547,0.117-2.25-0.07c-0.61-0.141-1.125-0.397-1.547-0.773
		c-0.188-0.141-0.446-0.608-0.773-1.406c-0.141-0.375-0.211-1.43-0.211-3.164c0-2.155-0.07-4.289-0.211-6.398
		c-0.095-1.406-0.211-2.461-0.352-3.164c-0.095-0.656-0.211-1.148-0.352-1.477c-0.281-0.656-0.562-0.984-0.844-0.984h0.211h2.32
		c0.562,0,0.937,0.117,1.125,0.352c0.046,0.047,0.211,0.492,0.492,1.336c0.093,0.281,0.187,0.798,0.281,1.547
		c0.187,1.406,0.327,3.492,0.422,6.258c0.046,0.703,0.07,1.782,0.07,3.234c0,0.75,0.07,1.242,0.211,1.477
		C27.515,18.492,27.96,18.657,28.617,18.562z"/>
</g>
<g id="Layer_1">
</g>
</svg>
