<?xml version="1.0" encoding="iso-8859-1"?>
<!-- Generator: Adobe Illustrator 18.0.0, SVG Export Plug-In . SVG Version: 6.00 Build 0)  -->
<!DOCTYPE svg PUBLIC "-//W3C//DTD SVG 1.1//EN" "http://www.w3.org/Graphics/SVG/1.1/DTD/svg11.dtd">
<svg version="1.1" xmlns="http://www.w3.org/2000/svg" xmlns:xlink="http://www.w3.org/1999/xlink" x="0px" y="0px"
	 viewBox="0 0 28.828 28.828" style="enable-background:new 0 0 28.828 28.828;" xml:space="preserve">
<g id="ico-baidu-circle">
	<path d="M24.609,24.609c-2.812,2.812-6.212,4.219-10.195,4.219c-3.984,0-7.383-1.406-10.195-4.219S0,18.399,0,14.414
		c0-3.983,1.406-7.383,4.219-10.195S10.43,0,14.414,0c3.983,0,7.383,1.406,10.195,4.219s4.219,6.212,4.219,10.195
		C28.828,18.399,27.422,21.797,24.609,24.609z M23.625,5.203c-2.531-2.531-5.602-3.797-9.211-3.797c-3.61,0-6.691,1.278-9.246,3.832
		c-2.556,2.556-3.832,5.614-3.832,9.176c0,3.61,1.276,6.692,3.832,9.246c2.555,2.556,5.636,3.832,9.246,3.832
		c3.562,0,6.62-1.276,9.176-3.832c2.555-2.554,3.832-5.636,3.832-9.246C27.422,10.805,26.156,7.734,23.625,5.203z M9.703,14.414
		C9,14.555,8.461,14.321,8.086,13.711c-0.376-0.608-0.492-1.171-0.352-1.688c0.141-1.218,0.633-1.874,1.477-1.969
		c0.468-0.046,0.879,0.13,1.23,0.527c0.352,0.399,0.551,0.786,0.598,1.16C11.273,13.289,10.828,14.18,9.703,14.414z M19.336,16.945
		c0.094,0.095,0.199,0.223,0.316,0.387c0.116,0.165,0.27,0.517,0.457,1.055c0.187,0.54,0.116,1.114-0.211,1.723
		c-0.235,0.61-0.692,0.984-1.371,1.125c-0.68,0.141-1.301,0.141-1.863,0l-0.844-0.211c-0.095-0.046-0.223-0.081-0.387-0.105
		c-0.165-0.023-0.481-0.046-0.949-0.07c-0.469-0.023-0.891,0.012-1.266,0.105l-2.531,0.211c-1.031,0.047-1.712-0.608-2.039-1.969
		c-0.095-0.468-0.07-0.914,0.07-1.336s0.327-0.749,0.562-0.984c0.234-0.234,0.468-0.468,0.703-0.703l0.352-0.281l0.422-0.281
		c0.281-0.234,0.562-0.503,0.844-0.809c0.281-0.304,0.516-0.621,0.703-0.949c0.422-0.703,1.02-1.09,1.793-1.16
		s1.558,0.387,2.355,1.371c0.327,0.469,0.727,0.938,1.195,1.406c0.468,0.469,0.867,0.844,1.195,1.125L19.336,16.945z M13.922,20.039
		v-5.062h-0.984v1.336h-1.125c-0.703,0.047-1.195,0.492-1.477,1.336c-0.095,0.517-0.024,1.009,0.211,1.477
		c0.234,0.469,0.656,0.773,1.266,0.914H13.922z M12.656,11.18c-0.469,0-0.844-0.211-1.125-0.633s-0.422-0.96-0.422-1.617
		c0-0.608,0.151-1.136,0.457-1.582c0.305-0.445,0.668-0.668,1.09-0.668s0.797,0.223,1.125,0.668
		c0.327,0.446,0.492,0.974,0.492,1.582c0,0.61-0.165,1.137-0.492,1.582C13.453,10.958,13.078,11.18,12.656,11.18z M12.023,17.156
		v-0.07h0.844v2.039h-0.773c-0.376,0.047-0.633-0.164-0.773-0.633c-0.047-0.281-0.024-0.538,0.07-0.773
		C11.531,17.438,11.742,17.251,12.023,17.156z M17.719,20.039v-3.586h-0.984v2.672H15.75c-0.188,0-0.306-0.093-0.352-0.281v-2.391
		h-0.984v2.672c0.046,0.422,0.375,0.728,0.984,0.914H17.719z M16.453,11.32c-1.079-0.141-1.523-0.89-1.336-2.25
		c0.094-0.468,0.352-0.949,0.773-1.441s0.819-0.691,1.195-0.598c0.422,0.095,0.784,0.376,1.09,0.844
		c0.305,0.469,0.433,0.938,0.387,1.406c-0.095,0.517-0.328,0.997-0.703,1.441C17.483,11.169,17.016,11.368,16.453,11.32z
		 M21.164,12.938c0,1.547-0.517,2.345-1.547,2.391c-0.562,0-0.984-0.116-1.266-0.352c-0.281-0.234-0.446-0.48-0.492-0.738
		c-0.047-0.257-0.07-0.573-0.07-0.949c0-1.452,0.516-2.18,1.547-2.18c0.608,0,1.065,0.211,1.371,0.633
		C21.012,12.164,21.164,12.563,21.164,12.938z"/>
</g>
<g id="Layer_1">
</g>
</svg>
