<?xml version="1.0" encoding="iso-8859-1"?>
<!-- Generator: Adobe Illustrator 18.0.0, SVG Export Plug-In . SVG Version: 6.00 Build 0)  -->
<!DOCTYPE svg PUBLIC "-//W3C//DTD SVG 1.1//EN" "http://www.w3.org/Graphics/SVG/1.1/DTD/svg11.dtd">
<svg version="1.1" xmlns="http://www.w3.org/2000/svg" xmlns:xlink="http://www.w3.org/1999/xlink" x="0px" y="0px"
	 viewBox="0 0 23.197 25.402" style="enable-background:new 0 0 23.197 25.402;" xml:space="preserve">
<g id="ico-baidu">
	<path d="M3.509,13.359c-1.22,0.235-2.145-0.151-2.777-1.16c-0.633-1.007-0.854-1.979-0.668-2.918
		C0.11,9.047,0.169,8.743,0.24,8.367c0.07-0.375,0.327-0.879,0.773-1.512c0.445-0.633,0.995-0.972,1.652-1.02
		c0.797-0.093,1.5,0.2,2.109,0.879c0.608,0.68,0.96,1.348,1.055,2.004C6.111,11.438,5.337,12.985,3.509,13.359z M20.103,17.719
		c0.046,0.047,0.129,0.118,0.246,0.211c0.116,0.095,0.281,0.316,0.492,0.668s0.375,0.715,0.492,1.09
		c0.116,0.376,0.151,0.879,0.105,1.512c-0.047,0.633-0.211,1.301-0.492,2.004c-0.422,1.032-1.22,1.688-2.391,1.969
		c-1.172,0.281-2.227,0.306-3.164,0.07l-1.406-0.352c-0.141-0.046-0.352-0.093-0.633-0.141c-0.281-0.046-0.82-0.116-1.617-0.211
		c-0.798-0.093-1.523-0.023-2.18,0.211c-0.703,0.188-1.418,0.306-2.145,0.352c-0.728,0.047-1.277,0.047-1.652,0H5.197
		c-0.188,0-0.446-0.023-0.773-0.07c-0.328-0.046-0.809-0.362-1.441-0.949c-0.633-0.585-1.066-1.394-1.301-2.426
		c-0.188-0.796-0.152-1.57,0.105-2.32c0.257-0.749,0.586-1.324,0.984-1.723c0.397-0.397,0.832-0.761,1.301-1.09l0.633-0.562
		c0.046-0.046,0.27-0.246,0.668-0.598c0.397-0.352,0.832-0.796,1.301-1.336c0.468-0.538,0.89-1.09,1.266-1.652
		c0.422-0.703,1.03-1.253,1.828-1.652c0.797-0.397,1.711-0.468,2.742-0.211c1.03,0.258,1.922,0.997,2.672,2.215
		c0.562,0.75,1.254,1.547,2.074,2.391c0.819,0.844,1.487,1.501,2.004,1.969L20.103,17.719z M10.751,22.992v-8.648H9.134v2.32H7.236
		c-1.266,0.095-2.134,0.868-2.602,2.32c-0.095,0.75,0,1.571,0.281,2.461c0.046,0.095,0.141,0.235,0.281,0.422
		c0.141,0.188,0.387,0.399,0.738,0.633c0.352,0.235,0.762,0.399,1.23,0.492H10.751z M10.54,6.715
		c-0.517,0.773-1.149,1.16-1.898,1.16c-0.75,0-1.396-0.387-1.934-1.16C6.169,5.941,5.9,5.017,5.9,3.938
		c0-1.078,0.27-2.004,0.809-2.777C7.247,0.387,7.892,0,8.642,0c0.749,0,1.382,0.387,1.898,1.16c0.516,0.773,0.773,1.7,0.773,2.777
		C11.314,5.017,11.056,5.941,10.54,6.715z M7.517,18.07h1.547v3.516H7.587c-0.657-0.046-1.079-0.445-1.266-1.195
		c-0.095-0.422-0.07-0.867,0.07-1.336C6.533,18.587,6.908,18.258,7.517,18.07z M17.361,22.992v-6.117h-1.758v4.57h-1.688
		c-0.328-0.046-0.539-0.211-0.633-0.492v-4.078h-1.617v4.57c0,0.75,0.538,1.266,1.617,1.547H17.361z M15.181,8.086
		c-1.828-0.234-2.602-1.547-2.32-3.938c0.094-0.796,0.527-1.617,1.301-2.461s1.487-1.171,2.145-0.984
		c0.749,0.188,1.382,0.668,1.898,1.441c0.516,0.773,0.703,1.582,0.562,2.426c-0.188,0.938-0.598,1.793-1.23,2.566
		S16.119,8.227,15.181,8.086z M23.197,10.828c0,0.047,0,0.165,0,0.352c0,0.188,0,0.352,0,0.492S23.185,12,23.162,12.234
		c-0.024,0.235-0.06,0.446-0.105,0.633c-0.047,0.188-0.105,0.387-0.176,0.598s-0.176,0.399-0.316,0.562
		c-0.141,0.165-0.293,0.316-0.457,0.457c-0.165,0.141-0.376,0.258-0.633,0.352c-0.258,0.095-0.552,0.141-0.879,0.141
		c-0.938,0-1.652-0.199-2.145-0.598c-0.492-0.397-0.785-0.809-0.879-1.23c-0.095-0.422-0.141-0.984-0.141-1.688
		c0-2.531,0.914-3.797,2.742-3.797c1.03,0,1.793,0.376,2.285,1.125C22.951,9.54,23.197,10.22,23.197,10.828z"/>
</g>
<g id="Layer_1">
</g>
</svg>
