<?xml version="1.0" encoding="iso-8859-1"?>
<!-- Generator: Adobe Illustrator 18.0.0, SVG Export Plug-In . SVG Version: 6.00 Build 0)  -->
<!DOCTYPE svg PUBLIC "-//W3C//DTD SVG 1.1//EN" "http://www.w3.org/Graphics/SVG/1.1/DTD/svg11.dtd">
<svg version="1.1" xmlns="http://www.w3.org/2000/svg" xmlns:xlink="http://www.w3.org/1999/xlink" x="0px" y="0px"
	 viewBox="0 0 28.758 28.688" style="enable-background:new 0 0 28.758 28.688;" xml:space="preserve">
<g id="ico-beats-circle">
	<path d="M4.184,4.184C6.972,1.396,10.359,0,14.344,0c3.983,0,7.383,1.396,10.195,4.184c2.812,2.79,4.219,6.177,4.219,10.16
		c0,3.985-1.406,7.372-4.219,10.16c-2.812,2.79-6.212,4.184-10.195,4.184c-3.985,0-7.372-1.394-10.16-4.184
		C1.394,21.716,0,18.329,0,14.344C0,10.36,1.394,6.973,4.184,4.184z M5.484,23.238c2.437,2.461,5.39,3.691,8.859,3.691
		c3.468,0,6.434-1.241,8.895-3.727c2.461-2.484,3.691-5.437,3.691-8.859c0-3.421-1.23-6.374-3.691-8.859
		C20.777,3,17.812,1.758,14.344,1.758c-3.422,0-6.363,1.23-8.824,3.691s-3.691,5.426-3.691,8.895
		C1.828,17.813,3.046,20.777,5.484,23.238z M9.492,6.539v0.07h3.516v4.148c1.547-0.608,3.094-0.468,4.641,0.422
		c1.312,0.75,2.155,1.853,2.531,3.305c0.375,1.454,0.187,2.837-0.562,4.148c-0.75,1.313-1.84,2.157-3.27,2.531
		c-1.431,0.376-2.802,0.188-4.113-0.562c-1.735-1.03-2.649-2.577-2.742-4.641V6.539z M14.836,13.852
		c-0.703,0-1.243,0.329-1.617,0.984l-0.211,0.422c-0.235,1.032,0.07,1.782,0.914,2.25c0.468,0.281,0.972,0.352,1.512,0.211
		c0.538-0.141,0.949-0.445,1.23-0.914c0.281-0.468,0.339-0.96,0.176-1.477c-0.165-0.515-0.481-0.914-0.949-1.195
		C15.562,13.946,15.21,13.852,14.836,13.852z"/>
</g>
<g id="Layer_1">
</g>
</svg>
