<?xml version="1.0" encoding="iso-8859-1"?>
<!-- Generator: Adobe Illustrator 18.0.0, SVG Export Plug-In . SVG Version: 6.00 Build 0)  -->
<!DOCTYPE svg PUBLIC "-//W3C//DTD SVG 1.1//EN" "http://www.w3.org/Graphics/SVG/1.1/DTD/svg11.dtd">
<svg version="1.1" xmlns="http://www.w3.org/2000/svg" xmlns:xlink="http://www.w3.org/1999/xlink" x="0px" y="0px"
	 viewBox="0 0 18.734 25.47" style="enable-background:new 0 0 18.734 25.47;" xml:space="preserve">
<g id="ico-beats">
	<path d="M0,0.07L6.047,0v7.312c2.718-0.984,5.39-0.749,8.016,0.703c2.203,1.313,3.644,3.211,4.324,5.695
		c0.679,2.485,0.362,4.829-0.949,7.031c-1.313,2.204-3.211,3.656-5.695,4.359c-2.485,0.703-4.829,0.399-7.031-0.914
		C1.663,22.407,0.093,19.758,0,16.242V0.07z M9.281,12.656c-1.313,0-2.25,0.587-2.812,1.758l-0.352,0.773
		c-0.469,1.688,0.046,2.978,1.547,3.867c0.796,0.469,1.652,0.575,2.566,0.316c0.914-0.257,1.605-0.784,2.074-1.582
		c0.468-0.796,0.573-1.652,0.316-2.566c-0.258-0.914-0.786-1.605-1.582-2.074C10.522,12.821,9.937,12.656,9.281,12.656z"/>
</g>
<g id="Layer_1">
</g>
</svg>
