<?xml version="1.0" encoding="iso-8859-1"?>
<!-- Generator: Adobe Illustrator 18.0.0, SVG Export Plug-In . SVG Version: 6.00 Build 0)  -->
<!DOCTYPE svg PUBLIC "-//W3C//DTD SVG 1.1//EN" "http://www.w3.org/Graphics/SVG/1.1/DTD/svg11.dtd">
<svg version="1.1" xmlns="http://www.w3.org/2000/svg" xmlns:xlink="http://www.w3.org/1999/xlink" x="0px" y="0px"
	 viewBox="0 0 28.758 18.211" style="enable-background:new 0 0 28.758 18.211;" xml:space="preserve">
<g id="ico-bee">
	<path d="M9.633,4.781L6.68,12.234c-0.235,0.469-0.492,0.844-0.773,1.125c-0.188,0.188-0.562,0.422-1.125,0.703
		c-0.376,0.188-0.821,0.281-1.336,0.281c-0.517,0-0.961-0.093-1.336-0.281c-0.562-0.281-0.938-0.515-1.125-0.703
		c-0.188-0.187-0.422-0.562-0.703-1.125C0.093,11.86,0,11.415,0,10.898c0-0.515,0.093-0.96,0.281-1.336
		C0.562,9,0.796,8.625,0.984,8.438C1.266,8.156,1.64,7.899,2.109,7.664L9.633,4.781z M7.734,6.68L2.531,8.719
		C2.155,8.907,1.898,9.07,1.758,9.211C1.57,9.492,1.406,9.75,1.266,9.984c-0.141,0.281-0.211,0.587-0.211,0.914
		c0,0.329,0.07,0.633,0.211,0.914c0.141,0.329,0.304,0.587,0.492,0.773c0.281,0.235,0.538,0.399,0.773,0.492
		c0.281,0.141,0.585,0.211,0.914,0.211c0.327,0,0.633-0.07,0.914-0.211c0.375-0.141,0.656-0.304,0.844-0.492
		c0.141-0.141,0.304-0.397,0.492-0.773L7.734,6.68z M9.633,8.578h9.562V9.07v1.406H9.633V9.07V8.578z M9.633,13.852v-1.406h9.562
		v1.406v0.492H9.633V13.852z M11.953,0c0.562,0,1.042,0.188,1.441,0.562c0.397,0.376,0.573,0.821,0.527,1.336
		c0,0.517-0.2,0.961-0.598,1.336c-0.399,0.376-0.856,0.562-1.371,0.562c-0.517,0-0.961-0.187-1.336-0.562
		c-0.376-0.375-0.562-0.819-0.562-1.336c0-0.515,0.187-0.96,0.562-1.336C10.992,0.188,11.437,0,11.953,0z M10.406,6.68
		c0.937-1.266,2.273-1.898,4.008-1.898c1.733,0,3.069,0.633,4.008,1.898H10.406z M14.414,18.211c-1.735,0-3.071-0.633-4.008-1.898
		h8.016C17.483,17.578,16.147,18.211,14.414,18.211z M11.953,1.055c-0.517,0-0.773,0.281-0.773,0.844s0.257,0.844,0.773,0.844
		c0.562,0,0.844-0.281,0.844-0.844S12.516,1.055,11.953,1.055z M15.469,0.562C15.843,0.188,16.288,0,16.805,0
		c0.515,0,0.96,0.188,1.336,0.562c0.375,0.376,0.562,0.821,0.562,1.336c0,0.517-0.188,0.961-0.562,1.336
		c-0.376,0.376-0.821,0.562-1.336,0.562c-0.517,0-0.961-0.187-1.336-0.562c-0.376-0.375-0.562-0.819-0.562-1.336
		C14.906,1.383,15.093,0.938,15.469,0.562z M17.648,1.898c0-0.562-0.281-0.844-0.844-0.844s-0.844,0.281-0.844,0.844
		s0.281,0.844,0.844,0.844S17.648,2.461,17.648,1.898z M19.195,4.781l7.453,2.883c0.468,0.235,0.844,0.492,1.125,0.773
		s0.538,0.657,0.773,1.125c0.141,0.281,0.211,0.728,0.211,1.336c0,0.61-0.07,1.055-0.211,1.336
		c-0.235,0.469-0.492,0.844-0.773,1.125c-0.188,0.188-0.562,0.422-1.125,0.703c-0.376,0.188-0.821,0.281-1.336,0.281
		c-0.517,0-0.961-0.093-1.336-0.281c-0.562-0.281-0.938-0.515-1.125-0.703c-0.281-0.281-0.54-0.656-0.773-1.125L19.195,4.781z
		 M21.094,6.68l2.039,5.133c0.187,0.376,0.352,0.633,0.492,0.773s0.397,0.306,0.773,0.492c0.281,0.141,0.585,0.211,0.914,0.211
		c0.327,0,0.633-0.07,0.914-0.211c0.375-0.187,0.633-0.352,0.773-0.492c0.187-0.281,0.352-0.538,0.492-0.773
		c0.141-0.281,0.211-0.585,0.211-0.914c0-0.327-0.07-0.633-0.211-0.914C27.352,9.657,27.187,9.399,27,9.211
		c-0.141-0.141-0.399-0.304-0.773-0.492L21.094,6.68z"/>
</g>
<g id="Layer_1">
</g>
</svg>
