<?xml version="1.0" encoding="iso-8859-1"?>
<!-- Generator: Adobe Illustrator 18.0.0, SVG Export Plug-In . SVG Version: 6.00 Build 0)  -->
<!DOCTYPE svg PUBLIC "-//W3C//DTD SVG 1.1//EN" "http://www.w3.org/Graphics/SVG/1.1/DTD/svg11.dtd">
<svg version="1.1" xmlns="http://www.w3.org/2000/svg" xmlns:xlink="http://www.w3.org/1999/xlink" x="0px" y="0px"
	 viewBox="0 0 25.383 25.383" style="enable-background:new 0 0 25.383 25.383;" xml:space="preserve">
<g id="ico-calculator">
	<path d="M0,0h25.383v25.383H13.57h-1.758H0V13.57v-1.688V0z M1.898,11.812v0.07h9.914V1.969H1.898V11.812z M1.898,23.484h9.914
		V13.5H1.898V23.484z M4.289,7.453V6.258h5.133v1.195H4.289z M7.453,17.93h1.969v1.195H7.453v1.969H6.258v-1.969H4.289V17.93h1.969
		v-1.969h1.195V17.93z M23.414,23.484h0.07V1.969H13.57v21.516H23.414z M15.891,11.672v-1.266h5.133v1.266H15.891z M15.891,14.836
		V13.57h5.133v1.266H15.891z"/>
</g>
<g id="Layer_1">
</g>
</svg>
