<?xml version="1.0" encoding="iso-8859-1"?>
<!-- Generator: Adobe Illustrator 18.0.0, SVG Export Plug-In . SVG Version: 6.00 Build 0)  -->
<!DOCTYPE svg PUBLIC "-//W3C//DTD SVG 1.1//EN" "http://www.w3.org/Graphics/SVG/1.1/DTD/svg11.dtd">
<svg version="1.1" xmlns="http://www.w3.org/2000/svg" xmlns:xlink="http://www.w3.org/1999/xlink" x="0px" y="0px"
	 viewBox="0 0 28.758 22.922" style="enable-background:new 0 0 28.758 22.922;" xml:space="preserve">
<g id="ico-calendar">
	<path d="M28.758,0v4.43v18.492H0V3.797V0H28.758z M26.79,21.023V5.695H1.898v15.328H26.79z M15.258,13.289
		c0.141-0.093,0.292-0.269,0.458-0.527c0.163-0.257,0.269-0.41,0.316-0.457c0.234-0.375,0.352-0.749,0.352-1.125
		c0-0.281-0.025-0.492-0.07-0.633c-0.047-0.234-0.141-0.445-0.281-0.633c-0.188-0.281-0.377-0.468-0.562-0.562
		c-0.282-0.141-0.61-0.211-0.985-0.211c-0.329,0-0.633,0.07-0.914,0.211c-0.235,0.095-0.422,0.306-0.562,0.633
		c-0.188,0.376-0.306,0.68-0.352,0.914c-0.047,0.235-0.07,0.61-0.07,1.125h-1.828c0-0.796,0.07-1.382,0.211-1.758
		c0.187-0.515,0.445-0.96,0.773-1.336c0.468-0.468,0.867-0.773,1.195-0.914c0.562-0.234,1.125-0.352,1.688-0.352
		s1.125,0.118,1.688,0.352c0.562,0.329,0.938,0.61,1.125,0.844c0.281,0.376,0.492,0.75,0.633,1.125
		c0.141,0.422,0.211,0.821,0.211,1.195c0,0.469-0.07,0.868-0.211,1.195c-0.096,0.281-0.307,0.61-0.633,0.984
		c-0.141,0.188-0.398,0.469-0.773,0.844c-0.518,0.422-0.821,0.657-0.914,0.703c-0.141,0.047-0.317,0.165-0.528,0.352
		c-0.211,0.188-0.364,0.306-0.457,0.352c-0.562,0.329-0.868,0.517-0.914,0.562c-0.188,0.141-0.422,0.352-0.703,0.633
		c-0.235,0.235-0.376,0.469-0.422,0.703h5.415v1.688h-7.594c0.093-1.078,0.304-1.898,0.633-2.461
		c0.422-0.703,1.03-1.312,1.828-1.828c0.141-0.093,0.327-0.222,0.562-0.387c0.234-0.164,0.422-0.292,0.562-0.387
		C14.414,13.946,14.789,13.665,15.258,13.289z"/>
</g>
<g id="Layer_1">
</g>
</svg>
