<?xml version="1.0" encoding="iso-8859-1"?>
<!-- Generator: Adobe Illustrator 18.0.0, SVG Export Plug-In . SVG Version: 6.00 Build 0)  -->
<!DOCTYPE svg PUBLIC "-//W3C//DTD SVG 1.1//EN" "http://www.w3.org/Graphics/SVG/1.1/DTD/svg11.dtd">
<svg version="1.1" xmlns="http://www.w3.org/2000/svg" xmlns:xlink="http://www.w3.org/1999/xlink" x="0px" y="0px"
	 viewBox="0 0 18.422 25.312" style="enable-background:new 0 0 18.422 25.312;" xml:space="preserve">
<g id="ico-check-2">
	<path d="M15.328,17.648c0.844,0,1.558,0.306,2.145,0.914c0.585,0.61,0.902,1.336,0.949,2.18v4.57H0v-4.641
		c0-0.844,0.304-1.558,0.914-2.145c0.608-0.585,1.336-0.879,2.18-0.879H15.328z M14.555,13.078c-1.501,1.501-3.305,2.25-5.414,2.25
		s-3.902-0.749-5.379-2.25c-1.477-1.5-2.239-3.305-2.285-5.414c0-2.109,0.749-3.913,2.25-5.414C5.226,0.75,7.031,0,9.141,0
		s3.913,0.75,5.414,2.25c1.5,1.501,2.25,3.305,2.25,5.414S16.054,11.579,14.555,13.078z M9.141,1.828
		c-1.594,0-2.965,0.575-4.113,1.723C3.878,4.7,3.305,6.071,3.305,7.664c0,1.594,0.573,2.965,1.723,4.113
		C6.175,12.927,7.546,13.5,9.141,13.5c1.64,0,3.034-0.573,4.184-1.723c1.148-1.148,1.723-2.519,1.723-4.113
		c0-1.593-0.575-2.964-1.723-4.113C12.175,2.403,10.781,1.828,9.141,1.828z M13.219,6.258L8.156,11.32L5.062,8.297l1.336-1.336
		l1.758,1.758l3.727-3.727L13.219,6.258z"/>
</g>
<g id="Layer_1">
</g>
</svg>
