<?xml version="1.0" encoding="iso-8859-1"?>
<!-- Generator: Adobe Illustrator 18.0.0, SVG Export Plug-In . SVG Version: 6.00 Build 0)  -->
<!DOCTYPE svg PUBLIC "-//W3C//DTD SVG 1.1//EN" "http://www.w3.org/Graphics/SVG/1.1/DTD/svg11.dtd">
<svg version="1.1" xmlns="http://www.w3.org/2000/svg" xmlns:xlink="http://www.w3.org/1999/xlink" x="0px" y="0px"
	 viewBox="0 0 28.758 28.758" style="enable-background:new 0 0 28.758 28.758;" xml:space="preserve">
<g id="ico-check">
	<path d="M4.184,4.219C6.972,1.406,10.359,0,14.344,0c3.983,0,7.383,1.406,10.195,4.219s4.219,6.212,4.219,10.195
		c0,3.985-1.406,7.372-4.219,10.16c-2.812,2.79-6.212,4.184-10.195,4.184c-3.984,0-7.372-1.394-10.16-4.184
		C1.395,21.786,0,18.399,0,14.414C0,10.431,1.395,7.031,4.184,4.219z M23.168,5.625c-2.415-2.437-5.355-3.656-8.824-3.656
		c-3.47,0-6.41,1.22-8.824,3.656c-2.415,2.438-3.621,5.368-3.621,8.789c0,3.422,1.206,6.353,3.621,8.789
		c2.414,2.438,5.354,3.656,8.824,3.656c3.469,0,6.409-1.218,8.824-3.656c2.414-2.437,3.621-5.367,3.621-8.789
		C26.789,10.993,25.582,8.063,23.168,5.625z M12.305,19.969l-4.781-4.852l1.336-1.336l3.445,3.445l7.523-7.523l1.406,1.336
		L12.305,19.969z"/>
</g>
<g id="Layer_1">
</g>
</svg>
