<?xml version="1.0" encoding="iso-8859-1"?>
<!-- Generator: Adobe Illustrator 18.0.0, SVG Export Plug-In . SVG Version: 6.00 Build 0)  -->
<!DOCTYPE svg PUBLIC "-//W3C//DTD SVG 1.1//EN" "http://www.w3.org/Graphics/SVG/1.1/DTD/svg11.dtd">
<svg version="1.1" xmlns="http://www.w3.org/2000/svg" xmlns:xlink="http://www.w3.org/1999/xlink" x="0px" y="0px"
	 viewBox="0 0 28.758 28.688" style="enable-background:new 0 0 28.758 28.688;" xml:space="preserve">
<g id="ico-circ-arrow-right">
	<path d="M4.184,4.184C6.972,1.396,10.359,0,14.344,0c3.983,0,7.383,1.396,10.195,4.184c2.812,2.79,4.219,6.177,4.219,10.16
		c0,3.985-1.406,7.372-4.219,10.16c-2.812,2.79-6.212,4.184-10.195,4.184c-3.985,0-7.372-1.394-10.16-4.184
		C1.394,21.716,0,18.329,0,14.344C0,10.36,1.394,6.973,4.184,4.184z M5.52,23.168c2.414,2.415,5.354,3.621,8.824,3.621
		c3.468,0,6.409-1.206,8.824-3.621c2.414-2.414,3.621-5.354,3.621-8.824c0-3.468-1.208-6.409-3.621-8.824
		c-2.415-2.414-5.356-3.621-8.824-3.621c-3.47,0-6.411,1.208-8.824,3.621c-2.415,2.415-3.621,5.356-3.621,8.824
		C1.898,17.813,3.104,20.754,5.52,23.168z M14.062,8.859l1.336-1.336l6.82,6.82l-6.82,6.82l-1.336-1.336l4.5-4.5H6.539v-1.969
		h12.023L14.062,8.859z"/>
</g>
<g id="Layer_1">
</g>
</svg>
