<?xml version="1.0" encoding="iso-8859-1"?>
<!-- Generator: Adobe Illustrator 18.0.0, SVG Export Plug-In . SVG Version: 6.00 Build 0)  -->
<!DOCTYPE svg PUBLIC "-//W3C//DTD SVG 1.1//EN" "http://www.w3.org/Graphics/SVG/1.1/DTD/svg11.dtd">
<svg version="1.1" xmlns="http://www.w3.org/2000/svg" xmlns:xlink="http://www.w3.org/1999/xlink" x="0px" y="0px"
	 viewBox="0 0 28.758 21.094" style="enable-background:new 0 0 28.758 21.094;" xml:space="preserve">
<g id="ico-cloud">
	<path d="M16.312,0c2.109,0,3.926,0.703,5.449,2.109c1.522,1.406,2.401,3.141,2.637,5.203c1.312,0.562,2.366,1.441,3.164,2.637
		c0.797,1.195,1.195,2.521,1.195,3.973c0,2.016-0.703,3.716-2.109,5.098c-1.406,1.383-3.094,2.074-5.062,2.074H7.172
		c-2.016,0-3.716-0.691-5.098-2.074C0.691,17.638,0,15.938,0,13.922c0-2.015,0.703-3.727,2.109-5.133S5.203,6.68,7.172,6.68
		c0.516,0,0.89,0.024,1.125,0.07c0.327-1.969,1.241-3.586,2.742-4.852C12.539,0.633,14.297,0,16.312,0z M16.312,1.898
		c-1.547,0-2.895,0.481-4.043,1.441c-1.149,0.961-1.84,2.215-2.074,3.762L9.844,9L8.016,8.648c-0.188-0.046-0.469-0.07-0.844-0.07
		c-1.454,0-2.696,0.527-3.727,1.582c-1.032,1.055-1.547,2.31-1.547,3.762c0,1.454,0.515,2.696,1.547,3.727
		c1.03,1.032,2.272,1.547,3.727,1.547h14.414c1.452,0,2.695-0.515,3.727-1.547c1.03-1.03,1.547-2.273,1.547-3.727
		c0-2.296-1.079-3.913-3.234-4.852l-0.984-0.492L22.5,7.523c-0.188-1.593-0.868-2.929-2.039-4.008
		C19.289,2.438,17.905,1.898,16.312,1.898z"/>
</g>
<g id="Layer_1">
</g>
</svg>
