<?xml version="1.0" encoding="iso-8859-1"?>
<!-- Generator: Adobe Illustrator 18.0.0, SVG Export Plug-In . SVG Version: 6.00 Build 0)  -->
<!DOCTYPE svg PUBLIC "-//W3C//DTD SVG 1.1//EN" "http://www.w3.org/Graphics/SVG/1.1/DTD/svg11.dtd">
<svg version="1.1" xmlns="http://www.w3.org/2000/svg" xmlns:xlink="http://www.w3.org/1999/xlink" x="0px" y="0px"
	 viewBox="0 0 28.777 22.852" style="enable-background:new 0 0 28.777 22.852;" xml:space="preserve">
<g id="ico-device">
	<path d="M20.058,15.82l8.719-1.617l-8.719,2.531v3.586l-8.859,2.531l-0.703-0.633v-2.742l-9.422,2.742
		c-0.376,0.095-0.68-0.023-0.914-0.352c-0.234-0.327-0.211-0.656,0.07-0.984L10.496,9.492v-9.07L11.269,0l8.789,2.672V15.82z
		 M10.496,17.508v-2.953l-1.898,2.461c-0.141,0.188-0.152,0.376-0.035,0.562c0.116,0.188,0.292,0.258,0.527,0.211L10.496,17.508z
		 M18.16,16.102V4.711l-4.5-1.125v2.672c0.516-0.422,1.125-0.726,1.828-0.914c0.375-0.093,0.844-0.187,1.406-0.281
		c0.187-0.046,0.316,0,0.387,0.141s0.059,0.281-0.035,0.422l-3.586,4.781v6.539L18.16,16.102z M18.16,18.211v-0.914l-4.5,1.266
		v0.633L18.16,18.211z"/>
</g>
<g id="Layer_1">
</g>
</svg>
