<?xml version="1.0" encoding="iso-8859-1"?>
<!-- Generator: Adobe Illustrator 18.0.0, SVG Export Plug-In . SVG Version: 6.00 Build 0)  -->
<!DOCTYPE svg PUBLIC "-//W3C//DTD SVG 1.1//EN" "http://www.w3.org/Graphics/SVG/1.1/DTD/svg11.dtd">
<svg version="1.1" xmlns="http://www.w3.org/2000/svg" xmlns:xlink="http://www.w3.org/1999/xlink" x="0px" y="0px"
	 viewBox="0 0 28.758 28.688" style="enable-background:new 0 0 28.758 28.688;" xml:space="preserve">
<g id="ico-device-circle">
	<path d="M4.184,4.184C6.972,1.396,10.359,0,14.344,0c3.983,0,7.383,1.396,10.195,4.184c2.812,2.79,4.219,6.177,4.219,10.16
		c0,3.985-1.406,7.372-4.219,10.16c-2.812,2.79-6.212,4.184-10.195,4.184c-3.984,0-7.372-1.394-10.16-4.184
		C1.395,21.716,0,18.329,0,14.344C0,10.36,1.395,6.973,4.184,4.184z M5.484,23.238c2.437,2.461,5.39,3.691,8.859,3.691
		c3.469,0,6.434-1.241,8.895-3.727c2.461-2.484,3.691-5.437,3.691-8.859c0-3.421-1.23-6.374-3.691-8.859
		C20.777,3,17.812,1.758,14.344,1.758c-3.422,0-6.363,1.23-8.824,3.691s-3.691,5.426-3.691,8.895
		C1.828,17.813,3.047,20.777,5.484,23.238z M18.352,17.367l5.555-0.984L18.281,18v2.32l-5.695,1.547l-0.422-0.352v-1.758
		l-6.117,1.758c-0.235,0.095-0.434,0.024-0.598-0.211c-0.165-0.234-0.152-0.445,0.035-0.633l6.68-7.383V7.453l0.422-0.281
		l5.766,1.688V17.367z M12.164,18.492v-1.898l-1.195,1.547c-0.095,0.095-0.105,0.223-0.035,0.387
		c0.07,0.165,0.176,0.223,0.316,0.176L12.164,18.492z M17.086,17.578v-7.383l-2.883-0.703v1.688
		c0.234-0.234,0.608-0.422,1.125-0.562l0.844-0.211c0.094-0.046,0.176-0.023,0.246,0.07c0.07,0.095,0.081,0.188,0.035,0.281
		l-2.25,3.164v4.148L17.086,17.578z M17.086,18.984v-0.703l-2.883,0.844v0.422L17.086,18.984z"/>
</g>
<g id="Layer_1">
</g>
</svg>
