<?xml version="1.0" encoding="iso-8859-1"?>
<!-- Generator: Adobe Illustrator 18.0.0, SVG Export Plug-In . SVG Version: 6.00 Build 0)  -->
<!DOCTYPE svg PUBLIC "-//W3C//DTD SVG 1.1//EN" "http://www.w3.org/Graphics/SVG/1.1/DTD/svg11.dtd">
<svg version="1.1" xmlns="http://www.w3.org/2000/svg" xmlns:xlink="http://www.w3.org/1999/xlink" x="0px" y="0px"
	 viewBox="0 0 28.758 16.875" style="enable-background:new 0 0 28.758 16.875;" xml:space="preserve">
<g id="ico-digg">
	<path d="M4.852,0.352C4.852,0.118,4.968,0,5.203,0h2.531v13.148L7.383,13.5H0V4.008l0.352-0.422h4.5V0.352z M4.852,11.039V5.766
		H3.164c-0.235,0-0.352,0.118-0.352,0.352v5.273H4.5C4.734,11.391,4.852,11.274,4.852,11.039z M8.508,0.352L8.859,0h2.531v1.758
		l-0.352,0.352H8.508V0.352z M8.508,4.008l0.352-0.352h2.531v9.492L11.039,13.5H8.508V4.008z M12.375,4.008l0.352-0.352h7.383
		v12.867l-0.352,0.352h-7.383v-1.758l0.352-0.352h4.5V13.5h-4.852V4.008z M15.188,6.117v5.203h1.688
		c0.234,0,0.352-0.116,0.352-0.352V5.766h-1.758C15.281,5.766,15.188,5.883,15.188,6.117z M21.375,3.656h7.383v12.867l-0.352,0.352
		h-7.383v-1.758l0.352-0.352h4.5V13.5h-4.852V4.008L21.375,3.656z M25.875,11.039V5.766h-1.688c-0.235,0-0.352,0.118-0.352,0.352
		v5.273h1.758C25.78,11.391,25.875,11.274,25.875,11.039z"/>
</g>
<g id="Layer_1">
</g>
</svg>
