<?xml version="1.0" encoding="iso-8859-1"?>
<!-- Generator: Adobe Illustrator 18.0.0, SVG Export Plug-In . SVG Version: 6.00 Build 0)  -->
<!DOCTYPE svg PUBLIC "-//W3C//DTD SVG 1.1//EN" "http://www.w3.org/Graphics/SVG/1.1/DTD/svg11.dtd">
<svg version="1.1" xmlns="http://www.w3.org/2000/svg" xmlns:xlink="http://www.w3.org/1999/xlink" x="0px" y="0px"
	 viewBox="0 0 28.758 28.688" style="enable-background:new 0 0 28.758 28.688;" xml:space="preserve">
<g id="ico-digg-circle">
	<path d="M4.184,4.184C6.972,1.396,10.359,0,14.344,0c3.983,0,7.383,1.396,10.195,4.184c2.812,2.79,4.219,6.177,4.219,10.16
		c0,3.985-1.406,7.372-4.219,10.16c-2.812,2.79-6.212,4.184-10.195,4.184c-3.985,0-7.372-1.394-10.16-4.184
		C1.394,21.716,0,18.329,0,14.344C0,10.36,1.394,6.973,4.184,4.184z M5.484,23.238c2.437,2.461,5.39,3.691,8.859,3.691
		c3.468,0,6.434-1.241,8.895-3.727c2.461-2.484,3.691-5.437,3.691-8.859c0-3.421-1.23-6.374-3.691-8.859
		C20.777,3,17.812,1.758,14.344,1.758c-3.422,0-6.363,1.23-8.824,3.691s-3.691,5.426-3.691,8.895
		C1.828,17.813,3.046,20.777,5.484,23.238z M8.297,9.562l0.141-0.211h1.547v7.805l-0.211,0.211H5.414v-5.625l0.211-0.211h2.672
		V9.562z M8.297,15.891v-3.094H7.242c-0.095,0-0.141,0.07-0.141,0.211v3.094h0.984C8.227,16.102,8.297,16.031,8.297,15.891z
		 M10.477,9.562c0-0.046,0.046-0.116,0.141-0.211h1.547v1.055l-0.211,0.211h-1.477V9.562z M10.477,11.742l0.211-0.211h1.477v5.625
		l-0.211,0.211h-1.477V11.742z M12.727,11.742l0.211-0.211h4.359v7.594l-0.211,0.211h-4.359v-1.055l0.211-0.211h2.672v-0.703h-2.883
		V11.742z M14.414,13.008v3.094h0.984c0.141,0,0.211-0.07,0.211-0.211v-3.094h-1.055C14.46,12.797,14.414,12.867,14.414,13.008z
		 M18.07,11.531h4.289v7.594l-0.141,0.211h-4.359v-1.055l0.211-0.211h2.602v-0.703h-2.812v-5.625L18.07,11.531z M20.742,15.891
		v-3.094h-0.984c-0.141,0-0.211,0.07-0.211,0.211v3.094h0.984C20.672,16.102,20.742,16.031,20.742,15.891z"/>
</g>
<g id="Layer_1">
</g>
</svg>
