<?xml version="1.0" encoding="iso-8859-1"?>
<!-- Generator: Adobe Illustrator 18.0.0, SVG Export Plug-In . SVG Version: 6.00 Build 0)  -->
<!DOCTYPE svg PUBLIC "-//W3C//DTD SVG 1.1//EN" "http://www.w3.org/Graphics/SVG/1.1/DTD/svg11.dtd">
<svg version="1.1" xmlns="http://www.w3.org/2000/svg" xmlns:xlink="http://www.w3.org/1999/xlink" x="0px" y="0px"
	 viewBox="0 0 28.758 28.688" style="enable-background:new 0 0 28.758 28.688;" xml:space="preserve">
<g id="ico-double-dots-circle">
	<path d="M4.184,4.184C6.972,1.396,10.359,0,14.344,0c3.983,0,7.383,1.396,10.195,4.184c2.812,2.79,4.219,6.177,4.219,10.16
		c0,3.985-1.406,7.372-4.219,10.16c-2.812,2.79-6.212,4.184-10.195,4.184c-3.985,0-7.372-1.394-10.16-4.184
		C1.394,21.716,0,18.329,0,14.344C0,10.36,1.394,6.973,4.184,4.184z M5.484,23.238c2.437,2.461,5.39,3.691,8.859,3.691
		c3.468,0,6.434-1.241,8.895-3.727c2.461-2.484,3.691-5.437,3.691-8.859c0-3.421-1.23-6.374-3.691-8.859
		C20.777,3,17.812,1.758,14.344,1.758c-3.422,0-6.363,1.23-8.824,3.691s-3.691,5.426-3.691,8.895
		C1.828,17.813,3.046,20.777,5.484,23.238z M7.91,16.418c-0.633-0.633-0.949-1.394-0.949-2.285c0-0.89,0.316-1.652,0.949-2.285
		s1.394-0.949,2.285-0.949c0.89,0,1.652,0.316,2.285,0.949s0.949,1.396,0.949,2.285c0,0.891-0.316,1.652-0.949,2.285
		s-1.396,0.949-2.285,0.949C9.304,17.367,8.543,17.051,7.91,16.418z M15.855,16.418c-0.633-0.633-0.949-1.394-0.949-2.285
		c0-0.89,0.316-1.652,0.949-2.285s1.394-0.949,2.285-0.949c0.89,0,1.652,0.316,2.285,0.949s0.949,1.396,0.949,2.285
		c0,0.891-0.316,1.652-0.949,2.285s-1.396,0.949-2.285,0.949C17.25,17.367,16.488,17.051,15.855,16.418z"/>
</g>
<g id="Layer_1">
</g>
</svg>
