<?xml version="1.0" encoding="iso-8859-1"?>
<!-- Generator: Adobe Illustrator 18.0.0, SVG Export Plug-In . SVG Version: 6.00 Build 0)  -->
<!DOCTYPE svg PUBLIC "-//W3C//DTD SVG 1.1//EN" "http://www.w3.org/Graphics/SVG/1.1/DTD/svg11.dtd">
<svg version="1.1" xmlns="http://www.w3.org/2000/svg" xmlns:xlink="http://www.w3.org/1999/xlink" x="0px" y="0px"
	 viewBox="0 0 28.758 12.938" style="enable-background:new 0 0 28.758 12.938;" xml:space="preserve">
<g id="ico-double-dots">
	<path d="M1.898,11.039C0.633,9.773,0,8.251,0,6.469c0-1.781,0.633-3.305,1.898-4.57S4.687,0,6.469,0
		c1.781,0,3.292,0.633,4.535,1.898c1.241,1.266,1.863,2.79,1.863,4.57c0,1.782-0.622,3.305-1.863,4.57
		c-1.243,1.266-2.754,1.898-4.535,1.898C4.687,12.938,3.164,12.305,1.898,11.039z M17.719,11.039
		c-1.266-1.266-1.898-2.788-1.898-4.57c0-1.781,0.633-3.305,1.898-4.57S20.507,0,22.289,0c1.781,0,3.305,0.633,4.57,1.898
		s1.898,2.79,1.898,4.57c0,1.782-0.633,3.305-1.898,4.57s-2.79,1.898-4.57,1.898C20.507,12.938,18.984,12.305,17.719,11.039z"/>
</g>
<g id="Layer_1">
</g>
</svg>
