<?xml version="1.0" encoding="iso-8859-1"?>
<!-- Generator: Adobe Illustrator 18.0.0, SVG Export Plug-In . SVG Version: 6.00 Build 0)  -->
<!DOCTYPE svg PUBLIC "-//W3C//DTD SVG 1.1//EN" "http://www.w3.org/Graphics/SVG/1.1/DTD/svg11.dtd">
<svg version="1.1" xmlns="http://www.w3.org/2000/svg" xmlns:xlink="http://www.w3.org/1999/xlink" x="0px" y="0px"
	 viewBox="0 0 28.758 28.758" style="enable-background:new 0 0 28.758 28.758;" xml:space="preserve">
<g id="ico-double-arrow-circle-right">
	<path d="M4.184,4.219C6.972,1.406,10.359,0,14.344,0c3.983,0,7.383,1.406,10.195,4.219s4.219,6.212,4.219,10.195
		c0,3.985-1.406,7.372-4.219,10.16s-6.212,4.184-10.195,4.184c-3.985,0-7.372-1.396-10.16-4.184C1.394,21.786,0,18.399,0,14.414
		C0,10.431,1.394,7.031,4.184,4.219z M5.484,23.273c2.437,2.438,5.39,3.656,8.859,3.656c3.468,0,6.434-1.23,8.895-3.691
		s3.691-5.402,3.691-8.824c0-3.468-1.23-6.434-3.691-8.895s-5.426-3.691-8.895-3.691c-3.422,0-6.363,1.23-8.824,3.691
		s-3.691,5.426-3.691,8.895C1.828,17.884,3.046,20.837,5.484,23.273z M7.383,7.945L8.648,6.68l7.734,7.734l-7.734,7.664
		l-1.266-1.266l6.469-6.398L7.383,7.945z M13.852,7.945l1.266-1.266l7.664,7.734l-7.664,7.664l-1.266-1.266l6.398-6.398
		L13.852,7.945z"/>
</g>
<g id="Layer_1">
</g>
</svg>
