<?xml version="1.0" encoding="iso-8859-1"?>
<!-- Generator: Adobe Illustrator 18.0.0, SVG Export Plug-In . SVG Version: 6.00 Build 0)  -->
<!DOCTYPE svg PUBLIC "-//W3C//DTD SVG 1.1//EN" "http://www.w3.org/Graphics/SVG/1.1/DTD/svg11.dtd">
<svg version="1.1" xmlns="http://www.w3.org/2000/svg" xmlns:xlink="http://www.w3.org/1999/xlink" x="0px" y="0px"
	 viewBox="0 0 28.758 28.758" style="enable-background:new 0 0 28.758 28.758;" xml:space="preserve">
<g id="ico-double-arrow-circle-left">
	<path d="M24.539,24.574c-2.812,2.788-6.212,4.184-10.195,4.184c-3.984,0-7.372-1.396-10.16-4.184C1.395,21.786,0,18.399,0,14.414
		c0-3.983,1.395-7.383,4.184-10.195C6.972,1.406,10.359,0,14.344,0c3.983,0,7.383,1.406,10.195,4.219s4.219,6.212,4.219,10.195
		C28.758,18.399,27.352,21.786,24.539,24.574z M14.344,1.828c-3.422,0-6.363,1.23-8.824,3.691s-3.691,5.426-3.691,8.895
		c0,3.47,1.219,6.423,3.656,8.859c2.437,2.438,5.39,3.656,8.859,3.656c3.469,0,6.434-1.23,8.895-3.691s3.691-5.402,3.691-8.824
		c0-3.468-1.23-6.434-3.691-8.895S17.812,1.828,14.344,1.828z M14.906,20.812l-1.266,1.266l-7.734-7.664l7.734-7.734l1.266,1.266
		l-6.469,6.469L14.906,20.812z M21.375,20.812l-1.336,1.266l-7.664-7.664l7.664-7.734l1.336,1.266l-6.469,6.469L21.375,20.812z"/>
</g>
<g id="Layer_1">
</g>
</svg>
