<?xml version="1.0" encoding="iso-8859-1"?>
<!-- Generator: Adobe Illustrator 18.0.0, SVG Export Plug-In . SVG Version: 6.00 Build 0)  -->
<!DOCTYPE svg PUBLIC "-//W3C//DTD SVG 1.1//EN" "http://www.w3.org/Graphics/SVG/1.1/DTD/svg11.dtd">
<svg version="1.1" xmlns="http://www.w3.org/2000/svg" xmlns:xlink="http://www.w3.org/1999/xlink" x="0px" y="0px"
	 viewBox="0 0 26.156 26.016" style="enable-background:new 0 0 26.156 26.016;" xml:space="preserve">
<g id="ico-edit">
	<path d="M25.594,2.531c0.749,0.75,0.749,1.501,0,2.25L5.977,24.328L0,26.016l1.758-5.977L21.234,0.422
		C21.516,0.141,21.89,0,22.359,0c0.515,0,0.914,0.141,1.195,0.422L25.594,2.531z M5.062,22.781l12.375-12.305L15.68,8.648
		L3.305,21.023l-0.703,2.461L5.062,22.781z M18.633,9.211l1.969-1.898l-1.828-1.828l-1.898,1.969L18.633,9.211z M21.867,5.977
		l2.391-2.32L22.43,1.828l-2.32,2.391L21.867,5.977z"/>
</g>
<g id="Layer_1">
</g>
</svg>
