<?xml version="1.0" encoding="iso-8859-1"?>
<!-- Generator: Adobe Illustrator 18.0.0, SVG Export Plug-In . SVG Version: 6.00 Build 0)  -->
<!DOCTYPE svg PUBLIC "-//W3C//DTD SVG 1.1//EN" "http://www.w3.org/Graphics/SVG/1.1/DTD/svg11.dtd">
<svg version="1.1" xmlns="http://www.w3.org/2000/svg" xmlns:xlink="http://www.w3.org/1999/xlink" x="0px" y="0px"
	 viewBox="0 0 25.383 25.453" style="enable-background:new 0 0 25.383 25.453;" xml:space="preserve">
<g id="ico-exclamation">
	<path d="M17.93,0l7.453,7.453V18l-7.453,7.453H7.453L0,18V7.453L7.453,0H17.93z M23.484,17.227v-8.93l-6.258-6.328h-9L1.898,8.297
		v8.93l6.328,6.328h8.93L23.484,17.227z M11.461,9V6.539h2.531V9l-0.703,6.258h-1.195L11.461,9z M11.848,18.633
		c-0.258-0.234-0.387-0.538-0.387-0.914c0-0.375,0.128-0.679,0.387-0.914c0.257-0.234,0.55-0.352,0.879-0.352
		c0.327,0,0.621,0.118,0.879,0.352c0.257,0.235,0.387,0.54,0.387,0.914c0,0.376-0.13,0.68-0.387,0.914
		c-0.258,0.235-0.552,0.352-0.879,0.352C12.398,18.984,12.104,18.868,11.848,18.633z"/>
</g>
<g id="Layer_1">
</g>
</svg>
