<?xml version="1.0" encoding="iso-8859-1"?>
<!-- Generator: Adobe Illustrator 18.0.0, SVG Export Plug-In . SVG Version: 6.00 Build 0)  -->
<!DOCTYPE svg PUBLIC "-//W3C//DTD SVG 1.1//EN" "http://www.w3.org/Graphics/SVG/1.1/DTD/svg11.dtd">
<svg version="1.1" xmlns="http://www.w3.org/2000/svg" xmlns:xlink="http://www.w3.org/1999/xlink" x="0px" y="0px"
	 viewBox="0 0 28.758 16.664" style="enable-background:new 0 0 28.758 16.664;" xml:space="preserve">
<g id="ico-forward">
	<path d="M3.445,12.27c1.078,1.102,2.391,1.652,3.938,1.652s2.883-0.562,4.008-1.688h2.25c-1.406,2.297-3.492,3.445-6.258,3.445
		c-2.016,0-3.751-0.714-5.203-2.145C0.727,12.106,0,10.36,0,8.297c0-2.062,0.727-3.808,2.18-5.238
		c1.452-1.429,3.188-2.12,5.203-2.074c2.812,0,4.922,1.195,6.328,3.586h-2.25c-1.079-1.218-2.438-1.828-4.078-1.828
		c-1.547,0-2.859,0.54-3.938,1.617C2.366,5.438,1.828,6.75,1.828,8.297S2.366,11.169,3.445,12.27z M20.391,0l8.367,8.297
		l-8.367,8.367l-1.266-1.266l6.188-6.188H7.383V7.453h17.93l-6.188-6.258L20.391,0z"/>
</g>
<g id="Layer_1">
</g>
</svg>
