<?xml version="1.0" encoding="iso-8859-1"?>
<!-- Generator: Adobe Illustrator 18.0.0, SVG Export Plug-In . SVG Version: 6.00 Build 0)  -->
<!DOCTYPE svg PUBLIC "-//W3C//DTD SVG 1.1//EN" "http://www.w3.org/Graphics/SVG/1.1/DTD/svg11.dtd">
<svg version="1.1" xmlns="http://www.w3.org/2000/svg" xmlns:xlink="http://www.w3.org/1999/xlink" x="0px" y="0px"
	 viewBox="0 0 10.055 25.383" style="enable-background:new 0 0 10.055 25.383;" xml:space="preserve">
<g id="ico-fountain-pen">
	<path d="M7.031,4.43c0.375,0.798,0.819,1.617,1.336,2.461c0.516,0.844,0.914,1.501,1.195,1.969l0.492,0.703L9,24.258
		c-0.657,0.75-1.969,1.125-3.938,1.125c-0.891,0-1.664-0.093-2.32-0.281c-0.657-0.187-1.102-0.375-1.336-0.562l-0.352-0.281L0,9.562
		C1.125,7.97,2.133,6.258,3.023,4.43C3.727,2.978,4.289,1.501,4.711,0v12.516c-0.562,0.141-0.844,0.492-0.844,1.055
		c0,0.75,0.375,1.125,1.125,1.125c0.327,0,0.608-0.105,0.844-0.316c0.234-0.211,0.352-0.48,0.352-0.809
		c0-0.468-0.258-0.819-0.773-1.055V0C5.93,1.735,6.469,3.211,7.031,4.43z"/>
</g>
<g id="Layer_1">
</g>
</svg>
