<?xml version="1.0" encoding="iso-8859-1"?>
<!-- Generator: Adobe Illustrator 18.0.0, SVG Export Plug-In . SVG Version: 6.00 Build 0)  -->
<!DOCTYPE svg PUBLIC "-//W3C//DTD SVG 1.1//EN" "http://www.w3.org/Graphics/SVG/1.1/DTD/svg11.dtd">
<svg version="1.1" xmlns="http://www.w3.org/2000/svg" xmlns:xlink="http://www.w3.org/1999/xlink" x="0px" y="0px"
	 viewBox="0 0 28.758 28.688" style="enable-background:new 0 0 28.758 28.688;" xml:space="preserve">
<g id="ico-fountain-pen-circle">
	<path d="M4.184,4.184C6.972,1.396,10.359,0,14.344,0c3.983,0,7.383,1.396,10.195,4.184c2.812,2.79,4.219,6.177,4.219,10.16
		c0,3.985-1.406,7.372-4.219,10.16c-2.812,2.79-6.212,4.184-10.195,4.184c-3.984,0-7.372-1.394-10.16-4.184
		C1.395,21.716,0,18.329,0,14.344C0,10.36,1.395,6.973,4.184,4.184z M5.484,23.238c2.437,2.461,5.39,3.691,8.859,3.691
		c3.469,0,6.434-1.241,8.895-3.727c2.461-2.484,3.691-5.437,3.691-8.859c0-3.421-1.23-6.374-3.691-8.859
		C20.777,3,17.812,1.758,14.344,1.758c-3.422,0-6.363,1.23-8.824,3.691s-3.691,5.426-3.691,8.895
		C1.828,17.813,3.047,20.777,5.484,23.238z M16.031,7.242c0.234,0.422,0.468,0.868,0.703,1.336c0.234,0.469,0.457,0.868,0.668,1.195
		c0.211,0.329,0.41,0.633,0.598,0.914c0.187,0.281,0.327,0.492,0.422,0.633l0.141,0.211l-0.914,12.305
		c-0.609,0.657-1.734,0.984-3.375,0.984c-0.75,0-1.396-0.081-1.934-0.246c-0.539-0.164-0.903-0.316-1.09-0.457l-0.281-0.281
		l-0.914-12.305c0.938-1.359,1.781-2.812,2.531-4.359c0.608-1.078,1.078-2.296,1.406-3.656v10.477
		c-0.469,0.141-0.703,0.446-0.703,0.914c0,0.657,0.327,0.984,0.984,0.984c0.656,0,0.984-0.327,0.984-0.984
		c0-0.422-0.211-0.726-0.633-0.914V3.516C14.906,4.595,15.374,5.836,16.031,7.242z"/>
</g>
<g id="Layer_1">
</g>
</svg>
