<?xml version="1.0" encoding="iso-8859-1"?>
<!-- Generator: Adobe Illustrator 18.0.0, SVG Export Plug-In . SVG Version: 6.00 Build 0)  -->
<!DOCTYPE svg PUBLIC "-//W3C//DTD SVG 1.1//EN" "http://www.w3.org/Graphics/SVG/1.1/DTD/svg11.dtd">
<svg version="1.1" xmlns="http://www.w3.org/2000/svg" xmlns:xlink="http://www.w3.org/1999/xlink" x="0px" y="0px"
	 viewBox="0 0 22.465 26.367" style="enable-background:new 0 0 22.465 26.367;" xml:space="preserve">
<g id="Layer_21">
	<path d="M18.633,0c2.577,2.578,3.855,5.672,3.832,9.281c-0.024,3.61-1.325,6.704-3.902,9.281c-2.579,2.578-5.672,3.867-9.281,3.867
		c-3.61,0-6.704-1.289-9.281-3.867l1.336-1.336c2.203,2.156,4.852,3.234,7.945,3.234s5.741-1.078,7.945-3.234
		c2.203-2.155,3.305-4.805,3.305-7.945c0-3.14-1.102-5.789-3.305-7.945L18.633,0z M15.539,15.539
		c-1.735,1.734-3.821,2.602-6.258,2.602c-2.438,0-4.524-0.867-6.258-2.602c-1.735-1.733-2.602-3.808-2.602-6.223
		c0-2.414,0.867-4.488,2.602-6.223c1.733-1.733,3.82-2.602,6.258-2.602c2.437,0,4.523,0.868,6.258,2.602
		c1.733,1.734,2.602,3.809,2.602,6.223C18.141,11.731,17.272,13.806,15.539,15.539z M3.445,4.219
		c-1.36,1.547-1.993,3.34-1.898,5.379c0.093,2.039,0.867,3.786,2.32,5.238c1.406,1.501,3.234,2.25,5.484,2.25
		c1.874,0,3.562-0.633,5.062-1.898L3.445,4.219z M14.766,3.797c-1.406-1.5-3.234-2.25-5.484-2.25c-1.875,0-3.563,0.633-5.062,1.898
		l10.898,10.898c1.359-1.5,2.004-3.27,1.934-5.309S16.218,5.25,14.766,3.797z M4.711,26.367v-1.898h9.141v1.898H4.711z"/>
</g>
<g id="Layer_1">
</g>
</svg>
