<?xml version="1.0" encoding="iso-8859-1"?>
<!-- Generator: Adobe Illustrator 18.0.0, SVG Export Plug-In . SVG Version: 6.00 Build 0)  -->
<!DOCTYPE svg PUBLIC "-//W3C//DTD SVG 1.1//EN" "http://www.w3.org/Graphics/SVG/1.1/DTD/svg11.dtd">
<svg version="1.1" xmlns="http://www.w3.org/2000/svg" xmlns:xlink="http://www.w3.org/1999/xlink" x="0px" y="0px"
	 viewBox="0 0 25.172 25.312" style="enable-background:new 0 0 25.172 25.312;" xml:space="preserve">
<g id="ico-google-plus">
	<path d="M12.094,1.125c0.141,0.095,0.375,0.306,0.703,0.633c0.327,0.329,0.562,0.633,0.703,0.914
		c0.187,0.376,0.397,0.798,0.633,1.266c0.141,0.469,0.211,1.032,0.211,1.688c-0.095,1.313-0.352,2.274-0.773,2.883
		C13.476,8.603,13.335,8.766,13.148,9c-0.188,0.235-0.329,0.399-0.422,0.492c-0.469,0.376-0.798,0.657-0.984,0.844
		c-0.188,0.188-0.352,0.422-0.492,0.703c-0.188,0.235-0.281,0.54-0.281,0.914c0,0.422,0.093,0.728,0.281,0.914
		c0.093,0.047,0.187,0.13,0.281,0.246c0.093,0.118,0.164,0.223,0.211,0.316l1.125,0.914c0.749,0.61,1.359,1.243,1.828,1.898
		c0.422,0.61,0.679,1.547,0.773,2.812c0,1.642-0.703,3.071-2.109,4.289c-1.454,1.22-3.586,1.875-6.398,1.969
		c-2.391-0.093-4.125-0.608-5.203-1.547C0.585,22.829,0,21.751,0,20.531c0-0.656,0.187-1.336,0.562-2.039
		c0.327-0.703,0.984-1.359,1.969-1.969c0.937-0.562,2.062-0.96,3.375-1.195c1.312-0.234,2.296-0.352,2.953-0.352
		c-0.095-0.141-0.306-0.468-0.633-0.984c-0.235-0.375-0.352-0.796-0.352-1.266c0-0.187,0.046-0.422,0.141-0.703
		c0-0.093,0.023-0.199,0.07-0.316c0.046-0.116,0.093-0.199,0.141-0.246c-0.281,0.047-0.657,0.07-1.125,0.07
		c-1.735-0.093-3.071-0.656-4.008-1.688C2.109,8.859,1.617,7.688,1.617,6.328c0-1.64,0.679-3.14,2.039-4.5
		c0.89-0.749,1.874-1.241,2.953-1.477C7.687,0.118,8.624,0,9.422,0h6.75l-2.039,1.195h-2.039V1.125z M13.359,20.32
		c0-0.796-0.281-1.522-0.844-2.18c-0.517-0.562-1.431-1.312-2.742-2.25H9.07c-0.095-0.046-0.54-0.023-1.336,0.07l-2.109,0.422
		c-0.047,0-0.141,0.047-0.281,0.141c-0.141,0.095-0.281,0.165-0.422,0.211c-0.376,0.141-0.703,0.329-0.984,0.562
		c-0.281,0.235-0.54,0.587-0.773,1.055c-0.235,0.376-0.352,0.868-0.352,1.477c0,1.172,0.515,2.134,1.547,2.883
		c0.937,0.75,2.32,1.125,4.148,1.125c1.733-0.093,2.953-0.422,3.656-0.984C12.96,22.243,13.359,21.399,13.359,20.32z M8.719,10.547
		c0.937-0.093,1.663-0.397,2.18-0.914c0.281-0.468,0.468-0.914,0.562-1.336c0.046-0.281,0.07-0.656,0.07-1.125
		c0-1.359-0.329-2.672-0.984-3.938c-0.376-0.703-0.798-1.218-1.266-1.547C8.812,1.36,8.202,1.149,7.453,1.055
		C6.562,1.102,5.812,1.477,5.203,2.18C4.641,3.071,4.382,3.892,4.43,4.641c0,1.22,0.352,2.461,1.055,3.727
		c0.327,0.61,0.773,1.125,1.336,1.547S8.016,10.547,8.719,10.547z M25.172,10.969v1.688h-3.445v3.516h-1.688v-3.516h-3.516v-1.688
		h3.516V7.453h1.688v3.516H25.172z"/>
</g>
<g id="Layer_1">
</g>
</svg>
