<?xml version="1.0" encoding="iso-8859-1"?>
<!-- Generator: Adobe Illustrator 18.0.0, SVG Export Plug-In . SVG Version: 6.00 Build 0)  -->
<!DOCTYPE svg PUBLIC "-//W3C//DTD SVG 1.1//EN" "http://www.w3.org/Graphics/SVG/1.1/DTD/svg11.dtd">
<svg version="1.1" xmlns="http://www.w3.org/2000/svg" xmlns:xlink="http://www.w3.org/1999/xlink" x="0px" y="0px"
	 viewBox="0 0 28.758 28.688" style="enable-background:new 0 0 28.758 28.688;" xml:space="preserve">
<g id="ico-google-plus-circle">
	<path d="M4.184,4.184C6.972,1.396,10.359,0,14.344,0c3.983,0,7.383,1.396,10.195,4.184c2.812,2.79,4.219,6.177,4.219,10.16
		c0,3.985-1.406,7.372-4.219,10.16c-2.812,2.79-6.212,4.184-10.195,4.184c-3.984,0-7.372-1.394-10.16-4.184
		C1.395,21.716,0,18.329,0,14.344C0,10.36,1.395,6.973,4.184,4.184z M5.484,23.238c2.437,2.461,5.39,3.691,8.859,3.691
		c3.469,0,6.434-1.241,8.895-3.727c2.461-2.484,3.691-5.437,3.691-8.859c0-3.421-1.23-6.374-3.691-8.859
		C20.777,3,17.812,1.758,14.344,1.758c-3.422,0-6.363,1.23-8.824,3.691s-3.691,5.426-3.691,8.895
		C1.828,17.813,3.047,20.777,5.484,23.238z M14.836,7.945c0.094,0.047,0.234,0.165,0.422,0.352c0.187,0.188,0.327,0.352,0.422,0.492
		C15.726,8.836,15.761,8.907,15.785,9c0.023,0.095,0.059,0.188,0.105,0.281c0.046,0.095,0.094,0.188,0.141,0.281
		c0.094,0.376,0.141,0.68,0.141,0.914c0,0.657-0.165,1.22-0.492,1.688c-0.235,0.329-0.376,0.517-0.422,0.562
		c-0.047,0.095-0.141,0.188-0.281,0.281c-0.141,0.095-0.258,0.165-0.352,0.211c-0.047,0.047-0.095,0.105-0.141,0.176
		c-0.047,0.07-0.095,0.13-0.141,0.176c-0.141,0.141-0.211,0.329-0.211,0.562c0,0.188,0.07,0.352,0.211,0.492
		c0.046,0.047,0.094,0.105,0.141,0.176c0.046,0.07,0.094,0.13,0.141,0.176l0.633,0.562c0.375,0.329,0.727,0.68,1.055,1.055
		c0.327,0.517,0.492,1.032,0.492,1.547c0,0.984-0.422,1.828-1.266,2.531c-0.75,0.657-1.969,1.032-3.656,1.125
		c-1.36,0-2.367-0.281-3.023-0.844c-0.657-0.515-0.984-1.148-0.984-1.898c0-0.327,0.116-0.726,0.352-1.195
		c0.187-0.422,0.562-0.796,1.125-1.125c0.562-0.327,1.219-0.562,1.969-0.703c0.281-0.046,0.608-0.093,0.984-0.141
		c0.375-0.046,0.608-0.07,0.703-0.07c-0.047-0.046-0.105-0.128-0.176-0.246c-0.07-0.116-0.13-0.222-0.176-0.316
		c-0.141-0.187-0.211-0.422-0.211-0.703c0-0.187,0.023-0.327,0.07-0.422c0-0.046,0.023-0.105,0.07-0.176
		c0.046-0.07,0.07-0.128,0.07-0.176h-0.633c-0.984,0-1.758-0.304-2.32-0.914c-0.562-0.562-0.844-1.266-0.844-2.109
		c0-0.89,0.397-1.733,1.195-2.531c0.562-0.422,1.125-0.703,1.688-0.844s1.101-0.211,1.617-0.211h3.797l-1.195,0.703h-1.125V7.945z
		 M14.836,20.461c0.468-0.422,0.703-0.914,0.703-1.477S15.398,18,15.117,17.719s-0.82-0.703-1.617-1.266h-0.422h-0.141
		c-0.095,0-0.188,0-0.281,0c-0.095,0-0.211,0-0.352,0c-0.469,0.095-0.868,0.188-1.195,0.281l-0.422,0.211
		c-0.188,0.095-0.376,0.211-0.562,0.352c-0.047,0.047-0.188,0.235-0.422,0.562c-0.141,0.281-0.211,0.587-0.211,0.914
		c0,0.657,0.305,1.195,0.914,1.617c0.516,0.376,1.312,0.61,2.391,0.703C13.687,21.094,14.367,20.883,14.836,20.461z M12.867,13.359
		c0.608-0.093,1.03-0.257,1.266-0.492c0.141-0.187,0.257-0.445,0.352-0.773v-0.633c0-0.844-0.188-1.617-0.562-2.32
		c-0.235-0.375-0.469-0.656-0.703-0.844c-0.188-0.141-0.539-0.257-1.055-0.352c-0.517,0-0.938,0.188-1.266,0.562
		c-0.328,0.469-0.492,0.961-0.492,1.477c0,0.61,0.211,1.313,0.633,2.109c0.234,0.376,0.492,0.68,0.773,0.914
		C12.188,13.243,12.539,13.359,12.867,13.359z M22.359,13.57v0.984h-1.969v2.039h-0.984v-2.039h-2.039V13.57h2.039v-1.969h0.984
		v1.969H22.359z"/>
</g>
<g id="Layer_1">
</g>
</svg>
