<?xml version="1.0" encoding="iso-8859-1"?>
<!-- Generator: Adobe Illustrator 18.0.0, SVG Export Plug-In . SVG Version: 6.00 Build 0)  -->
<!DOCTYPE svg PUBLIC "-//W3C//DTD SVG 1.1//EN" "http://www.w3.org/Graphics/SVG/1.1/DTD/svg11.dtd">
<svg version="1.1" xmlns="http://www.w3.org/2000/svg" xmlns:xlink="http://www.w3.org/1999/xlink" x="0px" y="0px"
	 viewBox="0 0 28.898 26.578" style="enable-background:new 0 0 28.898 26.578;" xml:space="preserve">
<g id="ico-heart">
	<path d="M21.094,0c2.155,0,3.983,0.75,5.484,2.25c1.5,1.501,2.273,3.329,2.32,5.484c0,2.109-0.75,3.962-2.25,5.555L14.414,26.578
		C8.413,19.875,4.359,15.446,2.25,13.289C0.749,11.79,0,9.938,0,7.734C0,5.579,0.749,3.751,2.25,2.25C3.75,0.75,5.578,0,7.734,0
		c2.953,0,5.179,1.266,6.68,3.797C15.914,1.266,18.141,0,21.094,0z M21.094,1.898c-2.25,0-3.962,0.938-5.133,2.812l-1.617,2.742
		l-1.617-2.742c-1.125-1.874-2.79-2.812-4.992-2.812c-1.594,0-2.965,0.562-4.113,1.688C2.472,4.711,1.898,6.094,1.898,7.734
		c0,1.594,0.562,3,1.688,4.219c1.969,2.063,5.578,5.977,10.828,11.742c5.859-6.469,9.445-10.382,10.758-11.742
		c1.125-1.218,1.688-2.625,1.688-4.219c0-1.64-0.562-3.023-1.688-4.148S22.687,1.898,21.094,1.898z"/>
</g>
<g id="Layer_1">
</g>
</svg>
