<?xml version="1.0" encoding="iso-8859-1"?>
<!-- Generator: Adobe Illustrator 18.0.0, SVG Export Plug-In . SVG Version: 6.00 Build 0)  -->
<!DOCTYPE svg PUBLIC "-//W3C//DTD SVG 1.1//EN" "http://www.w3.org/Graphics/SVG/1.1/DTD/svg11.dtd">
<svg version="1.1" xmlns="http://www.w3.org/2000/svg" xmlns:xlink="http://www.w3.org/1999/xlink" x="0px" y="0px"
	 viewBox="0 0 28.688 20.461" style="enable-background:new 0 0 28.688 20.461;" xml:space="preserve">
<g id="ico-horn">
	<path d="M4.641,6.961L28.688,0v20.461L13.43,16.102c-0.095,0.657-0.398,1.195-0.914,1.617c-0.517,0.422-1.102,0.633-1.758,0.633
		H7.172c-0.75,0-1.396-0.269-1.934-0.809C4.699,17.005,4.43,16.36,4.43,15.609v-1.758H3.727v0.914H0v-9.07h3.727v0.914h0.914V6.961z
		 M26.789,17.93V2.602L4.641,8.93v2.672l1.758,0.492l6.469,1.828L26.789,17.93z M11.602,15.539h0.07l-5.273-1.547v1.547
		c0,0.562,0.281,0.844,0.844,0.844h3.586C11.344,16.383,11.602,16.102,11.602,15.539z"/>
</g>
<g id="Layer_1">
</g>
</svg>
