<?xml version="1.0" encoding="iso-8859-1"?>
<!-- Generator: Adobe Illustrator 18.0.0, SVG Export Plug-In . SVG Version: 6.00 Build 0)  -->
<!DOCTYPE svg PUBLIC "-//W3C//DTD SVG 1.1//EN" "http://www.w3.org/Graphics/SVG/1.1/DTD/svg11.dtd">
<svg version="1.1" xmlns="http://www.w3.org/2000/svg" xmlns:xlink="http://www.w3.org/1999/xlink" x="0px" y="0px"
	 viewBox="0 0 34.945 13.992" style="enable-background:new 0 0 34.945 13.992;" xml:space="preserve">
<g id="ico-ibm">
	<path d="M0,0.984V0h6.82v0.984H0z M0,2.812V1.828h6.82v0.984H0z M0,12.164V11.18h6.82v0.984H0z M0,13.992v-0.984h6.82v0.984H0z
		 M1.969,4.711V3.727h2.883v0.984H1.969z M1.969,6.539V5.555h2.883v0.984H1.969z M1.969,8.438V7.453h2.883v0.984H1.969z
		 M1.969,10.266V9.281h2.883v0.984H1.969z M7.734,0.984V0h5.836h0.984c1.171,0,2.155,0.329,2.953,0.984H7.734z M7.734,1.828h10.477
		c0.234,0.469,0.352,0.798,0.352,0.984H7.734V1.828z M7.734,11.18h10.758c0,0.281-0.095,0.61-0.281,0.984H7.734V11.18z
		 M7.734,13.008h9.773c-0.798,0.657-1.782,0.984-2.953,0.984H13.57H7.734V13.008z M9.703,4.711V3.727h2.883v0.984H9.703z
		 M9.703,6.539V5.555h8.367c-0.376,0.517-0.68,0.844-0.914,0.984H9.703z M9.703,7.453h7.453c0.234,0.141,0.538,0.469,0.914,0.984
		H9.703V7.453z M9.703,10.266V9.281h2.883v0.984H9.703z M15.539,3.727h3.094c0,0.376-0.047,0.703-0.141,0.984h-2.953V3.727z
		 M15.539,10.266V9.281h2.953c0.093,0.281,0.141,0.61,0.141,0.984H15.539z M24.891,0l0.352,0.984h-5.836V0H24.891z M25.523,1.828
		l0.352,0.984h-6.469V1.828H25.523z M19.406,12.164V11.18h4.852v0.984H19.406z M19.406,13.992v-0.984h4.852v0.984H19.406z
		 M26.227,3.727l0.352,0.984h-5.203V3.727H26.227z M27.492,5.555h5.484v0.984h-2.883V5.766l-0.281,0.773h-5.273l-0.281-0.773v0.773
		h-2.883V5.555h5.484l0.281,0.914L27.492,5.555z M21.375,8.438V7.453h2.883v0.984H21.375z M21.375,10.266V9.281h2.883v0.984H21.375z
		 M25.172,8.438L24.82,7.453h4.711L29.18,8.438H25.172z M25.805,10.266l-0.352-0.984h3.375l-0.352,0.984H25.805z M26.438,12.164
		l-0.281-0.984h2.039l-0.352,0.984H26.438z M27.141,13.992l-0.352-0.984h0.773l-0.352,0.984H27.141z M28.125,3.727h4.852v0.984
		h-5.203L28.125,3.727z M28.758,1.828h6.188v0.984h-6.469L28.758,1.828z M29.461,0h5.484v0.984h-5.836L29.461,0z M30.094,8.438
		V7.453h2.883v0.984H30.094z M30.094,10.266V9.281h2.883v0.984H30.094z M30.094,12.164V11.18h4.852v0.984H30.094z M30.094,13.992
		v-0.984h4.852v0.984H30.094z"/>
</g>
<g id="Layer_1">
</g>
</svg>
