<?xml version="1.0" encoding="iso-8859-1"?>
<!-- Generator: Adobe Illustrator 18.0.0, SVG Export Plug-In . SVG Version: 6.00 Build 0)  -->
<!DOCTYPE svg PUBLIC "-//W3C//DTD SVG 1.1//EN" "http://www.w3.org/Graphics/SVG/1.1/DTD/svg11.dtd">
<svg version="1.1" xmlns="http://www.w3.org/2000/svg" xmlns:xlink="http://www.w3.org/1999/xlink" x="0px" y="0px"
	 viewBox="0 0 28.758 28.758" style="enable-background:new 0 0 28.758 28.758;" xml:space="preserve">
<g id="ico-info">
	<path d="M4.184,4.219C6.972,1.406,10.359,0,14.344,0c3.983,0,7.383,1.406,10.195,4.219s4.219,6.212,4.219,10.195
		c0,3.985-1.406,7.372-4.219,10.16c-2.812,2.79-6.212,4.184-10.195,4.184c-3.985,0-7.372-1.394-10.16-4.184
		C1.394,21.786,0,18.399,0,14.414C0,10.431,1.394,7.031,4.184,4.219z M5.52,23.203c2.414,2.438,5.354,3.656,8.824,3.656
		c3.468,0,6.421-1.218,8.859-3.656c2.437-2.437,3.656-5.367,3.656-8.789c0-3.421-1.22-6.363-3.656-8.824
		c-2.438-2.461-5.391-3.691-8.859-3.691c-3.422,0-6.353,1.22-8.789,3.656c-2.438,2.438-3.656,5.391-3.656,8.859
		C1.898,17.836,3.104,20.767,5.52,23.203z M16.383,12.305v8.227h2.109v2.039h-8.227v-2.039h2.039v-6.117h-2.039v-2.109H16.383z
		 M12.902,9.668c-0.399-0.397-0.598-0.879-0.598-1.441s0.199-1.042,0.598-1.441c0.397-0.397,0.879-0.598,1.441-0.598
		s1.042,0.2,1.441,0.598c0.397,0.399,0.598,0.879,0.598,1.441s-0.2,1.044-0.598,1.441c-0.399,0.399-0.879,0.598-1.441,0.598
		S13.3,10.067,12.902,9.668z"/>
</g>
<g id="Layer_1">
</g>
</svg>
