<?xml version="1.0" encoding="iso-8859-1"?>
<!-- Generator: Adobe Illustrator 18.0.0, SVG Export Plug-In . SVG Version: 6.00 Build 0)  -->
<!DOCTYPE svg PUBLIC "-//W3C//DTD SVG 1.1//EN" "http://www.w3.org/Graphics/SVG/1.1/DTD/svg11.dtd">
<svg version="1.1" xmlns="http://www.w3.org/2000/svg" xmlns:xlink="http://www.w3.org/1999/xlink" x="0px" y="0px"
	 viewBox="0 0 25.312 25.383" style="enable-background:new 0 0 25.312 25.383;" xml:space="preserve">
<g id="ico-ingstagram">
	<path d="M20.461,0c1.312,0,2.449,0.481,3.41,1.441c0.96,0.961,1.441,2.122,1.441,3.48v5.133v10.406c0,1.36-0.481,2.521-1.441,3.48
		c-0.961,0.961-2.099,1.441-3.41,1.441H4.922c-1.313,0-2.461-0.492-3.445-1.477S0,21.774,0,20.461V10.125V4.922
		c0-1.359,0.492-2.519,1.477-3.48C2.461,0.481,3.609,0,4.922,0H20.461z M22.922,20.461V10.055h-3.797
		c0.375,0.844,0.562,1.712,0.562,2.602c0,1.923-0.68,3.563-2.039,4.922c-1.36,1.36-3,2.039-4.922,2.039
		c-1.923,0-3.563-0.679-4.922-2.039c-1.36-1.359-2.039-2.999-2.039-4.922c0-1.03,0.164-1.898,0.492-2.602H2.461v10.406
		c0,0.657,0.246,1.23,0.738,1.723s1.065,0.738,1.723,0.738h15.539c0.656,0,1.23-0.246,1.723-0.738S22.922,21.118,22.922,20.461z
		 M9.07,10.055c-0.517,0.75-0.821,1.617-0.914,2.602c0,1.22,0.445,2.274,1.336,3.164c0.89,0.891,1.944,1.336,3.164,1.336
		c1.218,0,2.261-0.445,3.129-1.336c0.867-0.89,1.301-1.944,1.301-3.164c0-1.03-0.281-1.898-0.844-2.602
		c-0.844-1.218-2.039-1.828-3.586-1.828C11.155,8.227,9.96,8.836,9.07,10.055z M21.867,2.953h-3.727v4.289h4.289V3.516V2.953H21.867
		z"/>
</g>
<g id="Layer_1">
</g>
</svg>
