<?xml version="1.0" encoding="iso-8859-1"?>
<!-- Generator: Adobe Illustrator 18.0.0, SVG Export Plug-In . SVG Version: 6.00 Build 0)  -->
<!DOCTYPE svg PUBLIC "-//W3C//DTD SVG 1.1//EN" "http://www.w3.org/Graphics/SVG/1.1/DTD/svg11.dtd">
<svg version="1.1" xmlns="http://www.w3.org/2000/svg" xmlns:xlink="http://www.w3.org/1999/xlink" x="0px" y="0px"
	 viewBox="0 0 28.828 28.828" style="enable-background:new 0 0 28.828 28.828;" xml:space="preserve">
<g id="ico-key">
	<path d="M4.219,4.219C7.031,1.406,10.429,0,14.414,0c3.983,0,7.383,1.406,10.195,4.219s4.219,6.212,4.219,10.195
		c0,3.984-1.406,7.383-4.219,10.195s-6.212,4.219-10.195,4.219c-3.985,0-7.383-1.406-10.195-4.219S0,18.398,0,14.414
		C0,10.431,1.406,7.031,4.219,4.219z M5.59,23.238c2.461,2.461,5.402,3.691,8.824,3.691c3.421,0,6.351-1.219,8.789-3.656
		c2.437-2.437,3.656-5.39,3.656-8.859c0-3.421-1.22-6.352-3.656-8.789c-2.438-2.437-5.368-3.656-8.789-3.656
		c-3.47,0-6.423,1.22-8.859,3.656c-2.438,2.438-3.656,5.368-3.656,8.789C1.898,17.836,3.129,20.777,5.59,23.238z M14.484,8.578
		c0.89-0.89,1.944-1.336,3.164-1.336c1.218,0,2.273,0.446,3.164,1.336c0.89,0.891,1.336,1.945,1.336,3.164
		c0,1.22-0.446,2.274-1.336,3.164c-0.891,0.891-1.946,1.336-3.164,1.336c-0.703,0-1.22-0.07-1.547-0.211l-1.125,1.125h-1.828v1.828
		h-1.758v1.758H9.562v0.914H8.648c-0.562,0-0.844-0.305-0.844-0.914V18.07l5.414-5.484c-0.047-0.187-0.07-0.468-0.07-0.844
		C13.148,10.523,13.593,9.469,14.484,8.578z M18.984,11.742c0.375,0,0.703-0.129,0.984-0.387c0.281-0.257,0.422-0.573,0.422-0.949
		c0-0.375-0.141-0.703-0.422-0.984S19.359,9,18.984,9c-0.376,0-0.692,0.141-0.949,0.422c-0.258,0.281-0.387,0.609-0.387,0.984
		C17.648,11.297,18.093,11.742,18.984,11.742z"/>
</g>
<g id="Layer_1">
</g>
</svg>
