<?xml version="1.0" encoding="iso-8859-1"?>
<!-- Generator: Adobe Illustrator 18.0.0, SVG Export Plug-In . SVG Version: 6.00 Build 0)  -->
<!DOCTYPE svg PUBLIC "-//W3C//DTD SVG 1.1//EN" "http://www.w3.org/Graphics/SVG/1.1/DTD/svg11.dtd">
<svg version="1.1" xmlns="http://www.w3.org/2000/svg" xmlns:xlink="http://www.w3.org/1999/xlink" x="0px" y="0px"
	 viewBox="0 0 28.688 15.82" style="enable-background:new 0 0 28.688 15.82;" xml:space="preserve">
<g id="ico-laptop">
	<path d="M24.539,12.938h4.148v2.883H0v-2.883h4.148V0h20.391V12.938z M6.047,1.898v10.898h6.539c0,0.095,0.023,0.188,0.07,0.281
		v0.07c0,0.047,0.023,0.07,0.07,0.07l0.07,0.141v0.07c0,0.047,0.023,0.07,0.07,0.07l0.07,0.141l0.211,0.211v0.07
		c0.046,0,0.07,0.024,0.07,0.07l0.141,0.07h0.07c0.046,0,0.07,0.024,0.07,0.07l0.141,0.07h0.07c0.046,0.047,0.116,0.07,0.211,0.07
		l0.07,0.07h0.352h0.352c0.046,0,0.07-0.011,0.07-0.035c0-0.023,0.023-0.035,0.07-0.035l0.07-0.07h0.141h0.07
		c0.046,0,0.07-0.023,0.07-0.07l0.141-0.07h0.07l0.141-0.141l0.07-0.07c0-0.046,0.023-0.07,0.07-0.07l0.07-0.141h0.07
		c0.046,0,0.07-0.023,0.07-0.07c0-0.046,0.023-0.093,0.07-0.141v-0.07c0.046,0,0.07-0.023,0.07-0.07c0-0.046,0-0.093,0-0.141v-0.07
		c0.046-0.046,0.07-0.141,0.07-0.281h6.539V1.898H6.047z"/>
</g>
<g id="Layer_1">
</g>
</svg>
