<?xml version="1.0" encoding="iso-8859-1"?>
<!-- Generator: Adobe Illustrator 18.0.0, SVG Export Plug-In . SVG Version: 6.00 Build 0)  -->
<!DOCTYPE svg PUBLIC "-//W3C//DTD SVG 1.1//EN" "http://www.w3.org/Graphics/SVG/1.1/DTD/svg11.dtd">
<svg version="1.1" xmlns="http://www.w3.org/2000/svg" xmlns:xlink="http://www.w3.org/1999/xlink" x="0px" y="0px"
	 viewBox="0 0 28.758 28.758" style="enable-background:new 0 0 28.758 28.758;" xml:space="preserve">
<g id="ico-life-preserver">
	<path d="M4.184,4.219C6.972,1.406,10.359,0,14.344,0c3.983,0,7.383,1.406,10.195,4.219s4.219,6.212,4.219,10.195
		c0,3.985-1.406,7.372-4.219,10.16c-2.812,2.79-6.212,4.184-10.195,4.184c-3.984,0-7.372-1.394-10.16-4.184
		C1.395,21.786,0,18.399,0,14.414C0,10.431,1.395,7.031,4.184,4.219z M3.727,20.883l3.094-3.094
		c-0.188-0.515-0.376-1.241-0.562-2.18v-0.07c0-0.046-0.012-0.093-0.035-0.141c-0.024-0.046-0.035-0.093-0.035-0.141v-0.844
		c0-0.749,0.116-1.547,0.352-2.391v-0.141c0.046-0.093,0.094-0.176,0.141-0.246c0.046-0.07,0.07-0.151,0.07-0.246
		c0-0.046,0-0.093,0-0.141c0-0.046,0.023-0.093,0.07-0.141h0.07v-0.07L3.727,7.875c-1.22,2.063-1.828,4.243-1.828,6.539
		C1.898,16.664,2.507,18.821,3.727,20.883z M9.562,19.266c1.312,1.313,2.906,1.969,4.781,1.969c1.874,0,3.469-0.656,4.781-1.969
		c1.312-1.312,1.992-2.906,2.039-4.781c0-1.874-0.668-3.48-2.004-4.816s-2.942-2.004-4.816-2.004c-1.875,0-3.47,0.668-4.781,2.004
		c-1.312,1.336-1.969,2.942-1.969,4.816C7.594,16.36,8.25,17.954,9.562,19.266z M14.344,26.859c2.296,0,4.476-0.608,6.539-1.828
		l-3.094-3.094c-0.984,0.469-2.134,0.703-3.445,0.703c-1.266,0-2.391-0.234-3.375-0.703l-3.094,3.094
		C9.938,26.251,12.094,26.859,14.344,26.859z M14.344,1.969c-2.297,0-4.43,0.61-6.398,1.828l3.094,3.094h0.141l0.281-0.141
		c0.046-0.046,0.129-0.081,0.246-0.105c0.116-0.023,0.199-0.035,0.246-0.035h0.07l0.07-0.07c0.844-0.234,1.617-0.352,2.32-0.352
		s1.477,0.118,2.32,0.352l0.07,0.07h0.07c0.046,0.047,0.129,0.083,0.246,0.105c0.116,0.024,0.199,0.035,0.246,0.035l0.281,0.141
		h0.07l3.164-3.094C18.819,2.579,16.64,1.969,14.344,1.969z M21.867,17.789l3.094,3.094c1.219-2.062,1.828-4.242,1.828-6.539
		c0-2.296-0.609-4.476-1.828-6.539l-3.164,3.164v0.07l0.07,0.07c0.046,0.047,0.07,0.095,0.07,0.141c0,0.047,0,0.095,0,0.141
		c0.094,0.188,0.164,0.352,0.211,0.492v0.141c0.281,1.032,0.422,1.805,0.422,2.32c0,0.376-0.024,0.657-0.07,0.844
		c0,0.047-0.012,0.105-0.035,0.176c-0.024,0.07-0.035,0.13-0.035,0.176v0.07C22.242,16.548,22.054,17.274,21.867,17.789z"/>
</g>
<g id="Layer_1">
</g>
</svg>
