<?xml version="1.0" encoding="iso-8859-1"?>
<!-- Generator: Adobe Illustrator 18.0.0, SVG Export Plug-In . SVG Version: 6.00 Build 0)  -->
<!DOCTYPE svg PUBLIC "-//W3C//DTD SVG 1.1//EN" "http://www.w3.org/Graphics/SVG/1.1/DTD/svg11.dtd">
<svg version="1.1" xmlns="http://www.w3.org/2000/svg" xmlns:xlink="http://www.w3.org/1999/xlink" x="0px" y="0px"
	 viewBox="0 0 25.383 25.453" style="enable-background:new 0 0 25.383 25.453;" xml:space="preserve">
<g id="ico-linkedin">
	<path d="M5.203,5.203c-0.562,0.61-1.266,0.914-2.109,0.914s-1.571-0.304-2.18-0.914C0.305,4.595,0,3.867,0,3.023
		s0.305-1.558,0.914-2.145C1.522,0.293,2.25,0,3.094,0s1.558,0.293,2.145,0.879C5.824,1.466,6.117,2.18,6.117,3.023
		C6.07,3.867,5.766,4.595,5.203,5.203z M5.695,25.383H0.422V8.438h5.273V25.383z M25.383,25.383h-5.344v-8.227
		c0-0.89-0.035-1.593-0.105-2.109c-0.07-0.515-0.316-1.042-0.738-1.582c-0.422-0.538-1.055-0.809-1.898-0.809
		c-1.266,0-2.099,0.387-2.496,1.16c-0.398,0.773-0.598,1.84-0.598,3.199v8.438H8.859V8.438h5.133v2.391h0.07
		C15,9,16.664,8.086,19.055,8.086c2.484,0,4.148,0.668,4.992,2.004s1.266,3.317,1.266,5.941v9.352H25.383z"/>
</g>
<g id="Layer_1">
</g>
</svg>
