<?xml version="1.0" encoding="iso-8859-1"?>
<!-- Generator: Adobe Illustrator 18.0.0, SVG Export Plug-In . SVG Version: 6.00 Build 0)  -->
<!DOCTYPE svg PUBLIC "-//W3C//DTD SVG 1.1//EN" "http://www.w3.org/Graphics/SVG/1.1/DTD/svg11.dtd">
<svg version="1.1" xmlns="http://www.w3.org/2000/svg" xmlns:xlink="http://www.w3.org/1999/xlink" x="0px" y="0px"
	 viewBox="0 0 25.312 25.383" style="enable-background:new 0 0 25.312 25.383;" xml:space="preserve">
<g id="ico-link">
	<path d="M8.438,11.039c1.641,0,3.023,0.562,4.148,1.688s1.688,2.531,1.688,4.219c0,1.642-0.562,3.023-1.688,4.148l-2.531,2.531
		c-1.172,1.172-2.578,1.758-4.219,1.758c-1.594,0-2.978-0.585-4.148-1.758C0.562,22.5,0,21.094,0,19.406
		c0-1.593,0.586-2.976,1.758-4.148l2.461-2.531C5.344,11.602,6.75,11.039,8.438,11.039z M8.438,12.938
		c-1.079,0-2.039,0.376-2.883,1.125l-2.531,2.531c-0.798,0.798-1.195,1.735-1.195,2.812c0,1.125,0.397,2.086,1.195,2.883
		c0.797,0.798,1.733,1.195,2.812,1.195c1.125,0,2.085-0.397,2.883-1.195l2.531-2.531c0.797-0.796,1.195-1.733,1.195-2.812
		c0-1.171-0.376-2.132-1.125-2.883C10.57,13.313,9.608,12.938,8.438,12.938z M6.398,16.594L16.523,6.469l2.391,2.391L8.789,18.984
		L6.398,16.594z M19.406,0c1.593,0,2.977,0.587,4.148,1.758c1.171,1.172,1.758,2.556,1.758,4.148c0,1.642-0.587,3.048-1.758,4.219
		l-2.461,2.531c-1.125,1.125-2.531,1.688-4.219,1.688s-3.094-0.562-4.219-1.688s-1.688-2.531-1.688-4.219
		c0-1.593,0.586-2.976,1.758-4.148l2.531-2.531C16.429,0.587,17.812,0,19.406,0z M19.406,1.969c-1.172,0-2.109,0.399-2.812,1.195
		l-2.531,2.531c-0.798,0.798-1.195,1.735-1.195,2.812c0,1.172,0.375,2.134,1.125,2.883c0.749,0.75,1.711,1.125,2.883,1.125
		c1.125,0,2.085-0.397,2.883-1.195l2.461-2.531c0.797-0.796,1.195-1.733,1.195-2.812c0-1.125-0.398-2.085-1.195-2.883
		C21.469,2.345,20.531,1.969,19.406,1.969z"/>
</g>
<g id="Layer_1">
</g>
</svg>
