<?xml version="1.0" encoding="iso-8859-1"?>
<!-- Generator: Adobe Illustrator 18.0.0, SVG Export Plug-In . SVG Version: 6.00 Build 0)  -->
<!DOCTYPE svg PUBLIC "-//W3C//DTD SVG 1.1//EN" "http://www.w3.org/Graphics/SVG/1.1/DTD/svg11.dtd">
<svg version="1.1" xmlns="http://www.w3.org/2000/svg" xmlns:xlink="http://www.w3.org/1999/xlink" x="0px" y="0px"
	 viewBox="0 0 28.758 28.688" style="enable-background:new 0 0 28.758 28.688;" xml:space="preserve">
<g id="ico-linkedin-circle">
	<path d="M4.184,4.184C6.972,1.396,10.359,0,14.344,0c3.983,0,7.383,1.396,10.195,4.184c2.812,2.79,4.219,6.177,4.219,10.16
		c0,3.985-1.406,7.372-4.219,10.16c-2.812,2.79-6.212,4.184-10.195,4.184c-3.984,0-7.372-1.394-10.16-4.184
		C1.395,21.716,0,18.329,0,14.344C0,10.36,1.395,6.973,4.184,4.184z M5.484,23.238c2.437,2.461,5.39,3.691,8.859,3.691
		c3.469,0,6.434-1.241,8.895-3.727c2.461-2.484,3.691-5.437,3.691-8.859c0-3.421-1.23-6.374-3.691-8.859
		C20.777,3,17.812,1.758,14.344,1.758c-3.422,0-6.363,1.23-8.824,3.691s-3.691,5.426-3.691,8.895
		C1.828,17.813,3.047,20.777,5.484,23.238z M11.039,9.633c-0.281,0.281-0.633,0.422-1.055,0.422S9.211,9.903,8.93,9.598
		c-0.281-0.304-0.422-0.644-0.422-1.02c0-0.422,0.151-0.773,0.457-1.055c0.305-0.281,0.644-0.422,1.02-0.422
		c0.422,0,0.773,0.153,1.055,0.457c0.281,0.306,0.422,0.645,0.422,1.02C11.461,9,11.32,9.352,11.039,9.633z M11.32,19.477H8.648
		V11.18h2.672V19.477z M20.953,19.477h-2.602v-4.008c0-1.5-0.446-2.25-1.336-2.25c-1.031,0-1.547,0.728-1.547,2.18v4.078h-2.602
		V11.18h2.461v1.195h0.07c0.422-0.89,1.241-1.336,2.461-1.336c1.219,0,2.039,0.329,2.461,0.984c0.422,0.657,0.633,1.617,0.633,2.883
		V19.477z"/>
</g>
<g id="Layer_1">
</g>
</svg>
