<?xml version="1.0" encoding="iso-8859-1"?>
<!-- Generator: Adobe Illustrator 18.0.0, SVG Export Plug-In . SVG Version: 6.00 Build 0)  -->
<!DOCTYPE svg PUBLIC "-//W3C//DTD SVG 1.1//EN" "http://www.w3.org/Graphics/SVG/1.1/DTD/svg11.dtd">
<svg version="1.1" xmlns="http://www.w3.org/2000/svg" xmlns:xlink="http://www.w3.org/1999/xlink" x="0px" y="0px"
	 viewBox="0 0 23.062 28.828" style="enable-background:new 0 0 23.062 28.828;" xml:space="preserve">
<g id="Layer_82">
	<path d="M11.531,0c3.094,0,5.812,1.125,8.156,3.375c2.25,2.25,3.375,4.969,3.375,8.156c0,3.422-1.125,6.305-3.375,8.648
		l-8.156,8.648L3.375,20.18C1.125,17.789,0,14.906,0,11.531C0,8.438,1.125,5.72,3.375,3.375C5.625,1.125,8.343,0,11.531,0z
		 M11.531,1.969c-2.672,0-4.946,0.938-6.82,2.812c-1.875,1.875-2.812,4.148-2.812,6.82c0,2.812,0.96,5.25,2.883,7.312l6.75,7.172
		l6.75-7.172c1.921-2.062,2.883-4.523,2.883-7.383c0-2.672-0.938-4.945-2.812-6.82C16.523,2.883,14.249,1.969,11.531,1.969z
		 M8.824,14.238c-0.773-0.773-1.16-1.676-1.16-2.707c0-1.03,0.387-1.934,1.16-2.707s1.675-1.16,2.707-1.16
		c1.03,0,1.934,0.387,2.707,1.16s1.16,1.677,1.16,2.707c0,1.031-0.387,1.934-1.16,2.707s-1.677,1.16-2.707,1.16
		C10.5,15.398,9.598,15.012,8.824,14.238z"/>
</g>
<g id="Layer_1">
</g>
</svg>
