<?xml version="1.0" encoding="iso-8859-1"?>
<!-- Generator: Adobe Illustrator 18.0.0, SVG Export Plug-In . SVG Version: 6.00 Build 0)  -->
<!DOCTYPE svg PUBLIC "-//W3C//DTD SVG 1.1//EN" "http://www.w3.org/Graphics/SVG/1.1/DTD/svg11.dtd">
<svg version="1.1" xmlns="http://www.w3.org/2000/svg" xmlns:xlink="http://www.w3.org/1999/xlink" x="0px" y="0px"
	 viewBox="0 0 21.164 28.898" style="enable-background:new 0 0 21.164 28.898;" xml:space="preserve">
<g id="Layer_46">
	<path d="M18.281,11.039c1.922,2.063,2.883,4.477,2.883,7.242c0,2.907-1.031,5.403-3.094,7.488
		c-2.063,2.085-4.547,3.129-7.453,3.129c-2.907,0-5.403-1.044-7.488-3.129C1.043,23.685,0,21.188,0,18.281
		c0-2.812,0.96-5.227,2.883-7.242V7.734c0-2.109,0.762-3.926,2.285-5.449C6.69,0.763,8.508,0,10.617,0s3.913,0.763,5.414,2.285
		c1.5,1.523,2.25,3.34,2.25,5.449V11.039z M4.5,24.398c1.688,1.688,3.727,2.531,6.117,2.531s4.418-0.844,6.082-2.531
		c1.663-1.688,2.496-3.727,2.496-6.117s-0.833-4.418-2.496-6.082c-1.664-1.663-3.691-2.496-6.082-2.496s-4.43,0.833-6.117,2.496
		c-1.688,1.664-2.531,3.691-2.531,6.082S2.812,22.711,4.5,24.398z M14.66,3.621c-1.102-1.101-2.45-1.652-4.043-1.652
		c-1.594,0-2.953,0.552-4.078,1.652c-1.125,1.102-1.688,2.45-1.688,4.043v1.758c1.874-1.171,3.797-1.758,5.766-1.758
		c1.922,0,3.82,0.587,5.695,1.758V7.664C16.312,6.071,15.761,4.723,14.66,3.621z M9.141,19.828l5.062-5.062l1.406,1.336L9.141,22.57
		l-3.586-3.586l1.406-1.336L9.141,19.828z"/>
</g>
<g id="Layer_1">
</g>
</svg>
