<?xml version="1.0" encoding="iso-8859-1"?>
<!-- Generator: Adobe Illustrator 18.0.0, SVG Export Plug-In . SVG Version: 6.00 Build 0)  -->
<!DOCTYPE svg PUBLIC "-//W3C//DTD SVG 1.1//EN" "http://www.w3.org/Graphics/SVG/1.1/DTD/svg11.dtd">
<svg version="1.1" xmlns="http://www.w3.org/2000/svg" xmlns:xlink="http://www.w3.org/1999/xlink" x="0px" y="0px"
	 viewBox="0 0 28.758 14.836" style="enable-background:new 0 0 28.758 14.836;" xml:space="preserve">
<g id="ico-matrix">
	<path d="M3.234,5.766l3.164,1.125L3.234,8.086L0,6.891L3.234,5.766z M9.984,3.938L6.82,5.133L3.656,3.938L6.82,2.812L9.984,3.938z
		 M3.656,9.844L6.82,8.719l3.164,1.125L6.82,11.039L3.656,9.844z M13.781,1.195L10.547,2.32L7.312,1.195L10.547,0L13.781,1.195z
		 M10.688,5.766l3.164,1.125l-3.164,1.195L7.453,6.891L10.688,5.766z M14.273,5.133l-3.234-1.195l3.234-1.125l3.164,1.125
		L14.273,5.133z M11.039,9.844l3.234-1.125l3.164,1.125l-3.164,1.195L11.039,9.844z M11.039,13.641l3.234-1.195l3.164,1.195
		l-3.164,1.195L11.039,13.641z M21.234,1.195L18,2.32l-3.234-1.125L18,0L21.234,1.195z M18.141,5.766l3.164,1.125l-3.164,1.195
		l-3.234-1.195L18.141,5.766z M21.727,5.133l-3.234-1.195l3.234-1.125l3.164,1.125L21.727,5.133z M18.492,9.844l3.234-1.125
		l3.164,1.125l-3.164,1.195L18.492,9.844z M25.594,5.766l3.164,1.125l-3.164,1.195l-3.234-1.195L25.594,5.766z"/>
</g>
<g id="Layer_1">
</g>
</svg>
