<?xml version="1.0" encoding="iso-8859-1"?>
<!-- Generator: Adobe Illustrator 18.0.0, SVG Export Plug-In . SVG Version: 6.00 Build 0)  -->
<!DOCTYPE svg PUBLIC "-//W3C//DTD SVG 1.1//EN" "http://www.w3.org/Graphics/SVG/1.1/DTD/svg11.dtd">
<svg version="1.1" xmlns="http://www.w3.org/2000/svg" xmlns:xlink="http://www.w3.org/1999/xlink" x="0px" y="0px"
	 viewBox="0 0 28.828 5.766" style="enable-background:new 0 0 28.828 5.766;" xml:space="preserve">
<g id="ico-menu-dots">
	<path d="M0.844,4.922C0.281,4.359,0,3.681,0,2.883c0-0.796,0.281-1.477,0.844-2.039S2.085,0,2.883,0
		c0.796,0,1.477,0.281,2.039,0.844s0.844,1.243,0.844,2.039c0,0.798-0.281,1.477-0.844,2.039S3.679,5.766,2.883,5.766
		C2.085,5.766,1.406,5.484,0.844,4.922z M12.375,4.922c-0.562-0.562-0.844-1.241-0.844-2.039c0-0.796,0.281-1.477,0.844-2.039
		S13.616,0,14.414,0c0.796,0,1.477,0.281,2.039,0.844s0.844,1.243,0.844,2.039c0,0.798-0.281,1.477-0.844,2.039
		s-1.243,0.844-2.039,0.844C13.616,5.766,12.938,5.484,12.375,4.922z M23.906,4.922c-0.562-0.562-0.844-1.241-0.844-2.039
		c0-0.796,0.281-1.477,0.844-2.039S25.147,0,25.945,0c0.796,0,1.477,0.281,2.039,0.844s0.844,1.243,0.844,2.039
		c0,0.798-0.281,1.477-0.844,2.039s-1.243,0.844-2.039,0.844C25.147,5.766,24.469,5.484,23.906,4.922z"/>
</g>
<g id="Layer_1">
</g>
</svg>
