<?xml version="1.0" encoding="iso-8859-1"?>
<!-- Generator: Adobe Illustrator 18.0.0, SVG Export Plug-In . SVG Version: 6.00 Build 0)  -->
<!DOCTYPE svg PUBLIC "-//W3C//DTD SVG 1.1//EN" "http://www.w3.org/Graphics/SVG/1.1/DTD/svg11.dtd">
<svg version="1.1" xmlns="http://www.w3.org/2000/svg" xmlns:xlink="http://www.w3.org/1999/xlink" x="0px" y="0px"
	 viewBox="0 0 28.266 26.367" style="enable-background:new 0 0 28.266 26.367;" xml:space="preserve">
<g id="ico-paperclip">
	<path d="M6.609,26.367c-1.782,0-3.352-0.679-4.711-2.039C0.633,23.017,0,21.435,0,19.582c0-1.851,0.633-3.456,1.898-4.816
		L13.781,2.531C15.374,0.844,17.391,0,19.828,0c2.344,0,4.335,0.844,5.977,2.531c1.641,1.688,2.461,3.739,2.461,6.152
		c0,2.415-0.82,4.465-2.461,6.152l-9.633,9.984l-1.336-1.266l9.633-9.984c1.312-1.312,1.969-2.918,1.969-4.816
		s-0.657-3.526-1.969-4.887c-1.36-1.359-2.93-2.039-4.711-2.039c-1.734,0-3.281,0.68-4.641,2.039L3.234,16.102
		c-0.938,0.938-1.406,2.086-1.406,3.445c0,1.36,0.468,2.531,1.406,3.516c0.984,0.984,2.085,1.477,3.305,1.477
		c1.266,0,2.391-0.492,3.375-1.477l8.93-9.211c0.562-0.562,0.844-1.253,0.844-2.074c0-0.819-0.281-1.512-0.844-2.074
		c-0.609-0.608-1.29-0.914-2.039-0.914c-0.703,0-1.36,0.306-1.969,0.914l-6.68,6.82L6.82,15.258l6.68-6.891
		c0.938-0.937,2.039-1.406,3.305-1.406c1.312,0,2.437,0.469,3.375,1.406c0.89,0.938,1.336,2.074,1.336,3.41s-0.446,2.473-1.336,3.41
		l-8.93,9.141C9.984,25.688,8.438,26.367,6.609,26.367z"/>
</g>
<g id="Layer_1">
</g>
</svg>
