<?xml version="1.0" encoding="iso-8859-1"?>
<!-- Generator: Adobe Illustrator 18.0.0, SVG Export Plug-In . SVG Version: 6.00 Build 0)  -->
<!DOCTYPE svg PUBLIC "-//W3C//DTD SVG 1.1//EN" "http://www.w3.org/Graphics/SVG/1.1/DTD/svg11.dtd">
<svg version="1.1" xmlns="http://www.w3.org/2000/svg" xmlns:xlink="http://www.w3.org/1999/xlink" x="0px" y="0px"
	 viewBox="0 0 16.945 25.383" style="enable-background:new 0 0 16.945 25.383;" xml:space="preserve">
<g id="ico-pdf">
	<path d="M10.125,0l6.82,6.75v0.844v17.789H0V0h9.352H10.125z M15.258,7.594H9.281V1.758H1.688v21.938h13.57V7.594z M6.75,17.297
		c0.046,0.095,0.093,0.2,0.141,0.316c0.046,0.117,0.093,0.223,0.141,0.316c0.093,0.281,0.141,0.517,0.141,0.703
		c0,0.188-0.047,0.422-0.141,0.703c-0.047,0.188-0.141,0.376-0.281,0.562c-0.095,0.188-0.235,0.328-0.422,0.422
		c-0.141,0.095-0.376,0.141-0.703,0.141c-0.141,0-0.352-0.046-0.633-0.141c-0.188-0.094-0.329-0.234-0.422-0.422v1.688H3.586v-4.711
		H4.43v0.422c0.141-0.234,0.304-0.375,0.492-0.422c0.141-0.094,0.327-0.141,0.562-0.141c0.375,0,0.633,0.047,0.773,0.141
		C6.444,16.922,6.609,17.062,6.75,17.297z M6.117,18.984c0.046-0.094,0.07-0.234,0.07-0.422c0-0.141-0.024-0.257-0.07-0.352
		C6.07,18.165,6.047,18.095,6.047,18c0-0.094-0.024-0.164-0.07-0.211c-0.047-0.046-0.141-0.116-0.281-0.211
		c-0.188-0.094-0.306-0.141-0.352-0.141c-0.095,0-0.235,0.047-0.422,0.141c-0.095,0.047-0.165,0.117-0.211,0.211
		c-0.047,0.047-0.07,0.117-0.07,0.211c0,0.095-0.024,0.165-0.07,0.211c-0.047,0.095-0.07,0.235-0.07,0.422
		c0,0.141,0.023,0.258,0.07,0.352c0.046,0.047,0.07,0.105,0.07,0.176s0.023,0.13,0.07,0.176c0.093,0.141,0.164,0.235,0.211,0.281
		c0.187,0.095,0.327,0.141,0.422,0.141c0.046,0,0.164-0.046,0.352-0.141c0.141-0.046,0.234-0.141,0.281-0.281
		c0.046-0.046,0.07-0.105,0.07-0.176S6.07,19.031,6.117,18.984z M8.438,16.875c0.093-0.046,0.234-0.07,0.422-0.07
		c0.093-0.046,0.187-0.07,0.281-0.07c0.093,0,0.281,0.047,0.562,0.141c0.234,0.141,0.375,0.258,0.422,0.352v-1.758h0.984v4.852
		h-0.914v-0.422c-0.141,0.235-0.281,0.376-0.422,0.422c-0.141,0.047-0.352,0.07-0.633,0.07c-0.329,0-0.562-0.046-0.703-0.141
		c-0.235-0.094-0.399-0.211-0.492-0.352c-0.095-0.141-0.188-0.352-0.281-0.633c-0.047-0.187-0.07-0.422-0.07-0.703
		c0-0.327,0.023-0.562,0.07-0.703c0.046-0.187,0.141-0.375,0.281-0.562C8.132,17.11,8.297,16.97,8.438,16.875z M9.773,17.508
		c-0.095-0.046-0.235-0.07-0.422-0.07c-0.095,0-0.235,0.047-0.422,0.141c-0.095,0.047-0.165,0.117-0.211,0.211
		c0,0.047-0.024,0.117-0.07,0.211c-0.047,0.095-0.07,0.165-0.07,0.211c-0.047,0.095-0.07,0.235-0.07,0.422
		c0,0.141,0.023,0.258,0.07,0.352c0,0.047,0.023,0.105,0.07,0.176c0.046,0.07,0.07,0.13,0.07,0.176
		c0.093,0.141,0.164,0.235,0.211,0.281c0.187,0.095,0.327,0.141,0.422,0.141c0.093,0,0.234-0.046,0.422-0.141
		c0.046-0.046,0.116-0.141,0.211-0.281c0-0.046,0.023-0.105,0.07-0.176c0.046-0.07,0.07-0.129,0.07-0.176
		c0.046-0.094,0.07-0.234,0.07-0.422c0-0.187-0.024-0.327-0.07-0.422c0-0.046-0.024-0.105-0.07-0.176
		c-0.047-0.07-0.07-0.129-0.07-0.176C9.89,17.648,9.819,17.555,9.773,17.508z M12.094,20.32v-2.883h-0.562v-0.633h0.562v-0.281
		c0-0.327,0.093-0.586,0.281-0.773c0.187-0.187,0.468-0.281,0.844-0.281H13.5h0.281v0.703h-0.422c-0.141,0-0.235,0.024-0.281,0.07
		c-0.047,0.047-0.07,0.165-0.07,0.352v0.211h0.703v0.633h-0.703v2.883H12.094z"/>
</g>
<g id="Layer_1">
</g>
</svg>
