<?xml version="1.0" encoding="iso-8859-1"?>
<!-- Generator: Adobe Illustrator 18.0.0, SVG Export Plug-In . SVG Version: 6.00 Build 0)  -->
<!DOCTYPE svg PUBLIC "-//W3C//DTD SVG 1.1//EN" "http://www.w3.org/Graphics/SVG/1.1/DTD/svg11.dtd">
<svg version="1.1" xmlns="http://www.w3.org/2000/svg" xmlns:xlink="http://www.w3.org/1999/xlink" x="0px" y="0px"
	 viewBox="0 0 25.383 25.312" style="enable-background:new 0 0 25.383 25.312;" xml:space="preserve">
<g id="ico-people">
	<path d="M9.07,20.812c0.516,0,0.949,0.176,1.301,0.527s0.527,0.786,0.527,1.301v2.672H0v-2.672c0-0.515,0.187-0.949,0.562-1.301
		c0.375-0.352,0.797-0.527,1.266-0.527H9.07z M5.414,9.984c1.266,0,2.344,0.434,3.234,1.301c0.89,0.868,1.336,1.934,1.336,3.199
		s-0.446,2.333-1.336,3.199c-0.891,0.868-1.969,1.301-3.234,1.301s-2.332-0.433-3.199-1.301c-0.868-0.867-1.301-1.934-1.301-3.199
		s0.445-2.331,1.336-3.199C3.14,10.418,4.194,9.984,5.414,9.984z M5.414,11.25c-0.891,0-1.652,0.316-2.285,0.949
		S2.18,13.595,2.18,14.484c0,0.938,0.316,1.723,0.949,2.355s1.395,0.949,2.285,0.949c0.89,0,1.663-0.327,2.32-0.984
		c0.656-0.656,0.984-1.429,0.984-2.32c0-0.89-0.316-1.652-0.949-2.285S6.352,11.25,5.414,11.25z M9.492,1.301
		C10.382,0.434,11.437,0,12.656,0c1.219,0,2.285,0.446,3.199,1.336c0.914,0.891,1.371,1.946,1.371,3.164
		c0,1.266-0.457,2.345-1.371,3.234c-0.914,0.891-1.98,1.336-3.199,1.336c-1.266,0-2.332-0.445-3.199-1.336
		C8.589,6.845,8.156,5.766,8.156,4.5S8.602,2.169,9.492,1.301z M12.656,1.266c-0.891,0-1.652,0.316-2.285,0.949
		S9.422,3.633,9.422,4.57c0,0.938,0.316,1.723,0.949,2.355s1.395,0.949,2.285,0.949c0.938,0,1.723-0.316,2.355-0.949
		s0.949-1.417,0.949-2.355c0-0.937-0.316-1.723-0.949-2.355S13.594,1.266,12.656,1.266z M23.555,20.812
		c0.468,0,0.879,0.176,1.23,0.527s0.551,0.786,0.598,1.301v2.672H14.484v-2.672c0-0.515,0.187-0.949,0.562-1.301
		c0.375-0.352,0.797-0.527,1.266-0.527H23.555z M19.898,9.984c1.266,0,2.344,0.434,3.234,1.301c0.89,0.868,1.336,1.934,1.336,3.199
		s-0.446,2.333-1.336,3.199c-0.891,0.868-1.969,1.301-3.234,1.301c-1.22,0-2.274-0.433-3.164-1.301
		c-0.891-0.867-1.336-1.934-1.336-3.199s0.445-2.331,1.336-3.199C17.624,10.418,18.679,9.984,19.898,9.984z M19.898,11.25
		c-0.891,0-1.652,0.316-2.285,0.949s-0.949,1.396-0.949,2.285c0,0.938,0.316,1.723,0.949,2.355s1.395,0.949,2.285,0.949
		c0.89,0,1.663-0.327,2.32-0.984c0.656-0.656,0.984-1.429,0.984-2.32c0-0.89-0.316-1.652-0.949-2.285S20.836,11.25,19.898,11.25z"/>
</g>
<g id="Layer_1">
</g>
</svg>
