<?xml version="1.0" encoding="iso-8859-1"?>
<!-- Generator: Adobe Illustrator 18.0.0, SVG Export Plug-In . SVG Version: 6.00 Build 0)  -->
<!DOCTYPE svg PUBLIC "-//W3C//DTD SVG 1.1//EN" "http://www.w3.org/Graphics/SVG/1.1/DTD/svg11.dtd">
<svg version="1.1" xmlns="http://www.w3.org/2000/svg" xmlns:xlink="http://www.w3.org/1999/xlink" x="0px" y="0px"
	 viewBox="0 0 25.265 25.266" style="enable-background:new 0 0 25.265 25.266;" xml:space="preserve">
<g id="ico-phone">
	<path d="M7.475,17.789C3.35,13.665,0.866,8.719,0.022,2.953C-0.071,2.156,0.128,1.477,0.62,0.914S1.756,0.047,2.554,0H6.14
		c0.703,0,1.125,0.328,1.266,0.984l1.336,5.062C8.882,6.516,8.764,6.938,8.39,7.312l-2.813,2.812
		c0.984,2.016,2.32,3.867,4.008,5.555c1.781,1.782,3.632,3.141,5.555,4.078l2.812-2.812c0.375-0.375,0.796-0.492,1.266-0.352
		l5.062,1.266c0.656,0.141,0.984,0.587,0.984,1.336v3.586c0,0.798-0.293,1.431-0.879,1.898c-0.587,0.469-1.278,0.657-2.074,0.562
		C16.498,24.353,11.554,21.867,7.475,17.789z"/>
</g>
<g id="Layer_1">
</g>
</svg>
