<?xml version="1.0" encoding="iso-8859-1"?>
<!-- Generator: Adobe Illustrator 18.0.0, SVG Export Plug-In . SVG Version: 6.00 Build 0)  -->
<!DOCTYPE svg PUBLIC "-//W3C//DTD SVG 1.1//EN" "http://www.w3.org/Graphics/SVG/1.1/DTD/svg11.dtd">
<svg version="1.1" xmlns="http://www.w3.org/2000/svg" xmlns:xlink="http://www.w3.org/1999/xlink" x="0px" y="0px"
	 viewBox="0 0 25.383 25.383" style="enable-background:new 0 0 25.383 25.383;" xml:space="preserve">
<g id="ico-photo">
	<path d="M0,0h25.383v21.516v3.867H0v-3.867V0z M23.484,1.898H1.898v18.562h21.586V1.898z M21.023,13.641v3.938H4.359V11.25
		l4.43-4.43l6.82,6.891l2.953-2.602L21.023,13.641z M17.543,7.629c-0.398-0.397-0.598-0.854-0.598-1.371
		c0-0.516,0.199-0.973,0.598-1.371c0.397-0.397,0.854-0.598,1.371-0.598c0.516,0,0.96,0.2,1.336,0.598
		c0.375,0.398,0.562,0.855,0.562,1.371c0,0.517-0.188,0.974-0.562,1.371c-0.376,0.398-0.82,0.598-1.336,0.598
		C18.397,8.227,17.94,8.027,17.543,7.629z"/>
</g>
<g id="Layer_1">
</g>
</svg>
