<?xml version="1.0" encoding="iso-8859-1"?>
<!-- Generator: Adobe Illustrator 18.0.0, SVG Export Plug-In . SVG Version: 6.00 Build 0)  -->
<!DOCTYPE svg PUBLIC "-//W3C//DTD SVG 1.1//EN" "http://www.w3.org/Graphics/SVG/1.1/DTD/svg11.dtd">
<svg version="1.1" xmlns="http://www.w3.org/2000/svg" xmlns:xlink="http://www.w3.org/1999/xlink" x="0px" y="0px"
	 viewBox="0 0 28.828 20.25" style="enable-background:new 0 0 28.828 20.25;" xml:space="preserve">
<g id="ico-play">
	<path d="M28.547,4.359c0.187,1.594,0.281,3.164,0.281,4.711v2.109l-0.281,4.711c-0.235,1.312-0.633,2.25-1.195,2.812
		c-0.657,0.703-1.617,1.125-2.883,1.266L14.414,20.25c-4.969-0.046-8.227-0.141-9.773-0.281c-0.047,0-0.246-0.035-0.598-0.105
		s-0.645-0.129-0.879-0.176c-0.235-0.046-0.527-0.151-0.879-0.316c-0.352-0.164-0.645-0.387-0.879-0.668
		c-0.235-0.234-0.446-0.586-0.633-1.055c-0.188-0.468-0.306-0.89-0.352-1.266l-0.141-0.492C0.094,14.298,0,12.727,0,11.18V9.07
		l0.281-4.711c0.187-1.312,0.562-2.25,1.125-2.812c0.656-0.703,1.617-1.125,2.883-1.266L14.414,0c4.031,0,7.383,0.095,10.055,0.281
		c1.266,0.141,2.226,0.562,2.883,1.266c0.234,0.235,0.457,0.587,0.668,1.055c0.211,0.469,0.34,0.891,0.387,1.266L28.547,4.359z
		 M11.391,13.852l7.805-4.008l-7.805-4.078V13.852z"/>
</g>
<g id="Layer_1">
</g>
</svg>
