<?xml version="1.0" encoding="iso-8859-1"?>
<!-- Generator: Adobe Illustrator 18.0.0, SVG Export Plug-In . SVG Version: 6.00 Build 0)  -->
<!DOCTYPE svg PUBLIC "-//W3C//DTD SVG 1.1//EN" "http://www.w3.org/Graphics/SVG/1.1/DTD/svg11.dtd">
<svg version="1.1" xmlns="http://www.w3.org/2000/svg" xmlns:xlink="http://www.w3.org/1999/xlink" x="0px" y="0px"
	 viewBox="0 0 28.758 28.688" style="enable-background:new 0 0 28.758 28.688;" xml:space="preserve">
<g id="ico-play-circle">
	<path d="M4.184,4.184C6.972,1.396,10.359,0,14.344,0c3.983,0,7.383,1.396,10.195,4.184c2.812,2.789,4.219,6.177,4.219,10.16
		c0,3.984-1.406,7.372-4.219,10.16c-2.812,2.789-6.212,4.184-10.195,4.184c-3.984,0-7.372-1.395-10.16-4.184
		C1.395,21.716,0,18.328,0,14.344C0,10.36,1.395,6.973,4.184,4.184z M5.484,23.238c2.437,2.461,5.39,3.691,8.859,3.691
		c3.469,0,6.434-1.241,8.895-3.727c2.461-2.484,3.691-5.438,3.691-8.859c0-3.421-1.23-6.374-3.691-8.859
		C20.777,3,17.812,1.758,14.344,1.758c-3.422,0-6.363,1.23-8.824,3.691s-3.691,5.426-3.691,8.895
		C1.828,17.813,3.047,20.777,5.484,23.238z M22.711,10.969c0.094,0.938,0.164,1.853,0.211,2.742v1.266l-0.141,2.742
		c-0.141,0.798-0.376,1.36-0.703,1.688c-0.328,0.376-0.891,0.633-1.688,0.773l-5.977,0.141c-2.953,0-4.876-0.046-5.766-0.141
		c-0.891-0.141-1.501-0.397-1.828-0.773C6.68,19.22,6.55,18.984,6.434,18.703c-0.117-0.281-0.2-0.516-0.246-0.703l-0.07-0.281
		c-0.141-0.938-0.211-1.852-0.211-2.742v-1.266l0.211-2.742c0.094-0.797,0.327-1.359,0.703-1.688C7.102,9,7.664,8.766,8.508,8.578
		l5.906-0.141c2.391,0,4.359,0.047,5.906,0.141C21.164,8.766,21.727,9,22.008,9.281c0.141,0.188,0.27,0.422,0.387,0.703
		c0.116,0.281,0.199,0.517,0.246,0.703L22.711,10.969z M12.656,16.523l4.57-2.32l-4.57-2.391V16.523z"/>
</g>
<g id="Layer_1">
</g>
</svg>
