<?xml version="1.0" encoding="iso-8859-1"?>
<!-- Generator: Adobe Illustrator 18.0.0, SVG Export Plug-In . SVG Version: 6.00 Build 0)  -->
<!DOCTYPE svg PUBLIC "-//W3C//DTD SVG 1.1//EN" "http://www.w3.org/Graphics/SVG/1.1/DTD/svg11.dtd">
<svg version="1.1" xmlns="http://www.w3.org/2000/svg" xmlns:xlink="http://www.w3.org/1999/xlink" x="0px" y="0px"
	 viewBox="0 0 26.016 25.453" style="enable-background:new 0 0 26.016 25.453;" xml:space="preserve">
<g id="Layer_45">
	<path d="M16.102,25.453H9.914L9,21.516C8.578,21.329,7.991,21,7.242,20.531l-3.938,1.266L0.07,16.453l3.094-2.742
		c-0.047-0.234-0.07-0.562-0.07-0.984s0.023-0.749,0.07-0.984L0,9l3.234-5.344l3.938,1.336C7.594,4.665,8.179,4.336,8.93,4.008
		L9.914,0h6.188l0.914,4.008c0.422,0.188,1.007,0.517,1.758,0.984l4.008-1.336L26.016,9l-3.164,2.742
		c0.046,0.235,0.07,0.562,0.07,0.984s-0.024,0.75-0.07,0.984l3.164,2.742l-3.234,5.344l-4.008-1.266
		c-0.422,0.328-1.009,0.657-1.758,0.984L16.102,25.453z M11.391,23.555h3.234l0.773-3.445l0.492-0.211
		c0.796-0.281,1.522-0.679,2.18-1.195l0.352-0.281l3.516,1.125l1.617-2.672l-2.742-2.391l0.07-0.492
		c0.046-0.281,0.07-0.679,0.07-1.195c0-0.516-0.024-0.914-0.07-1.195l-0.07-0.562l2.742-2.461l-1.617-2.672l-3.516,1.195L18.07,6.75
		c-0.657-0.516-1.383-0.914-2.18-1.195l-0.492-0.141l-0.773-3.516h-3.234l-0.773,3.516l-0.492,0.141
		C9.422,5.836,8.719,6.234,8.016,6.75L7.594,7.102L4.078,5.906L2.461,8.648l2.742,2.391l-0.07,0.492
		c-0.095,0.562-0.141,0.961-0.141,1.195c0,0.235,0.046,0.633,0.141,1.195l0.07,0.492l-2.742,2.461l1.617,2.602l3.516-1.125
		l0.352,0.352c0.656,0.517,1.382,0.914,2.18,1.195l0.492,0.141L11.391,23.555z M15.891,15.609c-0.798,0.798-1.758,1.195-2.883,1.195
		s-2.086-0.397-2.883-1.195c-0.798-0.797-1.195-1.758-1.195-2.883s0.397-2.085,1.195-2.883c0.796-0.797,1.758-1.195,2.883-1.195
		s2.085,0.398,2.883,1.195c0.796,0.798,1.195,1.758,1.195,2.883S16.687,14.812,15.891,15.609z M14.555,11.18
		c-0.422-0.422-0.938-0.633-1.547-0.633c-0.61,0-1.125,0.211-1.547,0.633s-0.633,0.938-0.633,1.547c0,0.609,0.211,1.125,0.633,1.547
		s0.937,0.633,1.547,0.633c0.608,0,1.125-0.211,1.547-0.633s0.633-0.938,0.633-1.547C15.188,12.118,14.977,11.602,14.555,11.18z"/>
</g>
<g id="Layer_1">
</g>
</svg>
