<?xml version="1.0" encoding="iso-8859-1"?>
<!-- Generator: Adobe Illustrator 18.0.0, SVG Export Plug-In . SVG Version: 6.00 Build 0)  -->
<!DOCTYPE svg PUBLIC "-//W3C//DTD SVG 1.1//EN" "http://www.w3.org/Graphics/SVG/1.1/DTD/svg11.dtd">
<svg version="1.1" xmlns="http://www.w3.org/2000/svg" xmlns:xlink="http://www.w3.org/1999/xlink" x="0px" y="0px"
	 viewBox="0 0 28.758 19.125" style="enable-background:new 0 0 28.758 19.125;" xml:space="preserve">
<g id="Layer_25">
	<path d="M9.773,1.02C11.32,0.341,12.843,0,14.344,0c1.5,0,3.012,0.328,4.535,0.984c1.522,0.657,2.848,1.453,3.973,2.391
		c1.125,0.938,2.155,1.875,3.094,2.812c0.938,0.938,1.641,1.734,2.109,2.391l0.703,0.984c-0.188,0.281-0.434,0.633-0.738,1.055
		c-0.306,0.422-0.974,1.185-2.004,2.285c-1.031,1.102-2.086,2.074-3.164,2.918c-1.079,0.844-2.391,1.606-3.938,2.285
		c-1.547,0.68-3.07,1.02-4.57,1.02c-1.501,0-3.013-0.327-4.535-0.984c-1.523-0.656-2.848-1.452-3.973-2.391
		c-1.125-0.938-2.145-1.874-3.059-2.812C1.863,12,1.171,11.204,0.703,10.547L0,9.562C0.187,9.281,0.433,8.93,0.738,8.508
		c0.305-0.422,0.973-1.184,2.004-2.285c1.03-1.101,2.074-2.074,3.129-2.918S8.227,1.699,9.773,1.02z M10.125,13.781
		c1.171,1.172,2.577,1.758,4.219,1.758c1.641,0,3.047-0.586,4.219-1.758c1.171-1.171,1.758-2.577,1.758-4.219
		c0-1.641-0.587-3.047-1.758-4.219c-1.172-1.171-2.578-1.758-4.219-1.758c-1.642,0-3.048,0.587-4.219,1.758
		C8.953,6.516,8.367,7.922,8.367,9.562C8.367,11.204,8.953,12.61,10.125,13.781z M12.305,11.602
		c-0.562-0.562-0.844-1.241-0.844-2.039c0-0.797,0.281-1.477,0.844-2.039s1.241-0.844,2.039-0.844c0.797,0,1.477,0.281,2.039,0.844
		s0.844,1.242,0.844,2.039c0,0.798-0.281,1.477-0.844,2.039s-1.242,0.844-2.039,0.844C13.546,12.445,12.867,12.164,12.305,11.602z"
		/>
</g>
<g id="Layer_1">
</g>
</svg>
