<?xml version="1.0" encoding="iso-8859-1"?>
<!-- Generator: Adobe Illustrator 18.0.0, SVG Export Plug-In . SVG Version: 6.00 Build 0)  -->
<!DOCTYPE svg PUBLIC "-//W3C//DTD SVG 1.1//EN" "http://www.w3.org/Graphics/SVG/1.1/DTD/svg11.dtd">
<svg version="1.1" xmlns="http://www.w3.org/2000/svg" xmlns:xlink="http://www.w3.org/1999/xlink" x="0px" y="0px"
	 viewBox="0 0 19.617 25.805" style="enable-background:new 0 0 19.617 25.805;" xml:space="preserve">
<g id="ico-redo">
	<path d="M10.406,25.805c-2.86,0-5.309-1.02-7.348-3.059S0,18.235,0,15.328C0,12.47,1.007,10.02,3.023,7.98
		c2.015-2.039,4.476-3.059,7.383-3.059h7.805V6.82h-7.805C8.062,6.774,6.058,7.594,4.395,9.281
		c-1.665,1.688-2.496,3.703-2.496,6.047c0,2.345,0.832,4.359,2.496,6.047c1.663,1.688,3.667,2.531,6.012,2.531
		c2.343,0,4.359-0.844,6.047-2.531l1.336,1.336C15.82,24.774,13.359,25.805,10.406,25.805z M13.711,11.672l-1.336-1.336l4.5-4.5
		l-4.5-4.5L13.711,0l5.906,5.836L13.711,11.672z"/>
</g>
<g id="Layer_1">
</g>
</svg>
