<?xml version="1.0" encoding="iso-8859-1"?>
<!-- Generator: Adobe Illustrator 18.0.0, SVG Export Plug-In . SVG Version: 6.00 Build 0)  -->
<!DOCTYPE svg PUBLIC "-//W3C//DTD SVG 1.1//EN" "http://www.w3.org/Graphics/SVG/1.1/DTD/svg11.dtd">
<svg version="1.1" xmlns="http://www.w3.org/2000/svg" xmlns:xlink="http://www.w3.org/1999/xlink" x="0px" y="0px"
	 viewBox="0 0 27.071 27.07" style="enable-background:new 0 0 27.071 27.07;" xml:space="preserve">
<g id="ico-rss">
	<path d="M0.984,26.086C0.327,25.43,0,24.634,0,23.695c0-0.938,0.327-1.733,0.984-2.391c0.656-0.656,1.452-0.984,2.391-0.984
		c0.938,0,1.733,0.328,2.391,0.984c0.656,0.657,0.984,1.453,0.984,2.391c0,0.938-0.328,1.734-0.984,2.391
		c-0.657,0.656-1.453,0.984-2.391,0.984C2.437,27.07,1.641,26.742,0.984,26.086z M1.969,0c6.937,0,12.867,2.461,17.789,7.383
		s7.358,10.853,7.312,17.789h-4.852c0-5.625-1.969-10.417-5.906-14.379C12.375,6.832,7.594,4.852,1.969,4.852V0z M1.969,9.703
		c4.265,0,7.91,1.512,10.934,4.535s4.535,6.669,4.535,10.934h-4.852c0-2.953-1.044-5.473-3.129-7.559
		c-2.086-2.085-4.582-3.129-7.488-3.129V9.703z"/>
</g>
<g id="Layer_1">
</g>
</svg>
