<?xml version="1.0" encoding="iso-8859-1"?>
<!-- Generator: Adobe Illustrator 18.0.0, SVG Export Plug-In . SVG Version: 6.00 Build 0)  -->
<!DOCTYPE svg PUBLIC "-//W3C//DTD SVG 1.1//EN" "http://www.w3.org/Graphics/SVG/1.1/DTD/svg11.dtd">
<svg version="1.1" xmlns="http://www.w3.org/2000/svg" xmlns:xlink="http://www.w3.org/1999/xlink" x="0px" y="0px"
	 viewBox="0 0 25.453 25.312" style="enable-background:new 0 0 25.453 25.312;" xml:space="preserve">
<g id="ico-save">
	<path d="M18.914,0h6.539v25.312H0V4.852L4.852,0h1.758H18.914z M23.625,23.414V1.898h-4.711v5.203H6.609V1.898H5.555L1.898,5.625
		v17.789H23.625z M9.035,11.145c1.008-1.008,2.238-1.512,3.691-1.512c1.452,0,2.683,0.504,3.691,1.512
		c1.008,1.009,1.512,2.239,1.512,3.691c0,1.453-0.504,2.684-1.512,3.691c-1.009,1.009-2.239,1.512-3.691,1.512
		c-1.453,0-2.684-0.503-3.691-1.512c-1.009-1.008-1.512-2.238-1.512-3.691C7.523,13.384,8.026,12.153,9.035,11.145z M17.086,1.898
		H8.438v3.305h8.648V1.898z M12.727,18.141c0.938,0,1.733-0.327,2.391-0.984c0.656-0.656,0.984-1.43,0.984-2.32
		c0-0.89-0.341-1.676-1.02-2.355c-0.68-0.679-1.466-1.02-2.355-1.02c-0.891,0-1.664,0.328-2.32,0.984
		c-0.657,0.657-0.984,1.453-0.984,2.391c0,0.891,0.327,1.664,0.984,2.32C11.062,17.813,11.836,18.141,12.727,18.141z"/>
</g>
<g id="Layer_1">
</g>
</svg>
