<?xml version="1.0" encoding="iso-8859-1"?>
<!-- Generator: Adobe Illustrator 18.0.0, SVG Export Plug-In . SVG Version: 6.00 Build 0)  -->
<!DOCTYPE svg PUBLIC "-//W3C//DTD SVG 1.1//EN" "http://www.w3.org/Graphics/SVG/1.1/DTD/svg11.dtd">
<svg version="1.1" xmlns="http://www.w3.org/2000/svg" xmlns:xlink="http://www.w3.org/1999/xlink" x="0px" y="0px"
	 viewBox="0 0 26.719 25.945" style="enable-background:new 0 0 26.719 25.945;" xml:space="preserve">
<g id="Layer_80">
	<path d="M26.719,24.047l-1.898,1.898l-6.891-6.891c-2.109,1.782-4.477,2.672-7.102,2.672c-3,0-5.555-1.055-7.664-3.164
		S0,13.876,0,10.828c0-3.047,1.055-5.613,3.164-7.699C5.273,1.044,7.828,0,10.828,0c2.999,0,5.555,1.044,7.664,3.129
		c2.109,2.086,3.164,4.652,3.164,7.699c0,2.204-0.657,4.266-1.969,6.188L26.719,24.047z M5.027,16.629
		c1.57,1.571,3.503,2.355,5.801,2.355c2.296,0,4.229-0.784,5.801-2.355c1.57-1.57,2.355-3.504,2.355-5.801
		c0-2.296-0.786-4.219-2.355-5.766c-1.571-1.547-3.505-2.32-5.801-2.32c-2.297,0-4.231,0.773-5.801,2.32
		c-1.571,1.547-2.355,3.47-2.355,5.766C2.672,13.125,3.456,15.059,5.027,16.629z"/>
</g>
<g id="Layer_1">
</g>
</svg>
