<?xml version="1.0" encoding="iso-8859-1"?>
<!-- Generator: Adobe Illustrator 18.0.0, SVG Export Plug-In . SVG Version: 6.00 Build 0)  -->
<!DOCTYPE svg PUBLIC "-//W3C//DTD SVG 1.1//EN" "http://www.w3.org/Graphics/SVG/1.1/DTD/svg11.dtd">
<svg version="1.1" xmlns="http://www.w3.org/2000/svg" xmlns:xlink="http://www.w3.org/1999/xlink" x="0px" y="0px"
	 viewBox="0 0 28.617 27.703" style="enable-background:new 0 0 28.617 27.703;" xml:space="preserve">
<g id="ico-search">
	<path d="M28.617,26.508l-1.195,1.195l-8.648-8.648c-2.204,2.063-4.758,3.094-7.664,3.094c-3.048,0-5.66-1.09-7.84-3.27
		S0,14.087,0,11.039c0-3.047,1.09-5.648,3.27-7.805C5.449,1.079,8.062,0,11.109,0c3.047,0,5.648,1.079,7.805,3.234
		c2.155,2.156,3.234,4.758,3.234,7.805c0,2.485-0.75,4.735-2.25,6.75L28.617,26.508z M11.109,20.391c2.625,0,4.84-0.902,6.645-2.707
		c1.804-1.804,2.707-4.019,2.707-6.645c0-2.625-0.903-4.84-2.707-6.645c-1.805-1.804-4.02-2.707-6.645-2.707
		c-2.626,0-4.841,0.903-6.645,2.707c-1.805,1.805-2.707,4.02-2.707,6.645c0,2.578,0.914,4.781,2.742,6.609
		S8.531,20.391,11.109,20.391z"/>
</g>
<g id="Layer_1">
</g>
</svg>
