<?xml version="1.0" encoding="iso-8859-1"?>
<!-- Generator: Adobe Illustrator 18.0.0, SVG Export Plug-In . SVG Version: 6.00 Build 0)  -->
<!DOCTYPE svg PUBLIC "-//W3C//DTD SVG 1.1//EN" "http://www.w3.org/Graphics/SVG/1.1/DTD/svg11.dtd">
<svg version="1.1" xmlns="http://www.w3.org/2000/svg" xmlns:xlink="http://www.w3.org/1999/xlink" x="0px" y="0px"
	 viewBox="0 0 28.758 28.688" style="enable-background:new 0 0 28.758 28.688;" xml:space="preserve">
<g id="ico-skype-circle">
	<path d="M4.184,4.184C6.972,1.396,10.359,0,14.344,0c3.983,0,7.383,1.396,10.195,4.184c2.812,2.789,4.219,6.177,4.219,10.16
		c0,3.984-1.406,7.372-4.219,10.16c-2.812,2.789-6.212,4.184-10.195,4.184c-3.985,0-7.372-1.395-10.16-4.184
		C1.394,21.716,0,18.328,0,14.344C0,10.36,1.394,6.973,4.184,4.184z M5.484,23.238c2.437,2.461,5.39,3.691,8.859,3.691
		c3.468,0,6.434-1.241,8.895-3.727c2.461-2.484,3.691-5.438,3.691-8.859c0-3.421-1.23-6.374-3.691-8.859
		C20.777,3,17.812,1.758,14.344,1.758c-3.422,0-6.363,1.23-8.824,3.691s-3.691,5.426-3.691,8.895
		C1.828,17.813,3.046,20.777,5.484,23.238z M21.445,15.82c0.281,0.517,0.468,1.195,0.562,2.039c0,1.172-0.422,2.18-1.266,3.023
		c-0.798,0.798-1.782,1.195-2.953,1.195c-0.798,0-1.501-0.164-2.109-0.492h0.07l-0.141-0.07v0.07h0.07
		c-0.281,0.047-0.703,0.07-1.266,0.07c-0.938,0-1.853-0.187-2.742-0.562c-0.798-0.327-1.547-0.844-2.25-1.547
		c-0.657-0.562-1.172-1.312-1.547-2.25c-0.422-0.844-0.633-1.781-0.633-2.812c0-0.234,0.046-0.633,0.141-1.195v0.07v-0.141v0.07
		C7.007,12.633,6.82,11.953,6.82,11.25c0-1.171,0.422-2.18,1.266-3.023c0.796-0.797,1.781-1.195,2.953-1.195
		c0.703,0,1.359,0.165,1.969,0.492h-0.07h0.141h-0.07c0.327-0.094,0.796-0.141,1.406-0.141c0.937,0,1.851,0.188,2.742,0.562
		c0.796,0.328,1.547,0.844,2.25,1.547c0.656,0.562,1.171,1.312,1.547,2.25c0.422,0.844,0.633,1.782,0.633,2.812
		C21.586,14.836,21.539,15.258,21.445,15.82v-0.07v0.141V15.82z M11.707,18.211c0.633,0.469,1.535,0.703,2.707,0.703
		c1.171,0,2.074-0.257,2.707-0.773c0.633-0.516,0.949-1.195,0.949-2.039c0-1.266-0.773-2.085-2.32-2.461l-1.688-0.352
		c-0.891-0.187-1.336-0.516-1.336-0.984c0-0.656,0.468-0.984,1.406-0.984c0.703,0,1.266,0.223,1.688,0.668
		c0.422,0.446,0.749,0.668,0.984,0.668c0.562,0,0.844-0.281,0.844-0.844c0-0.516-0.364-0.973-1.09-1.371
		c-0.728-0.397-1.489-0.598-2.285-0.598c-0.938,0-1.758,0.211-2.461,0.633s-1.055,1.079-1.055,1.969c0,1.22,0.726,2.016,2.18,2.391
		l2.25,0.562c0.562,0.188,0.844,0.492,0.844,0.914c0,0.75-0.54,1.125-1.617,1.125c-0.75,0-1.336-0.257-1.758-0.773
		c-0.422-0.516-0.773-0.773-1.055-0.773c-0.562,0-0.844,0.281-0.844,0.844C10.758,17.251,11.074,17.743,11.707,18.211z"/>
</g>
<g id="Layer_1">
</g>
</svg>
