<?xml version="1.0" encoding="iso-8859-1"?>
<!-- Generator: Adobe Illustrator 18.0.0, SVG Export Plug-In . SVG Version: 6.00 Build 0)  -->
<!DOCTYPE svg PUBLIC "-//W3C//DTD SVG 1.1//EN" "http://www.w3.org/Graphics/SVG/1.1/DTD/svg11.dtd">
<svg version="1.1" xmlns="http://www.w3.org/2000/svg" xmlns:xlink="http://www.w3.org/1999/xlink" x="0px" y="0px"
	 viewBox="0 0 25.242 25.172" style="enable-background:new 0 0 25.242 25.172;" xml:space="preserve">
<g id="ico-skype">
	<path d="M24.398,14.695c0.562,0.938,0.844,2.086,0.844,3.445c0,1.969-0.68,3.633-2.039,4.992c-1.36,1.36-3.023,2.039-4.992,2.039
		c-1.313,0-2.485-0.305-3.516-0.914h0.141l-0.211-0.07l0.07,0.07c-0.703,0.141-1.383,0.211-2.039,0.211
		c-1.547,0-3.094-0.327-4.641-0.984c-1.547-0.703-2.812-1.547-3.797-2.531s-1.828-2.25-2.531-3.797
		c-0.657-1.547-0.984-3.094-0.984-4.641c0-0.938,0.046-1.617,0.141-2.039v0.07c0,0.047,0.023,0.07,0.07,0.07v-0.352v0.141
		C0.304,9.281,0,8.156,0,7.031c0-1.969,0.703-3.609,2.109-4.922C3.516,0.703,5.179,0,7.102,0c1.218,0,2.32,0.281,3.305,0.844h-0.141
		l0.281,0.07h-0.07c-0.047,0-0.07-0.023-0.07-0.07c0.796-0.141,1.547-0.211,2.25-0.211c1.688,0,3.234,0.306,4.641,0.914
		c1.547,0.703,2.812,1.547,3.797,2.531s1.828,2.25,2.531,3.797c0.656,1.547,0.984,3.094,0.984,4.641
		C24.609,13.266,24.539,13.992,24.398,14.695l-0.07-0.07v-0.07v0.281C24.374,14.79,24.398,14.742,24.398,14.695z M8.191,18.668
		c1.101,0.773,2.612,1.16,4.535,1.16c1.921,0,3.398-0.422,4.43-1.266c1.03-0.844,1.547-1.944,1.547-3.305
		c0-2.155-1.29-3.562-3.867-4.219l-2.742-0.633c-1.547-0.327-2.32-0.844-2.32-1.547c0-1.125,0.819-1.688,2.461-1.688
		c1.171,0,2.097,0.363,2.777,1.09c0.679,0.728,1.206,1.09,1.582,1.09c1.03,0,1.547-0.422,1.547-1.266c0-0.89-0.61-1.676-1.828-2.355
		c-1.22-0.679-2.508-1.02-3.867-1.02c-1.594,0-2.978,0.363-4.148,1.09c-1.172,0.728-1.758,1.84-1.758,3.34
		c0,2.016,1.195,3.329,3.586,3.938l3.797,0.914c0.984,0.235,1.477,0.75,1.477,1.547c0,0.517-0.246,0.961-0.738,1.336
		c-0.492,0.376-1.16,0.562-2.004,0.562c-0.984,0-1.735-0.222-2.25-0.668c-0.517-0.445-0.938-0.879-1.266-1.301
		c-0.329-0.422-0.728-0.633-1.195-0.633c-0.938,0-1.406,0.446-1.406,1.336C6.539,17.062,7.089,17.895,8.191,18.668z"/>
</g>
<g id="Layer_1">
</g>
</svg>
