<?xml version="1.0" encoding="iso-8859-1"?>
<!-- Generator: Adobe Illustrator 18.0.0, SVG Export Plug-In . SVG Version: 6.00 Build 0)  -->
<!DOCTYPE svg PUBLIC "-//W3C//DTD SVG 1.1//EN" "http://www.w3.org/Graphics/SVG/1.1/DTD/svg11.dtd">
<svg version="1.1" xmlns="http://www.w3.org/2000/svg" xmlns:xlink="http://www.w3.org/1999/xlink" x="0px" y="0px"
	 viewBox="0 0 25.759 25.412" style="enable-background:new 0 0 25.759 25.412;" xml:space="preserve">
<g id="Layer_12">
	<path d="M24.123,9.747c0.656,0.141,1.125,0.398,1.406,0.773c0.281,0.376,0.305,0.914,0.07,1.617
		c-0.235,0.703-0.75,1.523-1.547,2.461c-1.079,1.312-2.696,2.274-4.852,2.883c-0.141,0.095-0.211,0.165-0.211,0.211
		c0.094,1.453,0.281,3.259,0.562,5.414c0.094,1.22-0.328,1.958-1.266,2.215c-0.938,0.258-2.204-0.035-3.797-0.879
		c-1.594-0.844-3.164-1.922-4.711-3.234c-0.095-0.094-0.211-0.094-0.352,0c-0.562,0.469-1.782,1.336-3.656,2.602
		c-0.798,0.517-1.501,0.587-2.109,0.211c-0.609-0.375-1.079-1.078-1.406-2.109c-0.609-2.155-0.446-4.922,0.492-8.297
		c0.046-0.234,0.023-0.422-0.07-0.562C1.036,10.708,0.146,8.341,0.006,5.95C-0.04,4.825,0.192,3.993,0.709,3.454
		c0.516-0.538,1.055-0.644,1.617-0.316c1.687,0.938,3.258,1.547,4.711,1.828c0.141,0.047,0.281,0,0.422-0.141
		c1.781-2.063,3.632-3.539,5.555-4.43c1.219-0.516,2.133-0.527,2.742-0.035c0.608,0.492,0.984,1.16,1.125,2.004
		c0.094,0.609,0.246,1.594,0.457,2.953c0.211,1.36,0.387,2.391,0.527,3.094c0.046,0.095,0.094,0.165,0.141,0.211
		C18.755,8.81,20.794,9.185,24.123,9.747z M15.193,15.372l0.633,0.422l-0.07-0.07c-0.376-0.375-0.539-0.867-0.492-1.477
		l-0.211,0.633c0,0.095,0,0.165,0,0.211c-2.578,1.875-4.735,2.531-6.469,1.969c-1.501-0.468-2.438-2.133-2.812-4.992l0.703-0.633
		h-0.07c-0.422,0.376-0.914,0.562-1.477,0.562l0.492,0.211h0.07c0.468,3.188,1.382,5.017,2.742,5.484
		C10.201,18.35,12.521,17.576,15.193,15.372z M7.388,10.31c-0.141,1.688,0.257,2.672,1.195,2.953c0.797,0.141,1.57-0.257,2.32-1.195
		c-0.095,1.501,0.375,2.367,1.406,2.602c0.608,0.141,1.184-0.046,1.723-0.562c0.538-0.516,0.925-1.219,1.16-2.109
		c0.703-2.484,0.352-3.983-1.055-4.5c-0.657-0.234-1.336,0.047-2.039,0.844c-0.188-1.359-0.703-2.133-1.547-2.32
		C9.895,5.927,9.227,6.326,8.549,7.216C7.869,8.107,7.482,9.139,7.388,10.31z M9.99,10.029C9.614,9.983,9.544,9.49,9.779,8.552
		c0.094-0.468,0.257-0.832,0.492-1.09c0.234-0.257,0.445-0.34,0.633-0.246c0.468,0.188,0.516,0.798,0.141,1.828
		C10.717,9.747,10.365,10.075,9.99,10.029z M10.763,7.568c-0.235,0-0.352,0.117-0.352,0.352c0,0.235,0.116,0.352,0.352,0.352
		c0.187,0,0.281-0.116,0.281-0.352C11.045,7.685,10.95,7.568,10.763,7.568z M13.857,11.505c-0.469-0.046-0.587-0.538-0.352-1.477
		c0.046-0.468,0.176-0.832,0.387-1.09c0.211-0.257,0.41-0.362,0.598-0.316c0.516,0.095,0.608,0.68,0.281,1.758
		c-0.095,0.281-0.223,0.552-0.387,0.809C14.22,11.446,14.044,11.552,13.857,11.505z M14.42,9.044c-0.328,0-0.446,0.117-0.352,0.352
		c0,0.188,0.116,0.281,0.352,0.281c0.234,0,0.352-0.094,0.352-0.281C14.771,9.161,14.654,9.044,14.42,9.044z"/>
</g>
<g id="Layer_1">
</g>
</svg>
