<?xml version="1.0" encoding="iso-8859-1"?>
<!-- Generator: Adobe Illustrator 18.0.0, SVG Export Plug-In . SVG Version: 6.00 Build 0)  -->
<!DOCTYPE svg PUBLIC "-//W3C//DTD SVG 1.1//EN" "http://www.w3.org/Graphics/SVG/1.1/DTD/svg11.dtd">
<svg version="1.1" xmlns="http://www.w3.org/2000/svg" xmlns:xlink="http://www.w3.org/1999/xlink" x="0px" y="0px"
	 viewBox="0 0 28.828 28.828" style="enable-background:new 0 0 28.828 28.828;" xml:space="preserve">
<g id="ico-stop">
	<path d="M4.219,4.219C7.031,1.406,10.43,0,14.414,0c3.983,0,7.383,1.406,10.195,4.219s4.219,6.212,4.219,10.195
		c0,3.984-1.406,7.383-4.219,10.195s-6.212,4.219-10.195,4.219c-3.984,0-7.383-1.406-10.195-4.219S0,18.398,0,14.414
		C0,10.431,1.406,7.031,4.219,4.219z M14.414,1.969c-3.47,0-6.423,1.22-8.859,3.656c-2.438,2.438-3.656,5.368-3.656,8.789
		c0,3.422,1.23,6.363,3.691,8.824s5.402,3.691,8.824,3.691c3.421,0,6.352-1.219,8.789-3.656c2.437-2.437,3.656-5.39,3.656-8.859
		c0-3.421-1.22-6.352-3.656-8.789C20.766,3.188,17.835,1.969,14.414,1.969z M9.562,19.266V9.633h9.492v9.633H9.562z"/>
</g>
<g id="Layer_1">
</g>
</svg>
