<?xml version="1.0" encoding="iso-8859-1"?>
<!-- Generator: Adobe Illustrator 18.0.0, SVG Export Plug-In . SVG Version: 6.00 Build 0)  -->
<!DOCTYPE svg PUBLIC "-//W3C//DTD SVG 1.1//EN" "http://www.w3.org/Graphics/SVG/1.1/DTD/svg11.dtd">
<svg version="1.1" xmlns="http://www.w3.org/2000/svg" xmlns:xlink="http://www.w3.org/1999/xlink" x="0px" y="0px"
	 viewBox="0 0 28.758 24.68" style="enable-background:new 0 0 28.758 24.68;" xml:space="preserve">
<g id="ico-text-bubble">
	<path d="M0,0h28.758v18.492H14.203L6.961,24.68v-6.188H0V0z M6.961,16.594h1.898v1.898v2.039l4.078-3.516l0.492-0.422h0.773h12.586
		V1.898H1.898v14.695H6.961z M7.84,10.301c-0.306-0.304-0.457-0.668-0.457-1.09s0.151-0.784,0.457-1.09
		c0.305-0.304,0.668-0.457,1.09-0.457s0.797,0.153,1.125,0.457c0.327,0.306,0.492,0.668,0.492,1.09s-0.165,0.786-0.492,1.09
		c-0.328,0.306-0.703,0.457-1.125,0.457S8.145,10.606,7.84,10.301z M13.254,10.301c-0.306-0.304-0.457-0.668-0.457-1.09
		s0.151-0.784,0.457-1.09c0.305-0.304,0.668-0.457,1.09-0.457s0.784,0.153,1.09,0.457c0.305,0.306,0.457,0.668,0.457,1.09
		s-0.152,0.786-0.457,1.09c-0.306,0.306-0.668,0.457-1.09,0.457S13.559,10.606,13.254,10.301z M18.668,10.301
		c-0.306-0.304-0.457-0.668-0.457-1.09s0.151-0.784,0.457-1.09c0.305-0.304,0.668-0.457,1.09-0.457s0.784,0.153,1.09,0.457
		c0.305,0.306,0.457,0.668,0.457,1.09s-0.152,0.786-0.457,1.09c-0.306,0.306-0.668,0.457-1.09,0.457S18.973,10.606,18.668,10.301z"
		/>
</g>
<g id="Layer_1">
</g>
</svg>
