<?xml version="1.0" encoding="iso-8859-1"?>
<!-- Generator: Adobe Illustrator 18.0.0, SVG Export Plug-In . SVG Version: 6.00 Build 0)  -->
<!DOCTYPE svg PUBLIC "-//W3C//DTD SVG 1.1//EN" "http://www.w3.org/Graphics/SVG/1.1/DTD/svg11.dtd">
<svg version="1.1" xmlns="http://www.w3.org/2000/svg" xmlns:xlink="http://www.w3.org/1999/xlink" x="0px" y="0px"
	 viewBox="0 0 28.688 23.766" style="enable-background:new 0 0 28.688 23.766;" xml:space="preserve">
<g id="ico-trash">
	<path d="M23.344,6.539h5.344v2.883h-1.969L24.82,23.766H3.797L1.898,9.422H0V6.539h5.273L11.812,0l1.336,1.336L8.016,6.469h12.656
		l-5.203-5.133L16.805,0L23.344,6.539z M5.484,21.797h17.719l1.477-11.461H3.938L5.484,21.797z M8.789,19.898v-6.68h1.055v6.68
		H8.789z M11.953,19.898v-6.68h1.125v6.68H11.953z M15.258,19.898v-6.68h1.055v6.68H15.258z M18.422,19.898v-6.68h1.125v6.68H18.422
		z"/>
</g>
<g id="Layer_1">
</g>
</svg>
