<?xml version="1.0" encoding="iso-8859-1"?>
<!-- Generator: Adobe Illustrator 18.0.0, SVG Export Plug-In . SVG Version: 6.00 Build 0)  -->
<!DOCTYPE svg PUBLIC "-//W3C//DTD SVG 1.1//EN" "http://www.w3.org/Graphics/SVG/1.1/DTD/svg11.dtd">
<svg version="1.1" xmlns="http://www.w3.org/2000/svg" xmlns:xlink="http://www.w3.org/1999/xlink" x="0px" y="0px"
	 viewBox="0 0 28.758 28.688" style="enable-background:new 0 0 28.758 28.688;" xml:space="preserve">
<g id="ico-twitter-circle">
	<path d="M4.184,4.184C6.972,1.396,10.359,0,14.344,0c3.983,0,7.383,1.396,10.195,4.184c2.812,2.789,4.219,6.177,4.219,10.16
		c0,3.984-1.406,7.372-4.219,10.16c-2.812,2.789-6.212,4.184-10.195,4.184c-3.985,0-7.372-1.395-10.16-4.184
		C1.394,21.716,0,18.328,0,14.344C0,10.36,1.394,6.973,4.184,4.184z M5.484,23.238c2.437,2.461,5.39,3.691,8.859,3.691
		c3.468,0,6.434-1.241,8.895-3.727c2.461-2.484,3.691-5.438,3.691-8.859c0-3.421-1.23-6.374-3.691-8.859
		C20.777,3,17.812,1.758,14.344,1.758c-3.422,0-6.363,1.23-8.824,3.691s-3.691,5.426-3.691,8.895
		C1.828,17.813,3.046,20.777,5.484,23.238z M22.008,9.562c-0.376,0.609-0.914,1.172-1.617,1.688v0.352
		c0,2.297-0.833,4.395-2.496,6.293c-1.665,1.898-3.856,2.848-6.574,2.848c-1.782,0-3.422-0.492-4.922-1.477
		c0.187,0.047,0.445,0.07,0.773,0.07c1.452,0,2.765-0.468,3.938-1.406c-1.501-0.094-2.485-0.819-2.953-2.18
		c0.141,0.047,0.327,0.07,0.562,0.07c0.187,0,0.468-0.046,0.844-0.141c-0.703-0.141-1.301-0.503-1.793-1.09
		c-0.492-0.586-0.738-1.254-0.738-2.004v-0.07c0.422,0.281,0.89,0.422,1.406,0.422c-0.938-0.608-1.406-1.5-1.406-2.672
		c0-0.608,0.141-1.148,0.422-1.617c1.688,2.063,3.89,3.164,6.609,3.305c-0.047-0.141-0.07-0.375-0.07-0.703
		c0-0.89,0.316-1.641,0.949-2.25c0.633-0.608,1.394-0.914,2.285-0.914c0.984,0,1.758,0.328,2.32,0.984
		c0.656-0.141,1.336-0.397,2.039-0.773c-0.281,0.703-0.75,1.29-1.406,1.758C20.883,9.961,21.491,9.798,22.008,9.562z"/>
</g>
<g id="Layer_1">
</g>
</svg>
