<?xml version="1.0" encoding="iso-8859-1"?>
<!-- Generator: Adobe Illustrator 18.0.0, SVG Export Plug-In . SVG Version: 6.00 Build 0)  -->
<!DOCTYPE svg PUBLIC "-//W3C//DTD SVG 1.1//EN" "http://www.w3.org/Graphics/SVG/1.1/DTD/svg11.dtd">
<svg version="1.1" xmlns="http://www.w3.org/2000/svg" xmlns:xlink="http://www.w3.org/1999/xlink" x="0px" y="0px"
	 viewBox="0 0 28.758 23.344" style="enable-background:new 0 0 28.758 23.344;" xml:space="preserve">
<g id="ico-twitter">
	<path d="M28.758,2.742c-0.703,1.079-1.665,2.109-2.883,3.094v0.703c0,4.266-1.524,8.133-4.57,11.602
		c-3.048,3.47-7.126,5.203-12.234,5.203c-3.375,0-6.398-0.867-9.07-2.602c0.327,0.047,0.796,0.07,1.406,0.07
		c2.765,0,5.203-0.844,7.312-2.531c-1.266-0.046-2.403-0.457-3.41-1.23c-1.009-0.773-1.7-1.746-2.074-2.918
		c0.468,0.095,0.844,0.141,1.125,0.141c0.562,0,1.078-0.07,1.547-0.211c-1.36-0.281-2.496-0.973-3.41-2.074
		c-0.914-1.101-1.371-2.355-1.371-3.762v-0.07c0.703,0.422,1.593,0.68,2.672,0.773C2.062,7.805,1.195,6.164,1.195,4.008
		c0-1.078,0.257-2.062,0.773-2.953c3.14,3.892,7.195,5.953,12.164,6.188c-0.095-0.281-0.141-0.727-0.141-1.336
		c0-1.641,0.573-3.034,1.723-4.184C16.863,0.574,18.257,0,19.898,0c1.781,0,3.234,0.609,4.359,1.828
		c1.5-0.327,2.742-0.797,3.727-1.406c-0.422,1.36-1.29,2.438-2.602,3.234C26.648,3.516,27.773,3.211,28.758,2.742z"/>
</g>
<g id="Layer_1">
</g>
</svg>
