<?xml version="1.0" encoding="iso-8859-1"?>
<!-- Generator: Adobe Illustrator 18.0.0, SVG Export Plug-In . SVG Version: 6.00 Build 0)  -->
<!DOCTYPE svg PUBLIC "-//W3C//DTD SVG 1.1//EN" "http://www.w3.org/Graphics/SVG/1.1/DTD/svg11.dtd">
<svg version="1.1" xmlns="http://www.w3.org/2000/svg" xmlns:xlink="http://www.w3.org/1999/xlink" x="0px" y="0px"
	 viewBox="0 0 28.759 21.656" style="enable-background:new 0 0 28.759 21.656;" xml:space="preserve">
<g id="ico-undo">
	<path d="M8.965,3.41C11.238,1.137,13.968,0,17.156,0c3.188,0,5.93,1.137,8.227,3.41c2.296,2.274,3.421,5.004,3.375,8.191
		c0,3.234-1.125,5.977-3.375,8.227l-1.266-1.336c1.874-1.828,2.812-4.124,2.812-6.891c0-2.718-0.949-5.027-2.848-6.926
		s-4.208-2.848-6.926-2.848c-2.719,0-5.027,0.949-6.926,2.848s-2.848,4.208-2.848,6.926v6.539l4.289-4.289l1.266,1.336l-6.469,6.469
		L0,15.188l1.266-1.336l4.289,4.289v-6.539C5.555,8.414,6.69,5.685,8.965,3.41z"/>
</g>
<g id="Layer_1">
</g>
</svg>
