<?xml version="1.0" encoding="iso-8859-1"?>
<!-- Generator: Adobe Illustrator 18.0.0, SVG Export Plug-In . SVG Version: 6.00 Build 0)  -->
<!DOCTYPE svg PUBLIC "-//W3C//DTD SVG 1.1//EN" "http://www.w3.org/Graphics/SVG/1.1/DTD/svg11.dtd">
<svg version="1.1" xmlns="http://www.w3.org/2000/svg" xmlns:xlink="http://www.w3.org/1999/xlink" x="0px" y="0px"
	 viewBox="0 0 21.094 28.758" style="enable-background:new 0 0 21.094 28.758;" xml:space="preserve">
<g id="ico-lock">
	<path d="M10.547,7.664c2.906,0,5.39,1.031,7.453,3.094c2.062,2.063,3.094,4.547,3.094,7.453c0,2.907-1.032,5.391-3.094,7.453
		c-2.063,2.062-4.547,3.094-7.453,3.094c-2.907,0-5.391-1.031-7.453-3.094C1.03,23.602,0,21.118,0,18.211
		c0-2.766,0.96-5.156,2.883-7.172V7.664c0-2.109,0.749-3.913,2.25-5.414C6.632,0.75,8.438,0,10.547,0s3.913,0.75,5.414,2.25
		l-1.336,1.406C13.5,2.531,12.14,1.969,10.547,1.969c-1.594,0-2.953,0.552-4.078,1.652c-1.125,1.102-1.688,2.45-1.688,4.043v1.688
		C6.562,8.227,8.483,7.664,10.547,7.664z M4.43,24.328c1.688,1.688,3.727,2.531,6.117,2.531s4.417-0.844,6.082-2.531
		c1.663-1.688,2.496-3.727,2.496-6.117s-0.833-4.418-2.496-6.082c-1.665-1.663-3.691-2.496-6.082-2.496s-4.43,0.833-6.117,2.496
		c-1.688,1.664-2.531,3.691-2.531,6.082S2.742,22.641,4.43,24.328z M12.727,14.695l1.336,1.336l-2.18,2.18l2.18,2.25l-1.336,1.336
		l-2.18-2.25l-2.18,2.25l-1.406-1.336l2.25-2.25l-2.25-2.18l1.406-1.336l2.18,2.18L12.727,14.695z"/>
</g>
<g id="Layer_1">
</g>
</svg>
