<?xml version="1.0" encoding="iso-8859-1"?>
<!-- Generator: Adobe Illustrator 18.0.0, SVG Export Plug-In . SVG Version: 6.00 Build 0)  -->
<!DOCTYPE svg PUBLIC "-//W3C//DTD SVG 1.1//EN" "http://www.w3.org/Graphics/SVG/1.1/DTD/svg11.dtd">
<svg version="1.1" xmlns="http://www.w3.org/2000/svg" xmlns:xlink="http://www.w3.org/1999/xlink" x="0px" y="0px"
	 viewBox="0 0 22.078 25.453" style="enable-background:new 0 0 22.078 25.453;" xml:space="preserve">
<g id="Layer_56">
	<path d="M20.391,8.508c0.468,0,0.854,0.165,1.16,0.492c0.304,0.328,0.48,0.728,0.527,1.195v6.82l-1.688,1.688v5.906
		c0,0.562-0.281,0.844-0.844,0.844h-3.375c-0.562,0-0.844-0.281-0.844-0.844V12.727l-4.289,4.289L6.82,12.727v11.883
		c0,0.562-0.306,0.844-0.914,0.844H2.531c-0.562,0-0.844-0.281-0.844-0.844v-5.906L0,17.016v-6.82C0,9.728,0.164,9.328,0.492,9
		c0.327-0.327,0.726-0.492,1.195-0.492H6.82l4.219,4.219l4.219-4.219H20.391z M1.828,0.984C2.484,0.328,3.28,0,4.219,0
		c0.937,0,1.746,0.328,2.426,0.984c0.679,0.657,1.02,1.453,1.02,2.391c0,0.938-0.341,1.734-1.02,2.391
		C5.964,6.423,5.156,6.75,4.219,6.75c-0.938,0-1.735-0.327-2.391-0.984C1.171,5.109,0.844,4.313,0.844,3.375
		C0.844,2.438,1.171,1.642,1.828,0.984z M4.219,1.055c-0.61,0-1.137,0.223-1.582,0.668C2.19,2.169,1.969,2.719,1.969,3.375
		c0,0.657,0.222,1.207,0.668,1.652c0.445,0.446,0.972,0.668,1.582,0.668c0.656,0,1.206-0.234,1.652-0.703
		c0.445-0.468,0.668-1.008,0.668-1.617c0-0.608-0.223-1.148-0.668-1.617C5.425,1.29,4.875,1.055,4.219,1.055z M15.398,0.984
		C16.054,0.328,16.851,0,17.789,0c0.937,0,1.746,0.328,2.426,0.984c0.679,0.657,1.02,1.453,1.02,2.391
		c0,0.938-0.341,1.734-1.02,2.391c-0.68,0.657-1.489,0.984-2.426,0.984c-0.938,0-1.735-0.327-2.391-0.984
		c-0.657-0.656-0.984-1.452-0.984-2.391C14.414,2.438,14.741,1.642,15.398,0.984z M19.406,1.758
		c-0.469-0.468-1.009-0.703-1.617-0.703c-0.61,0-1.137,0.223-1.582,0.668c-0.446,0.446-0.668,0.996-0.668,1.652
		c0,0.657,0.222,1.207,0.668,1.652c0.445,0.446,0.972,0.668,1.582,0.668c0.608,0,1.148-0.234,1.617-0.703
		c0.468-0.468,0.703-1.008,0.703-1.617C20.109,2.767,19.874,2.227,19.406,1.758z"/>
</g>
<g id="Layer_1">
</g>
</svg>
