<?xml version="1.0" encoding="iso-8859-1"?>
<!-- Generator: Adobe Illustrator 18.0.0, SVG Export Plug-In . SVG Version: 6.00 Build 0)  -->
<!DOCTYPE svg PUBLIC "-//W3C//DTD SVG 1.1//EN" "http://www.w3.org/Graphics/SVG/1.1/DTD/svg11.dtd">
<svg version="1.1" xmlns="http://www.w3.org/2000/svg" xmlns:xlink="http://www.w3.org/1999/xlink" x="0px" y="0px"
	 viewBox="0 0 8.446 25.312" style="enable-background:new 0 0 8.446 25.312;" xml:space="preserve">
<g id="Layer_66">
	<path d="M6.75,8.438c0.468,0,0.879,0.165,1.23,0.492c0.352,0.328,0.503,0.728,0.457,1.195v6.75L6.75,18.562v5.977
		c0,0.517-0.281,0.773-0.844,0.773H2.531c-0.562,0-0.844-0.257-0.844-0.773v-5.906L0,16.945v-6.82C0,9.657,0.164,9.258,0.492,8.93
		c0.327-0.327,0.726-0.492,1.195-0.492H6.75z M1.828,0.984C2.484,0.328,3.28,0,4.219,0c0.937,0,1.746,0.341,2.426,1.02
		c0.679,0.68,0.995,1.466,0.949,2.355c0,0.938-0.329,1.734-0.984,2.391C5.952,6.423,5.156,6.75,4.219,6.75
		c-0.938,0-1.735-0.327-2.391-0.984C1.171,5.109,0.844,4.313,0.844,3.375C0.844,2.438,1.171,1.642,1.828,0.984z M5.871,1.758
		C5.425,1.29,4.875,1.055,4.219,1.055c-0.657,0-1.208,0.235-1.652,0.703C2.12,2.227,1.898,2.767,1.898,3.375
		c0,0.609,0.222,1.149,0.668,1.617c0.445,0.469,0.995,0.703,1.652,0.703c0.656,0,1.206-0.234,1.652-0.703
		c0.445-0.468,0.668-1.008,0.668-1.617C6.539,2.767,6.316,2.227,5.871,1.758z"/>
</g>
<g id="Layer_1">
</g>
</svg>
