<?xml version="1.0" encoding="iso-8859-1"?>
<!-- Generator: Adobe Illustrator 18.0.0, SVG Export Plug-In . SVG Version: 6.00 Build 0)  -->
<!DOCTYPE svg PUBLIC "-//W3C//DTD SVG 1.1//EN" "http://www.w3.org/Graphics/SVG/1.1/DTD/svg11.dtd">
<svg version="1.1" xmlns="http://www.w3.org/2000/svg" xmlns:xlink="http://www.w3.org/1999/xlink" x="0px" y="0px"
	 viewBox="0 0 28.758 24.891" style="enable-background:new 0 0 28.758 24.891;" xml:space="preserve">
<g id="ico-warning">
	<path d="M27.281,22.289l1.477,2.602h-2.953H2.953H0l1.477-2.602L12.867,2.602L14.344,0l1.477,2.602L27.281,22.289z M2.953,23.203
		h22.781L14.344,3.445L2.953,23.203z M13.5,12.867V11.18h1.758v1.688l-0.492,4.289h-0.844L13.5,12.867z M13.5,18.914
		c0-0.608,0.281-0.914,0.844-0.914c0.608,0,0.914,0.306,0.914,0.914c0,0.562-0.306,0.844-0.914,0.844
		C13.781,19.758,13.5,19.477,13.5,18.914z"/>
</g>
<g id="Layer_1">
</g>
</svg>
