<?xml version="1.0" encoding="iso-8859-1"?>
<!-- Generator: Adobe Illustrator 18.0.0, SVG Export Plug-In . SVG Version: 6.00 Build 0)  -->
<!DOCTYPE svg PUBLIC "-//W3C//DTD SVG 1.1//EN" "http://www.w3.org/Graphics/SVG/1.1/DTD/svg11.dtd">
<svg version="1.1" xmlns="http://www.w3.org/2000/svg" xmlns:xlink="http://www.w3.org/1999/xlink" x="0px" y="0px"
	 viewBox="0 0 25.286 25.312" style="enable-background:new 0 0 25.286 25.312;" xml:space="preserve">
<g id="ico-wrench">
	<path d="M3.094,25.312c-0.891,0-1.617-0.281-2.18-0.844C0.304,23.86,0,23.122,0,22.254c0-0.867,0.304-1.605,0.914-2.215
		L11.953,8.93c-0.891-2.672-0.352-4.992,1.617-6.961C14.882,0.657,16.476,0,18.352,0c0.608,0,1.195,0.07,1.758,0.211l1.336,0.352
		l-4.43,4.43l0.492,2.672l2.672,0.492l4.43-4.43l0.422,1.336c0.656,2.438,0.046,4.595-1.828,6.469
		c-1.313,1.312-2.907,1.969-4.781,1.969c-0.703,0-1.336-0.094-1.898-0.281l-11.18,11.18C4.734,25.008,3.983,25.312,3.094,25.312z
		 M18.211,1.547c-1.406,0.095-2.579,0.609-3.516,1.547c-1.642,1.688-2.016,3.586-1.125,5.695l0.211,0.562L2.039,21.094
		c-0.703,0.75-0.703,1.477,0,2.18c0.281,0.281,0.633,0.422,1.055,0.422s0.796-0.141,1.125-0.422l11.883-11.812l0.422,0.141
		c0.703,0.235,1.336,0.352,1.898,0.352c1.452,0,2.672-0.492,3.656-1.477c0.937-0.938,1.452-2.109,1.547-3.516l-2.953,2.953
		l-4.5-0.844L15.328,4.5L18.211,1.547z"/>
</g>
<g id="Layer_1">
</g>
</svg>
