<?xml version="1.0" encoding="iso-8859-1"?>
<!-- Generator: Adobe Illustrator 18.0.0, SVG Export Plug-In . SVG Version: 6.00 Build 0)  -->
<!DOCTYPE svg PUBLIC "-//W3C//DTD SVG 1.1//EN" "http://www.w3.org/Graphics/SVG/1.1/DTD/svg11.dtd">
<svg version="1.1" xmlns="http://www.w3.org/2000/svg" xmlns:xlink="http://www.w3.org/1999/xlink" x="0px" y="0px"
	 viewBox="0 0 28.618 17.121" style="enable-background:new 0 0 28.618 17.121;" xml:space="preserve">
<g id="ico-yahoo">
	<path d="M26.157,3.586l-0.422,0.492h-2.109c-0.096,0-0.211,0.012-0.352,0.035c-0.141,0.024-0.236,0.06-0.281,0.105
		c-0.422,0.141-1.734,1.09-3.938,2.848c-2.205,1.758-3.4,2.918-3.586,3.48c-0.047,0.188-0.047,1.02,0,2.496
		c0.045,1.477,0.094,2.355,0.141,2.637c0.141,0.047,0.797,0.06,1.969,0.035c1.17-0.023,1.852-0.011,2.039,0.035l-0.07,1.266h-6.609
		c-0.096,0-0.984,0.024-2.672,0.07c-1.688,0.047-2.742,0.047-3.164,0l0.211-1.195c0.094,0,0.432,0,1.02,0
		c0.586,0,1.125-0.023,1.617-0.07c0.492-0.046,0.832-0.164,1.02-0.352c0.141-0.141,0.221-0.902,0.246-2.285
		c0.023-1.382-0.012-2.238-0.105-2.566c-0.096-0.375-1.16-1.816-3.199-4.324C5.872,3.786,4.5,2.274,3.797,1.758H0V0h12.797v0.07
		v0.281v1.336H8.93C9.868,3,11.602,5.344,14.133,8.719l5.133-4.641h-3.023L15.821,2.25H27l-0.07,0.141L26.157,3.586z M24.61,15.117
		l1.125,0.141h0.984l-0.281,1.828l-0.914-0.07l-0.914-0.07V15.117z M24.891,13.852V5.906c1.406,0.235,2.646,0.352,3.727,0.352
		l-1.969,7.734L24.891,13.852z"/>
</g>
<g id="Layer_1">
</g>
</svg>
