<?xml version="1.0" encoding="iso-8859-1"?>
<!-- Generator: Adobe Illustrator 18.0.0, SVG Export Plug-In . SVG Version: 6.00 Build 0)  -->
<!DOCTYPE svg PUBLIC "-//W3C//DTD SVG 1.1//EN" "http://www.w3.org/Graphics/SVG/1.1/DTD/svg11.dtd">
<svg version="1.1" xmlns="http://www.w3.org/2000/svg" xmlns:xlink="http://www.w3.org/1999/xlink" x="0px" y="0px"
	 viewBox="0 0 28.758 28.688" style="enable-background:new 0 0 28.758 28.688;" xml:space="preserve">
<g id="ico-yahoo-circle">
	<path d="M4.184,4.184C6.972,1.396,10.359,0,14.344,0c3.983,0,7.383,1.396,10.195,4.184c2.812,2.789,4.219,6.177,4.219,10.16
		c0,3.984-1.406,7.372-4.219,10.16c-2.812,2.789-6.212,4.184-10.195,4.184c-3.985,0-7.372-1.395-10.16-4.184
		C1.394,21.716,0,18.328,0,14.344C0,10.36,1.394,6.973,4.184,4.184z M5.484,23.238c2.437,2.461,5.39,3.691,8.859,3.691
		c3.468,0,6.434-1.241,8.895-3.727c2.461-2.484,3.691-5.438,3.691-8.859c0-3.421-1.23-6.374-3.691-8.859
		C20.777,3,17.812,1.758,14.344,1.758c-3.422,0-6.363,1.23-8.824,3.691s-3.691,5.426-3.691,8.895
		C1.828,17.813,3.046,20.777,5.484,23.238z M20.672,11.883l-0.141,0.352h-1.266c-0.095,0.047-0.165,0.07-0.211,0.07
		c-0.047,0-0.095,0-0.141,0c-0.281,0.095-1.055,0.657-2.32,1.688c-1.266,1.031-1.969,1.712-2.109,2.039
		c-0.047,0.141-0.06,0.633-0.035,1.477c0.023,0.844,0.058,1.36,0.105,1.547c0.093,0,0.48,0,1.16,0c0.679,0,1.09,0.024,1.23,0.07
		l-0.07,0.773c-0.235-0.046-1.524-0.07-3.867-0.07c-0.047,0-0.575,0.024-1.582,0.07c-1.009,0.047-1.629,0.047-1.863,0l0.141-0.773
		c0.046,0,0.234,0,0.562,0c0.327,0,0.644-0.023,0.949-0.07c0.304-0.046,0.503-0.116,0.598-0.211
		c0.093-0.094,0.141-0.516,0.141-1.266c0-0.749-0.024-1.266-0.07-1.547c-0.095-0.234-0.715-1.09-1.863-2.566
		c-1.149-1.477-1.934-2.379-2.355-2.707h-2.25V9.773h7.453v0.07h0.07l-0.07,0.141v0.773h-2.25c0.093,0.141,1.125,1.523,3.094,4.148
		l3.023-2.742h-1.828l-0.281-1.055h6.539v0.07L20.672,11.883z M19.828,18.633l0.633,0.07l0.633,0.07l-0.211,1.055l-0.562-0.07
		l-0.492-0.07V18.633z M20.039,17.859l-0.07-4.641c0.422,0.141,1.148,0.211,2.18,0.211l-1.125,4.5L20.039,17.859z"/>
</g>
<g id="Layer_1">
</g>
</svg>
