<?xml version="1.0" standalone="no"?>
<!DOCTYPE svg PUBLIC "-//W3C//DTD SVG 1.1//EN" "http://www.w3.org/Graphics/SVG/1.1/DTD/svg11.dtd" >
<!--
2015-11-3: Created with FontForge (http://fontforge.org)
-->
<svg xmlns="http://www.w3.org/2000/svg" xmlns:xlink="http://www.w3.org/1999/xlink" version="1.1">
<metadata>
Created by FontForge 20150302 at Tue Nov  3 14:13:12 2015
 By Kenny Lam
Copyright (c) 2015, Kenny Lam
</metadata>
<defs>
<font id="IBM-Glyphs" horiz-adv-x="512" >
  <font-face 
    font-family="IBM-Glyphs"
    font-weight="400"
    font-stretch="normal"
    units-per-em="512"
    panose-1="2 0 5 3 0 0 0 0 0 0"
    ascent="448"
    descent="-64"
    bbox="-0.010498 -64.0332 7699.11 448.014"
    underline-thickness="25.6"
    underline-position="-51.2"
    unicode-range="U+0020-F193"
  />
    <missing-glyph />
    <glyph glyph-name="space" unicode=" " horiz-adv-x="200" 
 />
    <glyph glyph-name="uniF149" unicode="&#xf149;" 
d="M0 369.999v78.001h563.053v-78.001h-563.053zM0 152.999v76.5898h563.053v-76.5898h-563.053zM0 -64v76.5889h563.053v-76.5889h-563.053z" />
    <glyph glyph-name="uniF135" unicode="&#xf135;" 
d="M74.6729 373.327c49.7578 49.7578 110.206 74.6729 181.327 74.6729c71.085 0 131.766 -24.915 181.952 -74.6729c50.1865 -49.793 75.2969 -110.242 75.2969 -181.327c0 -71.1211 -25.0928 -131.569 -75.2969 -181.327
c-50.1865 -49.7939 -110.867 -74.6729 -181.952 -74.6729c-71.1211 0 -131.569 24.8789 -181.327 74.6729c-49.7939 49.7578 -74.6729 110.206 -74.6729 181.327c0 71.1035 24.8789 131.552 74.6729 181.327zM97.874 33.2676
c43.4932 -43.9219 96.1963 -65.874 158.108 -65.874c61.8936 0 114.828 22.1484 158.75 66.5156c43.9219 44.333 65.874 97.0352 65.874 158.108c0 61.0557 -21.9521 113.758 -65.874 158.108c-43.9219 44.332 -96.8389 66.499 -158.732 66.499
c-61.0732 0 -113.562 -21.9521 -157.483 -65.874s-65.874 -96.8389 -65.874 -158.751c-0.0175781 -61.9121 21.7197 -114.811 65.2314 -158.732zM148.078 277.346l2.5166 3.76562h27.6094v-139.298l-3.76562 -3.76562h-77.8135v100.391l3.76562 3.76562h47.6875v35.1416z
M148.078 164.391v55.2188h-18.8291c-1.69531 0 -2.5166 -1.24902 -2.5166 -3.76562v-55.2188h17.5625c2.53418 0 3.7832 1.2666 3.7832 3.76562zM186.985 277.346c0 0.820312 0.820312 2.06934 2.51562 3.76562h27.6104v-18.8291l-3.76562 -3.76562h-26.3604v18.8291z
M186.985 238.438l3.76562 3.76562h26.3604v-100.391l-3.76562 -3.76562h-26.3604v100.391zM227.141 238.438l3.7666 3.76562h77.7959v-135.531l-3.7666 -3.76562h-77.7959v18.8281l3.7666 3.76562h47.6875v12.5469h-51.4541v100.391zM257.249 215.844v-55.2188h17.5615
c2.5166 0 3.7666 1.24902 3.7666 3.76562v55.2188h-18.8291c-1.67773 0 -2.49902 -1.24902 -2.49902 -3.76562zM322.499 242.204h76.5459v-135.531l-2.5166 -3.76562h-77.7959v18.8281l3.7666 3.76562h46.4375v12.5469h-50.1855v100.391zM370.187 164.391v55.2188h-17.5615
c-2.5166 0 -3.76562 -1.24902 -3.76562 -3.76562v-55.2188h17.5615c2.51562 0 3.76562 1.2666 3.76562 3.76562z" />
    <glyph glyph-name="uniF167" unicode="&#xf167;" 
d="M0 448h512v-433.999v-78.001h-512v78.001v433.999zM473.695 409.716h-435.411v-374.414h435.411v374.414zM424.055 172.848v-79.4336h-336.129v127.662l89.3574 89.3574l137.565 -138.998l59.5654 52.4854zM353.859 294.115
c-8.02832 8.00781 -12.0625 17.2266 -12.0625 27.6543c0 10.4092 4.01465 19.627 12.0625 27.6553c8.00781 8.00781 17.2266 12.0615 27.6543 12.0615c10.4082 0 19.3643 -4.03418 26.9482 -12.0615c7.56445 -8.02832 11.3369 -17.2461 11.3369 -27.6553
c0 -10.4277 -3.79297 -19.6465 -11.3369 -27.6543c-7.58398 -8.02734 -16.54 -12.0615 -26.9482 -12.0615c-10.4277 0 -19.6465 4.03418 -27.6543 12.0615z" />
    <glyph glyph-name="uniF153" unicode="&#xf153;" 
d="M794.183 29.2734h134.246v-93.3057h-928.429v93.3057h134.246v418.727h659.937v-418.727zM195.706 386.573v-352.704h211.629c0 -3.07422 0.744141 -6.08496 2.26465 -9.09473v-2.26562c0 -1.52051 0.745117 -2.26465 2.26562 -2.26465l2.26562 -4.56348v-2.26562
c0 -1.52148 0.744141 -2.26562 2.26562 -2.26562l2.26562 -4.56348l6.8291 -6.8291v-2.26465c1.48828 0 2.26465 -0.777344 2.26465 -2.26562l4.56348 -2.26562h2.26562c1.48926 0 2.26562 -0.777344 2.26562 -2.26562l4.56348 -2.26562h2.26562
c1.48828 -1.52051 3.75391 -2.26562 6.82812 -2.26562l2.26562 -2.26562h11.3926h11.3916c1.48926 0 2.26562 0.356445 2.26562 1.13281c0 0.745117 0.745117 1.13281 2.26562 1.13281l2.26562 2.26562h4.56348h2.26562c1.48828 0 2.26562 0.744141 2.26562 2.26562
l4.5625 2.26562h2.26562l4.56348 4.56348l2.26562 2.26562c0 1.48828 0.744141 2.26465 2.26562 2.26465l2.26562 4.56348h2.26562c1.48828 0 2.26465 0.745117 2.26465 2.26562c0 1.48926 0.745117 3.00977 2.26562 4.56348v2.26562
c1.48926 0 2.26562 0.744141 2.26562 2.26562v4.56348v2.26465c1.48926 1.48926 2.26562 4.56348 2.26562 9.09473h211.629v352.672h-536.888z" />
    <glyph glyph-name="uniF162" unicode="&#xf162;" 
d="M128.335 -64c-34.6035 0 -65.0898 13.1846 -91.4795 39.5938c-24.5635 25.457 -36.8555 56.1768 -36.8555 92.1592c0 35.9424 12.292 67.1094 36.8555 93.5176l230.747 237.582c30.9326 32.7588 70.0996 49.1475 117.422 49.1475
c45.5166 0 84.1777 -16.3887 116.062 -49.1475c31.8652 -32.7783 47.7881 -72.6045 47.7881 -119.461c0 -46.8945 -15.9229 -86.7021 -47.7881 -119.461l-187.056 -193.871l-25.9424 24.583l187.056 193.872c25.4766 25.4766 38.2344 56.6621 38.2344 93.5176
s-12.7578 68.4688 -38.2344 94.8965c-26.4092 26.3896 -56.8955 39.5938 -91.4795 39.5938c-33.6709 0 -63.7109 -13.2041 -90.1201 -39.5938l-230.746 -237.601c-18.2148 -18.2148 -27.3027 -40.5068 -27.3027 -66.8955c0 -26.4092 9.08789 -49.1475 27.3027 -68.2744
c19.1074 -19.1084 40.4863 -28.6807 64.1768 -28.6807c24.584 0 46.4287 9.55371 65.5361 28.6807l173.405 178.86c10.9131 10.9131 16.3887 24.3311 16.3887 40.2734c0 15.9043 -5.45605 29.3604 -16.3887 40.2734c-11.8262 11.8066 -25.0498 17.748 -39.5938 17.748
c-13.6514 0 -26.4092 -5.94141 -38.2344 -17.748l-129.714 -132.432l-25.9424 24.583l129.713 133.811c18.2148 18.1953 39.5938 27.3027 64.1777 27.3027c25.4766 0 47.3223 -9.10742 65.5361 -27.3027c17.2822 -18.2139 25.9434 -40.2725 25.9434 -66.2158
c0 -25.9424 -8.66113 -48.0215 -25.9434 -66.2158l-173.404 -177.502c-24.584 -26.4092 -54.6045 -39.5938 -90.1201 -39.5938z" />
    <glyph glyph-name="uniF16D" unicode="&#xf16d;" 
d="M0 448h487.896v-512h-346.073l-141.822 141.822v370.178zM163.103 100.515l1.41211 -126.23h285.076v433.999h-411.307v-307.769h124.818zM180.127 253.693h45.3848v-87.9258h-89.3574v87.9258l22.6924 89.3574h43.9727zM313.437 253.693h43.9727v-87.9258h-87.9248
v87.9258l21.2803 89.3574h45.3848z" />
    <glyph glyph-name="uniF161" unicode="&#xf161;" 
d="M0 448h307.769v-69.4893v-374.413v-68.0771h-307.769v68.0771v374.413v69.4893zM273.72 38.126v306.336h-239.671v-306.336h239.671zM119.13 412.539v-15.5918h68.0771v15.5918h-68.0771z" />
    <glyph glyph-name="uniF154" unicode="&#xf154;" 
d="M74.4912 372.886c49.6367 50.082 109.938 75.1143 180.886 75.1143c70.9121 0 131.445 -25.0322 181.509 -75.1143c50.0645 -50.082 75.1143 -110.597 75.1143 -181.509c0 -70.9482 -25.0322 -131.249 -75.1143 -180.886
c-50.0635 -49.6729 -110.597 -74.4912 -181.509 -74.4912c-70.9307 0 -131.249 24.8184 -180.886 74.4912c-49.6553 49.6367 -74.4912 109.938 -74.4912 180.886c0 70.9121 24.8359 131.445 74.4912 181.509zM66.3545 76.2041l55.085 55.085
c-3.34766 9.16895 -6.69434 22.0947 -10.0059 38.8125v1.24609c0 0.819336 -0.213867 1.65527 -0.623047 2.51074c-0.427734 0.818359 -0.623047 1.65527 -0.623047 2.50977v15.0264c0 13.335 2.06543 27.543 6.2666 42.5693v2.50977
c0.819336 1.65625 1.67383 3.13379 2.51074 4.37988c0.818359 1.24609 1.24609 2.68848 1.24609 4.37988v2.50977c0 0.819336 0.40918 1.65625 1.24609 2.51074h1.24609v1.24609l-56.3486 56.2959c-21.7207 -36.7295 -32.5449 -75.542 -32.5449 -116.419
c-0.0185547 -40.0586 10.8242 -78.4609 32.5449 -115.173zM170.239 104.993c23.3584 -23.376 51.7373 -35.0557 85.1201 -35.0557c33.3643 0 61.7607 11.6797 85.1191 35.0557c23.3584 23.3584 35.4648 51.7373 36.3018 85.1201
c0 33.3633 -11.8926 61.9561 -35.6787 85.7422c-23.7852 23.7861 -52.3779 35.6787 -85.7422 35.6787c-33.3828 0 -61.7793 -11.8926 -85.1201 -35.6787c-23.3584 -23.7861 -35.0557 -52.3789 -35.0557 -85.7422c0.0175781 -33.3828 11.6973 -61.7617 35.0557 -85.1201z
M255.377 -30.1904c40.877 0 79.6895 10.8242 116.419 32.5449l-55.085 55.085c-17.5195 -8.34961 -37.9932 -12.5166 -61.334 -12.5166c-22.54 0 -42.5684 4.16699 -60.0879 12.5166l-55.085 -55.085c36.7295 -21.7207 75.1143 -32.5449 115.173 -32.5449zM255.377 412.944
c-40.8955 0 -78.8711 -10.8604 -113.908 -32.5449l55.085 -55.085h2.50977l5.00293 2.51074c0.819336 0.818359 2.29688 1.44141 4.37988 1.86914c2.06543 0.40918 3.54297 0.623047 4.37988 0.623047h1.24609l1.24609 1.24609
c15.0264 4.16602 28.7891 6.2666 41.3047 6.2666c12.5166 0 26.2959 -2.10059 41.3047 -6.2666l1.24609 -1.24609h1.24609c0.819336 -0.836914 2.29688 -1.47754 4.37988 -1.86914c2.06543 -0.427734 3.54297 -0.623047 4.37988 -0.623047l5.00293 -2.51074h1.24609
l56.3311 55.085c-36.7109 21.6846 -75.5059 32.5449 -116.383 32.5449zM389.314 131.289l55.085 -55.085c21.7021 36.7119 32.5449 75.5234 32.5449 116.419c0 40.8779 -10.8428 79.6895 -32.5449 116.419l-56.3311 -56.3311v-1.24609l1.24609 -1.24707
c0.819336 -0.835938 1.24609 -1.69043 1.24609 -2.50977v-2.51074c1.67383 -3.34668 2.91992 -6.2666 3.75684 -8.75879v-2.51074c5.00293 -18.373 7.5127 -32.1357 7.5127 -41.3047c0 -6.69434 -0.426758 -11.6973 -1.24609 -15.0264
c0 -0.836914 -0.213867 -1.86914 -0.623047 -3.13379c-0.426758 -1.24609 -0.623047 -2.31445 -0.623047 -3.13281v-1.24609c-3.34668 -16.7002 -6.69434 -29.626 -10.0234 -38.7949z" />
    <glyph glyph-name="uniF107" unicode="&#xf107;" 
d="M475.181 201.369c50.3799 -14.416 75.5908 -43.2041 75.5908 -86.4082s-27.252 -83.8418 -81.7783 -121.89s-122.416 -57.0928 -203.646 -57.0928c-69.9521 0 -131.676 15.4248 -185.148 46.2754c-53.4512 30.8945 -80.1992 71.5098 -80.1992 121.911
c0 55.5361 31.377 114.692 94.1104 177.425c40.1104 40.1104 80.4619 67.8896 121.121 83.3145c40.6367 15.4258 69.666 14.3945 87.1768 -3.09375c15.4248 -15.4248 17.4873 -40.1104 6.16504 -74.0547c-2.08398 -4.125 -2.08398 -6.71387 0 -7.72363l15.4258 1.53613
c71.9707 29.8193 118.795 29.3145 140.387 -1.53613c11.3223 -16.457 11.3223 -37.5654 0 -63.2598c-3.09375 -7.1748 0.526367 -12.3096 10.7949 -15.4033zM442.794 116.519c-3.09375 34.9541 -24.4434 62.4912 -64.0273 82.5469
c-39.6055 20.0547 -85.6182 27.5156 -138.082 22.3809c-52.4639 -5.15625 -96.1953 -21.5908 -131.149 -49.3701c-34.9756 -27.7783 -50.4004 -58.6289 -46.2754 -92.5742c3.09375 -34.9756 24.4209 -62.7324 64.0273 -83.3145
c39.584 -20.582 85.6182 -28.3057 138.082 -23.1494c52.4639 5.13477 96.1729 21.833 131.148 50.1387c34.9326 28.2832 50.3574 59.3975 46.2764 93.3418zM276.165 168.961c25.6943 -7.19727 44.2139 -21.3721 55.5361 -42.4365
c11.3213 -21.0869 11.8047 -43.4453 1.53516 -67.1211c-11.3438 -23.6758 -30.3457 -41.1416 -57.0938 -52.4639c-26.7695 -11.3447 -52.9902 -12.8799 -78.6846 -4.62988c-25.7158 8.22852 -43.2041 23.1484 -52.4639 44.7402
c-9.25977 21.5908 -8.25 43.709 3.09375 66.3311c10.2695 22.6006 27.998 39.0791 53.2324 49.3701c25.2109 10.3125 50.1592 12.3975 74.8447 6.20996zM241.452 79.4805c-2.56738 8.22852 -7.96484 14.3936 -16.1934 18.5186
c-17.5098 8.22852 -32.9355 2.5459 -46.2764 -16.9609c-11.3438 -18.5195 -7.72363 -32.4082 10.7959 -41.6465c18.5195 -8.25 34.4492 -3.09375 47.834 15.4258c5.1123 8.20605 6.38574 16.4121 3.83984 24.6631zM265.369 113.425
c-6.16602 3.09375 -11.8271 1.00977 -16.9609 -6.16602c-3.09375 -7.19629 -1.53613 -12.3311 4.62988 -15.4248c7.1748 -3.09375 13.3408 -1.03125 18.5186 6.16504c5.11328 6.16602 3.07227 11.3223 -6.1875 15.4258zM587.811 392.684
c43.2041 -47.3076 54.5039 -101.834 33.9443 -163.535c-6.16602 -15.4258 -16.4561 -20.582 -30.8506 -15.4258c-15.4258 6.16602 -20.582 16.4346 -15.4258 30.8506c14.3945 43.2051 6.16602 81.7793 -24.6846 115.702c-31.8818 34.9531 -69.4258 47.2852 -112.63 37.0381
c-15.4248 -4.125 -24.6846 2.0625 -27.7783 18.5195c-4.125 15.4248 2.0625 24.6846 18.5186 27.7783c62.7109 13.3193 115.702 -3.64258 158.906 -50.9277zM524.551 335.59c21.5918 -23.6758 27.2305 -49.8965 16.9619 -78.6846
c-4.12598 -13.3633 -12.8809 -17.9932 -26.2217 -13.8896c-12.3311 3.09375 -16.4561 11.8047 -12.3311 26.2207c5.13477 15.4258 2.54492 28.2842 -7.72363 38.5752c-10.291 11.3213 -23.1494 15.4248 -38.5742 12.3311c-12.332 -3.09375 -20.582 2.0625 -24.6855 15.4258
c-3.09375 12.3311 2.0625 20.5811 15.4258 24.6846c29.8408 6.1875 55.5576 -2.0625 77.1484 -24.6631z" />
    <glyph glyph-name="uniF130" unicode="&#xf130;" 
d="M547.425 -64h-547.425v399.291h43.4629v-355.828h503.962v-43.4629zM660.134 24.5508h-569.957v423.449h569.98v-423.449h-0.0234375zM133.639 68.0127h481.407v336.524h-481.407v-336.524z" />
    <glyph glyph-name="uniF104" unicode="&#xf104;" 
d="M585.556 289.36c2.89258 -36.5527 3.83594 -69.2285 2.89258 -98.0684c0.943359 -27.8955 0 -60.0996 -2.89258 -96.6318c-3.85547 -44.2236 -15.8555 -78.376 -36.0596 -102.396c-22.1328 -25.9688 -52.9004 -42.3164 -92.3037 -49.0439
c-35.5889 -4.82031 -66.8486 -7.2207 -93.7402 -7.2207h-69.2285h-70.6631c-26.9326 0 -58.1924 2.37891 -93.7402 7.2207c-39.4443 5.76367 -70.1924 22.1113 -92.3037 49.0439c-19.2402 23.0762 -30.7891 57.1875 -34.624 102.396
c-1.94922 22.1123 -2.89258 54.2959 -2.89258 96.6113c0 32.6758 1.43555 65.3926 4.32812 98.0684c3.81543 45.208 15.3633 79.3398 34.6035 102.416c21.1279 25.0039 51.916 40.8604 92.3037 47.5879c42.2959 5.76367 73.5566 8.65625 93.7607 8.65625h69.2275h70.6641
c20.1836 0 51.4238 -2.89258 93.7402 -8.65625c40.3877 -6.72754 71.1357 -22.6045 92.3037 -47.5879c19.2197 -23.0762 30.7686 -57.208 34.624 -102.396zM519.2 87.4404c4.7998 28.8398 7.21973 63.4639 7.21973 103.831c0 41.332 -2.41992 76.4482 -7.21973 105.288
c-4.82129 27.876 -13.9482 48.0801 -27.4043 60.5723c-13.4766 12.4717 -34.1523 19.2402 -62.0078 20.1836h-42.542h-50.4805h-42.542c-44.2441 1.92871 -88.9395 1.92871 -134.128 0c-27.916 -0.943359 -48.5723 -7.69141 -62.0283 -20.1836
c-13.4756 -12.4922 -22.6035 -32.6758 -27.4033 -60.5723c-4.82031 -28.8398 -7.2207 -63.9561 -7.2207 -105.288c0 -40.3877 2.37988 -74.9912 7.2207 -103.831c4.7998 -27.8965 13.9277 -48.1006 27.4033 -60.5723c13.4561 -12.4922 34.1123 -19.2402 62.0078 -20.1836
c29.7842 -0.963867 74.5 -1.43652 134.128 -1.43652c29.7842 -0.963867 74.9922 -0.492188 135.564 1.43652c27.876 0.943359 48.5312 7.69141 62.0078 20.1836c13.4766 12.4717 22.6035 32.6758 27.4248 60.5723zM311.536 329.728
c4.7998 2.89258 12 6.48242 21.6406 10.8105c9.59961 4.32715 18.2549 8.40918 25.9678 12.2656c7.69238 3.83594 14.8916 7.69238 21.6406 11.5283c11.5273 -23.0762 28.3477 -57.4746 50.4795 -103.114c22.1123 -45.6807 38.9316 -80.0381 50.4805 -103.114
c-121.145 -59.6279 -212.505 -104.344 -274.021 -134.128c-66.335 135.564 -100.016 204.3 -100.96 206.248c7.69238 3.83594 19.2197 9.37402 34.625 16.5947c15.3223 7.19922 26.8496 12.7178 34.5625 16.5732c8.65625 -18.2754 22.583 -46.6436 41.8242 -85.083
c19.2197 -38.46 33.167 -66.8486 41.8232 -85.084c3.83594 1.92773 9.37402 4.55371 16.5947 7.93848c7.21973 3.36328 12.7373 5.98926 16.5938 7.9375c-5.76367 12.4717 -18.5225 38.4395 -38.2139 77.8838c-19.7119 39.4248 -34.8701 70.1719 -45.4336 92.3047
l69.2275 34.624c5.76367 -12.4922 18.502 -38.46 38.2139 -77.8838c19.6914 -39.4453 34.8291 -70.1924 45.4346 -92.3047c3.83496 1.92871 9.37402 4.55371 16.5938 7.93848c7.2207 3.36426 12.7383 5.98926 16.5947 7.93848
c-5.76465 12.4707 -18.5225 38.4395 -38.2139 77.8838c-19.7539 39.3623 -34.8916 70.1104 -45.4551 92.2422z" />
    <glyph glyph-name="uniF105" unicode="&#xf105;" 
d="M435.436 372.703c49.3652 -49.3838 74.2266 -109.796 74.6729 -181.328c0.410156 -71.5312 -24.4688 -131.979 -74.6729 -181.327c-49.3828 -49.3652 -109.617 -74.0303 -180.703 -74.0303c-70.2822 0 -130.498 25.0938 -180.702 75.2979
c-49.3652 49.3467 -74.0303 109.581 -74.0303 180.685s24.665 131.338 74.0303 180.703c50.2041 50.2041 110.01 75.2969 179.453 75.2969c71.1035 0 131.766 -25.0928 181.952 -75.2969zM86.5947 336.312c-31.8037 -36.8193 -49.3838 -79.4912 -52.7031 -128
c-3.35547 -48.5264 7.94238 -93.3057 33.874 -134.265c-0.838867 30.126 5.44336 63.5723 18.8291 100.391c13.3672 36.8008 33.4453 70.2822 60.2344 100.391zM170.654 250.985c-25.0928 -29.3057 -43.2969 -61.9297 -54.5938 -97.874
c-11.2979 -35.9805 -16.1162 -66.0889 -14.4385 -90.3428l128 129.249zM371.436 380.234c-35.9795 21.7559 -75.2969 32.625 -117.952 32.625c-55.2188 0 -102.906 -17.5625 -143.062 -52.7031l60.2334 -61.4834c29.2881 26.7705 62.3047 47.0625 99.1416 60.8584
c36.8184 13.7959 70.6924 20.7031 101.64 20.7031zM254.732 168.156l-128 -129.249h10.0303c26.7715 0 56.4688 6.06738 89.0938 18.2041c32.624 12.1182 61.9111 29.4834 87.8438 52.0781zM136.781 3.76562c35.1406 -20.917 74.458 -32.2139 117.951 -33.874
c56.041 0 104.156 17.5615 144.312 52.7031l-61.4834 61.4834c-61.0732 -53.542 -128 -80.3125 -200.78 -80.3125zM195.766 274.829l58.9854 -58.9854l129.249 129.249c-2.5166 0.821289 -6.71094 1.25 -12.5469 1.25c-26.7881 0 -56.2715 -6.08594 -88.4678 -18.2041
c-32.2148 -12.1182 -61.3057 -29.9121 -87.2197 -53.3096zM278.577 192l58.9844 -60.2344c25.9141 30.126 44.332 62.9297 55.2197 98.5166c10.8506 35.5518 15.4727 65.4453 13.7959 89.7178zM361.405 107.922l61.4834 -60.2344
c31.7861 36.8008 49.3652 79.8838 52.7031 129.249c3.33691 49.3662 -7.95996 94.1084 -33.874 134.265c0 -15.0625 -2.5166 -35.1406 -7.53125 -60.2344c-12.5469 -56.04 -36.8193 -103.728 -72.7812 -143.045z" />
    <glyph glyph-name="uniF106" unicode="&#xf106;" 
d="M74.6729 373.327c49.7578 49.7578 110.206 74.6729 181.327 74.6729c71.085 0 131.766 -24.915 181.952 -74.6729c50.1865 -49.7754 75.2969 -110.242 75.2969 -181.327c0 -71.1035 -25.0928 -131.569 -75.2969 -181.327
c-50.1865 -49.7764 -110.867 -74.6729 -181.952 -74.6729c-71.1035 0 -131.569 24.8965 -181.327 74.6729c-49.7764 49.7578 -74.6729 110.224 -74.6729 181.327s24.8965 131.552 74.6729 181.327zM97.874 33.2676c43.4932 -43.9219 96.1963 -65.874 158.108 -65.874
c61.9111 0 114.828 22.1484 158.75 66.5156c43.9219 44.333 65.874 97.0537 65.874 158.108c0 61.0557 -21.9521 113.758 -65.874 158.108c-43.9219 44.332 -96.8389 66.499 -158.732 66.499c-61.0732 0 -113.562 -21.9521 -157.483 -65.874
s-65.874 -96.8389 -65.874 -158.751c-0.0175781 -61.9121 21.7373 -114.811 65.2314 -158.732zM320 210.829c-1.69531 -3.35547 0 -5.85449 4.97949 -7.53223c22.5947 -6.70996 34.3018 -20.0781 35.1406 -40.1562c0 -19.2568 -12.5459 -37.6396 -37.6396 -55.2188
c-25.0928 -17.5791 -56.0576 -26.3604 -92.8584 -26.3604c-31.8037 0 -60.0381 7.31738 -84.7031 21.9521c-24.6826 14.6172 -37.0146 33.249 -37.0146 55.8438c0 25.0928 14.2236 51.8643 42.6729 80.3125c18.4004 18.4004 36.8184 31.375 55.2188 38.9072
c18.3828 7.53125 31.7861 7.10254 40.1562 -1.25c7.53125 -7.51367 8.78027 -18.8105 3.76562 -33.874l6.28223 -3.76562c32.625 14.2246 53.9697 14.2246 64 0c5.01465 -7.53125 5.01465 -17.1514 0 -28.8584zM229.64 99.1406
c24.2725 2.5166 44.1182 10.0488 59.5742 22.5947c15.4736 12.5469 22.3799 26.7715 20.7021 42.6729c-1.67773 15.8662 -11.4932 28.4131 -29.4834 37.6396c-17.9902 9.19141 -38.6924 12.5469 -62.1084 10.0303c-24.2715 -2.5166 -44.3496 -10.0479 -60.2334 -22.5947
c-15.8848 -12.5469 -23.0234 -26.7881 -21.3281 -42.6729c1.67773 -15.8838 11.7256 -28.4307 30.126 -37.6396s39.3359 -12.5459 62.751 -10.0303zM200.156 185.735c11.2969 5.01562 22.3799 5.83594 33.2666 2.49902c11.708 -3.35547 20.2568 -9.85156 25.7178 -19.4531
c5.44434 -9.62012 5.64062 -19.9004 0.625 -30.751c-5.01465 -10.8691 -13.5996 -19.0254 -25.7178 -24.4688c-12.1357 -5.44336 -24.0576 -6.06836 -35.7656 -1.87402c-10.8867 3.31934 -18.6328 10.2266 -23.2188 20.7031
c-4.60547 10.458 -4.39062 20.7021 0.624023 30.75c5.01562 10.0488 13.1719 17.5801 24.4688 22.5947zM217.093 135.531c5.83594 8.35254 3.7666 15.0635 -6.28223 20.0781c-8.35254 4.17676 -15.4912 1.67773 -21.3271 -7.53125
c-5.85352 -8.37012 -4.21191 -14.6523 5.01562 -18.8291c9.20898 -4.19336 16.7402 -2.08789 22.5938 6.28223zM232.156 155.609c2.49805 2.5166 1.67773 5.01562 -2.49902 7.53125c-1.69531 0.821289 -4.19336 -0.427734 -7.53125 -3.76562
c-2.5166 -2.51562 -2.10547 -4.60449 1.24902 -6.28223c3.32031 -0.838867 6.26465 0 8.78125 2.5166zM304.937 313.735c29.2881 5.83594 53.5244 -2.10547 72.7812 -23.8262c19.2393 -20.8984 24.665 -45.5986 16.3125 -74.0293
c-3.33789 -7.53223 -7.95996 -10.0479 -13.7959 -7.53223c-7.53125 3.32031 -10.0479 7.94238 -7.53125 13.7959c7.53125 20.0781 3.76562 38.0508 -11.2979 53.9521c-14.2422 15.0635 -31.8037 20.4893 -52.7021 16.3125
c-6.71094 -1.69531 -10.8691 1.24902 -12.5469 8.78125c-1.69531 6.69238 1.24902 10.8506 8.78027 12.5459zM312.469 276.078c15.0625 3.33691 27.1631 -0.428711 36.3906 -11.2969c8.35156 -10.0303 11.2969 -22.167 8.78027 -36.3906
c-3.33691 -6.71094 -7.53125 -9.22754 -12.5469 -7.53125c-6.70996 3.31934 -8.79785 7.53125 -6.28223 12.5459c2.5166 6.69336 1.25 12.5293 -3.76562 17.5615c-5.01465 5.0332 -10.8691 7.10352 -17.5615 6.28223c-5.85352 -1.69531 -9.61914 0.821289 -11.2969 7.53223
c-1.67773 5.83594 0.427734 9.60156 6.28223 11.2969z" />
    <glyph glyph-name="uniF11A" unicode="&#xf11a;" 
d="M74.9316 373.068c49.9424 49.96 110.293 74.9316 181.068 74.9316c70.7402 0 131.126 -24.9717 181.068 -74.9316s74.9316 -110.328 74.9316 -181.068c0 -70.7754 -24.9717 -131.126 -74.9316 -181.068s-110.328 -74.9316 -181.068 -74.9316
c-70.7754 0 -131.126 24.9717 -181.068 74.9316s-74.9316 110.293 -74.9316 181.068c0 70.7402 24.9717 131.126 74.9316 181.068zM256 413.029c-61.6289 0 -114.076 -21.668 -157.341 -64.9326c-43.2998 -43.2998 -64.9316 -95.3379 -64.9316 -156.097
c0 -60.7764 21.8447 -113.01 65.5537 -156.719s95.9424 -65.5537 156.719 -65.5537c60.7588 0 112.797 21.6318 156.097 64.9316c43.2832 43.2832 64.9326 95.7295 64.9326 157.341c0 60.7588 -21.668 112.797 -64.9326 156.097
c-43.2998 43.2832 -95.3379 64.9326 -156.097 64.9326zM127.378 175.767v33.71h256v-33.71h-256zM238.523 63.3779v256h33.71v-256h-33.71z" />
    <glyph glyph-name="uniF12A" unicode="&#xf12a;" 
d="M74.4912 372.886c49.6367 50.082 109.938 75.1143 180.886 75.1143c70.9121 0 131.445 -25.0322 181.509 -75.1143c50.0645 -50.082 75.1143 -110.597 75.1143 -181.509c0 -70.9307 -25.0322 -131.249 -75.1143 -180.886
c-50.0635 -49.6553 -110.597 -74.4912 -181.509 -74.4912c-70.9307 0 -131.249 24.8359 -180.886 74.4912c-49.6553 49.6367 -74.4912 109.955 -74.4912 180.886c0 70.9121 24.8359 131.445 74.4912 181.509zM97.6357 33.6533
c43.3877 -43.4053 95.9619 -65.0898 157.724 -65.0898c61.7607 0 114.549 21.8984 158.364 65.7129c43.8145 43.8154 65.7129 96.1758 65.7129 157.101c0 61.7607 -21.8984 114.549 -65.7129 158.364c-43.8154 43.8154 -96.6035 65.7139 -158.364 65.7139
c-61.7793 0 -114.354 -21.8984 -157.724 -65.7139c-43.4053 -43.8154 -65.0908 -96.6035 -65.0908 -158.364c0 -61.7793 21.7031 -114.354 65.0908 -157.724zM289.168 329.071l22.54 -22.54l-113.908 -115.172l113.908 -113.908l-22.54 -22.54l-136.447 136.448z" />
    <glyph glyph-name="uniF15B" unicode="&#xf15b;" 
d="M0 448h774.623v-512h-774.623v512zM243.734 200.504l-192.736 196.498v-392.968zM387.325 55.0322l-107.693 109.574l-171.938 -175.7h559.236l-171.911 175.7zM651.803 397.002h-528.981l264.504 -270.174zM530.89 200.504l190.827 -196.47v392.968z" />
    <glyph glyph-name="uniF141" unicode="&#xf141;" 
d="M294.692 362.397h378.655v-67.5039v-358.894h-673.348v358.894v67.5039v85.6025h294.692v-85.6025zM627.245 -17.8975v312.791h-582.805v-312.791h582.805z" />
    <glyph glyph-name="uniF171" unicode="&#xf171;" 
d="M382.584 448h132.269v-512h-514.853v413.855l98.1445 98.1445h35.5596h248.88zM477.876 -25.6084v435.217h-95.292v-105.244h-248.9v105.244h-21.3193l-73.9727 -75.3887v-359.828h439.484zM182.756 222.563c20.3896 20.3896 45.2695 30.584 74.6602 30.584
c29.3701 0 54.2705 -10.1943 74.6602 -30.584c20.3887 -20.4092 30.584 -45.2891 30.584 -74.6592c0 -29.3906 -10.1953 -54.291 -30.584 -74.6602c-20.4102 -20.4102 -45.29 -30.584 -74.6602 -30.584c-29.3906 0 -54.291 10.1738 -74.6602 30.584
c-20.4092 20.3896 -30.584 45.2695 -30.584 74.6602c0 29.3701 10.1748 54.2705 30.584 74.6592zM345.608 409.608h-174.929v-66.8525h174.929v66.8525zM257.437 81.0518c18.9727 0 35.0537 6.61426 48.3633 19.9043c13.2695 13.2686 19.9043 28.9248 19.9043 46.9277
c0 18.002 -6.89746 33.9014 -20.6318 47.6357c-13.7549 13.7344 -29.6533 20.6318 -47.6357 20.6318c-18.0234 0 -33.6592 -6.63477 -46.9287 -19.9033c-13.2891 -13.29 -19.9033 -29.3906 -19.9033 -48.3643c0 -18.0225 6.61426 -33.6592 19.9033 -46.9277
c13.249 -13.2695 28.9053 -19.9043 46.9287 -19.9043z" />
    <glyph glyph-name="uniF15F" unicode="&#xf15f;" 
d="M41.5264 -64l-41.5264 41.4941l468.177 470.506l470.506 -470.506l-41.5264 -41.5273l-428.979 426.684z" />
    <glyph glyph-name="uniF12B" unicode="&#xf12b;" 
d="M74.6729 373.327c49.7578 49.7578 110.206 74.6729 181.327 74.6729c71.085 0 131.766 -24.915 181.952 -74.6729c50.1865 -49.793 75.2969 -110.242 75.2969 -181.327c0 -71.1211 -25.0928 -131.569 -75.2969 -181.327
c-50.1865 -49.7939 -110.867 -74.6729 -181.952 -74.6729c-71.1211 0 -131.569 24.8789 -181.327 74.6729c-49.7939 49.7578 -74.6729 110.206 -74.6729 181.327c0 71.1035 24.8789 131.552 74.6729 181.327zM98.5166 34.5166
c43.083 -43.1016 95.5537 -64.625 157.483 -64.625c61.8936 0 114.383 21.5234 157.483 64.625c43.083 43.083 64.625 95.5537 64.625 157.483c0 61.8936 -21.5596 114.383 -64.625 157.483c-43.1006 43.083 -95.5898 64.625 -157.483 64.625
c-61.9297 0 -114.418 -21.5596 -157.483 -64.625c-43.1016 -43.1006 -64.625 -95.5898 -64.625 -157.483c-0.0175781 -61.9121 21.5059 -114.4 64.625 -157.483zM250.967 289.892l23.8438 23.8438l121.718 -121.718l-121.718 -121.718l-23.8438 23.8438l80.3125 80.3125
h-214.576v35.1416h214.576z" />
    <glyph glyph-name="uniF151" unicode="&#xf151;" 
d="M74.6729 373.327c49.7578 49.7578 110.206 74.6729 181.327 74.6729c71.085 0 131.766 -24.915 181.952 -74.6729c50.1865 -49.793 75.2969 -110.242 75.2969 -181.327c0 -71.1211 -25.0928 -131.569 -75.2969 -181.327
c-50.1865 -49.7939 -110.867 -74.6729 -181.952 -74.6729c-71.1211 0 -131.569 24.8789 -181.327 74.6729c-49.7939 49.7578 -74.6729 110.206 -74.6729 181.327c0 71.1035 24.8789 131.552 74.6729 181.327zM97.874 33.2676
c43.4932 -43.9219 96.1963 -65.874 158.108 -65.874c61.8936 0 114.828 22.1484 158.75 66.5156c43.9219 44.333 65.874 97.0352 65.874 158.108c0 61.0557 -21.9521 113.758 -65.874 158.108c-43.9219 44.332 -96.8389 66.499 -158.732 66.499
c-61.0732 0 -113.562 -21.9521 -157.483 -65.874s-65.874 -96.8389 -65.874 -158.751c-0.0175781 -61.9121 21.7197 -114.811 65.2314 -158.732zM335.045 327.531c14.207 0 26.5391 -5.22852 37.0156 -15.6875c10.4404 -10.4766 15.6875 -22.8086 15.6875 -37.0146v-55.2197
v-111.688c0 -14.2422 -5.22949 -26.5742 -15.6875 -37.0146c-10.4766 -10.4766 -22.8086 -15.6885 -37.0156 -15.6885h-166.889c-14.2422 0 -26.5742 5.21191 -37.0156 15.6885c-10.4756 10.4404 -15.6875 22.7725 -15.6875 37.0146v111.688v55.2197
c0 14.2061 5.21191 26.5381 15.6875 37.0146c10.4414 10.459 22.7734 15.6875 37.0156 15.6875h166.889zM361.405 107.922h-1.24902v111.688h-40.1562c4.17578 -10.0303 6.28223 -19.2568 6.28223 -27.6094c0 -20.917 -7.33496 -38.7109 -21.9521 -53.3271
c-14.6523 -14.6523 -32.4287 -21.9521 -53.3271 -21.9521c-20.917 0 -38.4961 7.31738 -52.7031 21.9521c-14.2422 14.6162 -21.3271 32.4102 -21.3271 53.3271c0 10.8516 1.66016 20.0781 5.01465 27.6094h-40.1553v-111.688c0 -7.53125 2.69434 -13.7959 8.15527 -18.8291
c5.42578 -5.01465 11.4941 -7.53125 18.2041 -7.53125h166.907c7.53125 0 13.7959 2.69531 18.8291 8.15625c4.96094 5.44336 7.47754 11.4932 7.47754 18.2041zM213.327 219.609c-5.87109 -6.70996 -8.78027 -15.9014 -8.78027 -27.6094
c0 -13.3857 4.58594 -24.6826 13.7959 -33.874c9.19141 -9.22656 20.4883 -13.7959 33.874 -13.7959c13.3672 0 24.6641 4.58691 33.874 13.7959c9.19043 9.19141 13.7949 20.4883 13.7949 33.874c0 10.0303 -3.35449 19.2393 -10.0293 27.6094
c-9.22754 13.3682 -21.7734 20.0781 -37.6396 20.0781c-16.7412 0 -29.6982 -6.70996 -38.8896 -20.0781zM351.375 296.156h-40.1562v-46.4385h45.1719v40.1562v6.28223h-5.01562z" />
    <glyph glyph-name="uniF179" unicode="&#xf179;" 
d="M74.9316 373.068c49.9424 49.96 110.311 74.9316 181.068 74.9316c70.7402 0 131.126 -24.9717 181.068 -74.9316s74.9316 -110.328 74.9316 -181.068c0 -70.7578 -24.9717 -131.126 -74.9316 -181.068s-110.328 -74.9316 -181.068 -74.9316
c-70.7578 0 -131.126 24.9717 -181.068 74.9316s-74.9316 110.311 -74.9316 181.068c0 70.7402 24.9717 131.126 74.9316 181.068zM256 413.029c-61.6289 0 -114.076 -21.668 -157.341 -64.9326c-43.2998 -43.2998 -64.9316 -95.3379 -64.9316 -156.097
c0 -60.7764 21.8447 -113.01 65.5537 -156.719s95.9424 -65.5537 156.719 -65.5537c60.7588 0 112.814 21.6494 156.097 64.9316c43.2832 43.2832 64.9326 95.7295 64.9326 157.341c0 60.7588 -21.668 112.814 -64.9326 156.097
c-43.2822 43.2832 -95.3379 64.9326 -156.097 64.9326zM169.826 105.826v171.087h168.583v-171.087h-168.583z" />
    <glyph glyph-name="uniF183" unicode="&#xf183;" 
d="M11.3682 448l256 -256l-256 -256l-11.3682 11.3682l244.632 244.632l-244.632 243.196z" />
    <glyph glyph-name="uniF16F" unicode="&#xf16f;" 
d="M74.9316 373.068c49.9424 49.96 110.293 74.9316 181.068 74.9316c70.7402 0 131.126 -24.9717 181.068 -74.9316s74.9316 -110.328 74.9316 -181.068c0 -70.7578 -24.9717 -131.126 -74.9316 -181.068s-110.328 -74.9316 -181.068 -74.9316
c-70.7754 0 -131.126 24.9717 -181.068 74.9316s-74.9316 110.311 -74.9316 181.068c0 70.7402 24.9717 131.126 74.9316 181.068zM256 413.029c-61.6289 0 -114.076 -21.668 -157.341 -64.9326c-43.2998 -43.2998 -64.9316 -95.3379 -64.9316 -156.097
c0 -60.7764 21.8447 -113.01 65.5537 -156.719s95.9424 -65.5537 156.719 -65.5537c60.7588 0 112.797 21.6494 156.097 64.9316c43.2832 43.2832 64.9326 95.7295 64.9326 157.341c0 60.7588 -21.668 112.814 -64.9326 156.097
c-43.2998 43.2832 -95.3379 64.9326 -156.097 64.9326zM127.378 175.767v33.71h256v-33.71h-256z" />
    <glyph glyph-name="uniF148" unicode="&#xf148;" 
d="M205.585 253.017l63.6865 194.983v-391.286l-167.14 -120.695l63.668 196.304l-165.8 120.694h205.585z" />
    <glyph glyph-name="uniF184" unicode="&#xf184;" 
d="M502.909 307.128h115.127v-62.1094h-42.4189l-40.9102 -309.019h-452.907l-40.9102 309.019h-40.8896v62.1094h113.599l140.872 140.872l28.7812 -28.7822l-110.561 -110.582h272.653l-112.09 110.582l28.7812 28.7822zM118.144 -21.5811h381.728l31.8193 246.908
h-446.853zM189.345 19.3301v143.909h22.7285v-143.909h-22.7285zM257.508 19.3301v143.909h24.2363v-143.909h-24.2363zM328.709 19.3301v143.909h22.7285v-143.909h-22.7285zM396.872 19.3301v143.909h24.2363v-143.909h-24.2363z" />
    <glyph glyph-name="uniF111" unicode="&#xf111;" 
d="M486.743 -64h-39.2617v85.5664c0 17.7549 -6.10449 32.957 -18.2344 45.5859c-12.1494 12.6279 -27.1328 18.9326 -44.8877 18.9326h-281.955c-17.7754 0 -32.958 -6.30469 -45.5859 -18.9326c-12.6289 -12.6289 -18.9326 -27.8506 -18.9326 -45.5859v-85.5664h-37.8857
v85.5664c0 28.0498 10.0352 52.1094 30.165 72.2393c20.1094 20.1094 44.1895 30.1641 72.2393 30.1641h281.955c28.0498 0 52.1094 -10.0547 72.2393 -30.1641c20.1094 -20.1299 30.1641 -44.1895 30.1641 -72.2393v-85.5664h-0.0195312zM242.673 196.908
c-26.1738 0 -48.6377 9.5752 -67.3311 28.748c-18.7129 19.1514 -28.0498 41.8545 -28.0498 68.0293v58.9326c0 26.1748 9.33691 48.6191 28.0498 67.332c18.7129 18.6934 41.1572 28.0498 67.3311 28.0498c26.1748 0 48.6191 -9.35645 67.332 -28.0498
c18.7129 -18.7129 28.0498 -41.1572 28.0498 -67.332v-58.9121c0.917969 -26.1748 -7.94043 -48.8779 -26.6533 -68.0303c-18.7129 -19.1719 -41.6162 -28.7676 -68.7285 -28.7676zM284.05 393.297c-11.7109 11.2119 -25.4766 16.8379 -41.377 16.8379
c-15.9199 0 -29.4658 -5.60645 -40.6777 -16.8379c-11.2119 -11.2324 -16.8379 -24.7783 -16.8379 -40.6787v-58.9121c0 -15.9209 5.60547 -29.4668 16.8379 -40.6787c11.2314 -11.2119 24.7578 -16.8379 40.6777 -16.8379c15.9004 0 29.4668 5.60645 40.6787 16.8379
c11.2119 11.2324 16.8379 24.7578 16.8379 40.6787v58.9121c0.917969 15.9004 -4.44922 29.4463 -16.1396 40.6787z" />
    <glyph glyph-name="uniF110" unicode="&#xf110;" 
d="M375.552 260.224c0 -35.0557 -8.97266 -67.4043 -26.9189 -97.0127c-17.9639 -29.625 -42.373 -52.7881 -73.2266 -69.4697l15.0264 -157.724l-101.393 67.6006l-102.656 -67.6006l13.7627 157.724c-30.8896 16.7002 -55.2988 39.8447 -73.2275 69.4697
c-17.9639 29.6084 -26.9189 61.957 -26.9189 97.0127c0 51.7383 18.3379 95.9629 55.085 132.691c36.7109 36.7295 80.9355 55.085 132.691 55.085c51.7373 0 95.9619 -18.3555 132.691 -55.085c36.7109 -36.7285 55.084 -80.9531 55.084 -132.691zM78.8701 151.318
c30.0527 -30.0527 66.3555 -45.0615 108.906 -45.0615s78.8701 15.0264 108.905 45.0615s45.0615 66.3545 45.0615 108.905s-15.0264 78.6572 -45.0615 108.282c-30.0527 29.6084 -66.3545 44.4385 -108.905 44.4385s-78.8711 -14.8301 -108.906 -44.4385
c-30.0527 -29.625 -45.0605 -65.7129 -45.0605 -108.282c0 -42.5684 15.0078 -78.8701 45.0605 -108.905zM162.744 232.682l90.1221 90.1221l23.7861 -23.7852l-113.908 -113.908l-63.8447 62.5977l23.7861 23.7861z" />
    <glyph glyph-name="uniF13C" unicode="&#xf13c;" 
d="M503.695 398.189c14.7402 -14.7598 14.7402 -29.54 0 -44.2803l-386.066 -384.689l-117.629 -33.2197l34.5977 117.629l383.292 386.066c5.5498 5.5293 12.9102 8.30469 22.1396 8.30469c10.1357 0 17.9883 -2.77539 23.5176 -8.30469zM99.6211 -0.334961
l243.543 242.165l-34.5781 35.9756l-243.543 -243.542l-13.835 -48.4336zM366.701 266.726l38.75 37.3535l-35.9756 35.9746l-37.3525 -38.75zM430.347 330.371l47.0557 45.6582l-35.9756 35.9951l-45.6582 -47.0547z" />
    <glyph glyph-name="uniF10F" unicode="&#xf10f;" 
d="M214.756 448v-163.56c0 -56.8809 -14.2197 -108.319 -42.6602 -154.316c-28.4395 -45.998 -65.416 -80.3643 -110.928 -103.12c-40.7988 48.3643 -61.168 103.828 -61.168 166.412c0 63.5146 20.3691 119.241 61.1475 167.12
c40.7588 47.8584 91.9551 77.0059 153.608 87.4639zM257.437 128c15.1504 -65.416 56.3945 -118.999 123.731 -160.708c-38.8975 -20.8545 -80.1416 -31.292 -123.731 -31.292c-43.6309 0 -84.875 10.4375 -123.732 31.292c67.2969 43.5908 108.541 97.1729 123.732 160.708
zM300.096 448c61.6133 -10.458 112.83 -39.6055 153.608 -87.4639c40.7588 -47.8789 61.1484 -103.605 61.1484 -167.12c0 -62.584 -20.4102 -118.048 -61.1484 -166.412c-45.5117 22.7559 -82.4883 57.1025 -110.928 103.12
c-28.4404 45.9775 -42.6602 97.416 -42.6602 154.316v163.56h-0.0205078z" />
    <glyph glyph-name="uniF158" unicode="&#xf158;" 
d="M0 369.999v78.001h76.5889v-78.001h-76.5889zM0 152.999v76.5898h76.5889v-76.5898h-76.5889zM0 -64v76.5889h76.5889v-76.5889h-76.5889zM148.922 369.999v78.001h404.207v-78.001h-404.207zM148.922 152.999v76.5898h404.207v-76.5898h-404.207zM148.922 -64v76.5889
h404.207v-76.5889h-404.207z" />
    <glyph glyph-name="uniF10C" unicode="&#xf10c;" 
d="M341.797 378.511v-442.511h-341.797v442.511h136.154v69.4893h68.0771v-69.4893h137.565zM204.231 310.434h-68.0771v34.0283h-102.105v-374.413h273.72v374.413h-103.537v-34.0283zM109.206 83.5107h123.386c8.51172 0 15.5918 -3.06641 21.2803 -9.21875
c5.66797 -6.17188 8.51172 -13.4736 8.51172 -21.9863v-29.792h-182.95v29.792c0 8.5127 2.84375 15.8145 8.51172 21.9863c5.66797 6.13184 12.748 9.21875 21.2607 9.21875zM121.974 239.513c13.2324 13.2324 29.2881 19.8486 48.2295 19.8486
c18.9199 0 34.9561 -6.61621 48.2285 -19.8486c13.2324 -13.252 19.8486 -29.3086 19.8486 -48.2285c0 -18.9209 -6.61621 -34.9766 -19.8486 -48.2295c-13.252 -13.252 -29.3086 -19.8477 -48.2285 -19.8477c-18.9209 0 -34.9766 6.5957 -48.2295 19.8477
c-13.252 13.2324 -19.8477 29.2891 -19.8477 48.2295c-0.0205078 18.9199 6.5957 34.9766 19.8477 48.2285zM170.203 238.101c-12.2842 0 -22.9346 -4.49805 -31.9111 -13.4736c-8.99609 -8.99707 -13.4736 -20.0908 -13.4736 -33.3232
c0 -13.252 4.25586 -24.1035 12.7676 -32.6162c8.5127 -8.51172 19.3643 -12.7686 32.6172 -12.7686c13.2314 0 24.3262 4.47852 33.3223 13.4746c8.97559 8.97656 13.4736 19.626 13.4736 31.9102c0 13.2324 -4.49805 24.3262 -13.4736 33.3232
c-8.99609 8.97559 -20.0908 13.4736 -33.3223 13.4736zM170.203 430.976c-9.46094 0 -15.1289 -6.17188 -17.0244 -18.4365c0 -11.3359 5.66797 -17.0244 17.0244 -17.0244c12.2637 0 18.4355 5.66895 18.4355 17.0244c0 12.2842 -6.17188 18.4365 -18.4355 18.4365z" />
    <glyph glyph-name="uniF10E" unicode="&#xf10e;" 
d="M74.6729 373.327c49.7578 49.7578 110.206 74.6729 181.327 74.6729c71.085 0 131.766 -24.915 181.952 -74.6729c50.1865 -49.7754 75.2969 -110.242 75.2969 -181.327c0 -71.1035 -25.0928 -131.569 -75.2969 -181.327
c-50.1865 -49.7764 -110.867 -74.6729 -181.952 -74.6729c-71.1211 0 -131.569 24.8965 -181.327 74.6729c-49.7939 49.7578 -74.6729 110.224 -74.6729 181.327s24.8789 131.552 74.6729 181.327zM97.874 33.2676c43.4932 -43.9219 96.1963 -65.874 158.108 -65.874
c61.8936 0 114.828 22.1484 158.75 66.5156c43.9219 44.333 65.874 97.0537 65.874 158.108c0 61.0557 -21.9521 113.758 -65.874 158.108c-43.9219 44.332 -96.8389 66.499 -158.732 66.499c-61.0732 0 -113.562 -21.9521 -157.483 -65.874
s-65.874 -96.8389 -65.874 -158.751c-0.0175781 -61.9121 21.7197 -114.811 65.2314 -158.732zM235.922 321.249v-80.3125c0 -27.6094 -6.90723 -52.916 -20.7031 -75.9219c-13.7959 -23.0225 -32 -39.959 -54.5938 -50.8281
c-20.0781 22.5947 -30.126 49.7578 -30.126 81.5615c0 30.9287 10.0293 58.3604 30.126 82.1865c20.0957 23.8252 45.1709 38.2998 75.2969 43.3145zM257.249 164.391c7.53223 -30.9473 27.6104 -57.3076 60.2344 -79.0635
c-17.5615 -10.0303 -37.6396 -15.0625 -60.2344 -15.0625s-42.6719 5.01465 -60.2344 15.0625c32.625 21.7559 52.7031 48.1162 60.2344 79.0635zM278.577 321.249c30.126 -5.01465 55.2188 -19.4531 75.2969 -43.2969s30.126 -51.2568 30.126 -82.1865
c0 -31.8037 -10.0303 -58.9844 -30.126 -81.5615c-22.5947 10.8516 -40.7812 27.8057 -54.5947 50.8291c-13.7959 23.0049 -20.7021 48.3125 -20.7021 75.9219v80.2939z" />
    <glyph glyph-name="uniF10D" unicode="&#xf10d;" 
d="M47.6357 285.855l25.6084 -25.6074l-41.2441 -41.2236l-25.6084 27.0234c-8.53613 8.53613 -8.53613 17.0723 0 25.6084l14.2402 14.1992c9.44629 9.4668 18.4883 9.4668 27.0039 0zM51.9043 199.1l41.2432 41.2441l263.12 -263.12v-41.2441h-41.2637zM421.704 448
l145.072 -143.656v-368.364h-164.977v38.3926h125.169v307.216h-126.584v126.584h-206.24v-179.196h-38.4121v219.024h265.972z" />
    <glyph glyph-name="uniF138" unicode="&#xf138;" 
d="M74.4912 372.886c49.6367 50.082 109.938 75.1143 180.886 75.1143c70.9121 0 131.445 -25.0322 181.509 -75.1143c50.0645 -50.082 75.1143 -110.597 75.1143 -181.509c0 -70.9482 -25.0322 -131.249 -75.1143 -180.886s-110.597 -74.4912 -181.509 -74.4912
c-70.9482 0 -131.249 24.8545 -180.886 74.4912c-49.6729 49.6367 -74.4912 109.938 -74.4912 180.886c0 70.9121 24.8184 131.445 74.4912 181.509zM97.6357 33.6533c43.3877 -43.4053 95.9619 -65.0898 157.724 -65.0898c61.7432 0 114.549 21.8984 158.364 65.7129
c43.8145 43.8154 65.7129 96.1758 65.7129 157.101c0 61.7432 -21.8984 114.549 -65.7129 158.364c-43.8154 43.8154 -96.6035 65.7139 -158.364 65.7139c-60.9248 0 -113.285 -21.8984 -157.101 -65.7139s-65.7139 -96.6035 -65.7139 -158.364
c0 -61.7793 21.6855 -114.354 65.0908 -157.724zM131.445 306.549l22.5215 22.5225l137.694 -137.694l-137.694 -136.448l-22.54 22.54l115.173 113.908zM246.617 306.549l22.54 22.54l136.447 -137.694l-136.447 -136.447l-22.54 22.5391l113.908 113.908z" />
    <glyph glyph-name="uniF191" unicode="&#xf191;" 
d="M512 425.244l-231.808 -233.244l231.828 -234.68l-22.7559 -21.3408l-233.265 231.828l-233.244 -231.808l-22.7559 21.3203l233.244 234.68l-233.244 233.244l22.7559 22.7559l233.244 -233.244l233.265 233.244z" />
    <glyph glyph-name="uniF15D" unicode="&#xf15d;" 
d="M255.284 -64l-255.284 255.284l255.284 256.716l24.1045 -22.6924l-234.004 -234.023l234.023 -232.592z" />
    <glyph glyph-name="uniF165" unicode="&#xf165;" 
d="M183.464 27.0244c10.4375 0 19.1963 -3.56055 26.3164 -10.6602s10.6602 -15.8994 10.6602 -26.3164v-54.0479h-220.44v54.0479c0 10.417 3.78223 19.1963 11.3682 26.3164c7.58496 7.12012 16.1211 10.6602 25.6074 10.6602h146.488zM109.512 246.048
c25.6084 0 47.4141 -8.77832 65.416 -26.3154c18.0029 -17.5576 27.0244 -39.1201 27.0244 -64.708s-9.02148 -47.1914 -27.0244 -64.708c-18.0225 -17.5576 -39.8281 -26.3164 -65.416 -26.3164s-47.1699 8.75879 -64.708 26.3164
c-17.5576 17.5371 -26.3154 39.1201 -26.3154 64.708s9.00098 47.1504 27.0234 64.708c18.0029 17.5371 39.3223 26.3154 64 26.3154zM109.512 220.44c-18.0225 0 -33.416 -6.39258 -46.2197 -19.1963s-19.1963 -28.2383 -19.1963 -46.2197
c0 -18.9736 6.39258 -34.8525 19.1963 -47.6367c12.8037 -12.7832 28.2178 -19.1953 46.2197 -19.1953c18.0029 0 33.6387 6.61426 46.9287 19.9033c13.2686 13.2695 19.9033 28.9053 19.9033 46.9287c0 18.002 -6.3916 33.416 -19.1963 46.2197
c-12.8037 12.8037 -28.6621 19.1963 -47.6357 19.1963zM192 421.684c18.0029 17.5381 39.3428 26.3164 64 26.3164s46.2197 -9.02148 64.708 -27.0244c18.4883 -18.0225 27.7324 -39.3623 27.7324 -64c0 -25.6074 -9.24414 -47.4336 -27.7324 -65.416
c-18.4883 -18.0225 -40.0508 -27.0234 -64.708 -27.0234c-25.6084 0 -47.1709 9.00098 -64.708 27.0234c-17.5576 17.9824 -26.3164 39.8086 -26.3164 65.416c0 25.6084 9.02148 47.1504 27.0244 64.708zM256 422.392c-18.0225 0 -33.416 -6.3916 -46.2197 -19.1953
c-12.8047 -12.8047 -19.1963 -28.6826 -19.1963 -47.6367c0 -18.9727 6.3916 -34.8516 19.1963 -47.6357c12.8037 -12.7832 28.2168 -19.1953 46.2197 -19.1953c18.9736 0 34.8525 6.3916 47.6357 19.1953c12.7842 12.8047 19.1963 28.6631 19.1963 47.6357
c0 18.9541 -6.3916 34.8525 -19.1963 47.6367c-12.8037 12.7832 -28.6621 19.1953 -47.6357 19.1953zM476.46 27.0244c9.4668 0 17.7803 -3.56055 24.8799 -10.6602c7.10059 -7.09961 11.1455 -15.8994 12.0967 -26.3164v-54.0479h-220.461v54.0479
c0 10.417 3.7832 19.1963 11.3682 26.3164c7.58594 7.12012 16.1211 10.6602 25.6084 10.6602h146.508zM402.488 246.048c25.6074 0 47.4131 -8.77832 65.416 -26.3154c18.002 -17.5576 27.0234 -39.1201 27.0234 -64.708s-9.02148 -47.1914 -27.0234 -64.708
c-18.0234 -17.5576 -39.8281 -26.3164 -65.416 -26.3164c-24.6777 0 -45.998 8.75879 -64 26.3164c-18.0234 17.5371 -27.0244 39.1201 -27.0244 64.708s9.00098 47.1504 27.0244 64.708c18.002 17.5371 39.3428 26.3154 64 26.3154zM402.488 220.44
c-18.0234 0 -33.416 -6.39258 -46.2207 -19.1963c-12.8037 -12.8037 -19.1953 -28.2383 -19.1953 -46.2197c0 -18.9736 6.3916 -34.8525 19.1953 -47.6367c12.8047 -12.7832 28.2178 -19.1953 46.2207 -19.1953c18.002 0 33.6377 6.61426 46.9277 19.9033
c13.2695 13.2695 19.9043 28.9053 19.9043 46.9287c0 18.002 -6.39258 33.416 -19.1963 46.2197s-28.6621 19.1963 -47.6357 19.1963z" />
    <glyph glyph-name="uniF145" unicode="&#xf145;" 
d="M361.819 448c50.041 -50.0605 74.8574 -110.14 74.4111 -180.221c-0.466797 -70.0996 -25.7295 -130.18 -75.7705 -180.22c-50.0791 -50.0605 -110.14 -75.0908 -180.22 -75.0908c-70.1006 0 -130.18 25.0303 -180.221 75.0908l25.9424 25.9424
c42.7783 -41.8662 94.2178 -62.7988 154.278 -62.7988s111.479 20.9326 154.277 62.7988c42.7783 41.8457 64.1768 93.3047 64.1768 154.277c0 60.9736 -21.3984 112.412 -64.1768 154.278zM301.739 146.261c-33.6904 -33.6719 -74.1963 -50.5264 -121.519 -50.5264
c-47.3418 0 -87.8486 16.835 -121.52 50.5264c-33.6904 33.6514 -50.5264 73.9443 -50.5264 120.839c0 46.876 16.8359 87.1494 50.5264 120.84c33.6514 33.6514 74.1777 50.5264 121.52 50.5264c47.3223 0 87.8281 -16.8555 121.519 -50.5264
c33.6523 -33.6709 50.5264 -73.9639 50.5264 -120.84c0 -46.8945 -16.874 -87.1875 -50.5264 -120.839zM66.8955 366.074c-26.4082 -30.04 -38.7002 -64.8564 -36.8555 -104.45c1.80566 -39.5938 16.8359 -73.5176 45.0498 -101.713
c27.3027 -29.1465 62.7988 -43.6904 106.49 -43.6904c36.3896 0 69.167 12.291 98.2949 36.8555zM286.729 374.27c-27.3018 29.127 -62.7988 43.6904 -106.489 43.6904c-36.4092 0 -69.1875 -12.292 -98.2949 -36.8555l211.619 -211.62
c26.3896 29.1279 38.9141 63.498 37.5547 103.092s-16.1943 73.4785 -44.3896 101.693zM91.4795 -64v36.8555h177.502v-36.8555h-177.502z" />
    <glyph glyph-name="uniF14D" unicode="&#xf14d;" 
d="M116.133 273.813l601.733 174.187v-512l-381.805 109.076c-2.37695 -16.4404 -9.95898 -29.9023 -22.8711 -40.4629c-12.9365 -10.5596 -27.5752 -15.8389 -43.9902 -15.8389h-89.7334c-18.7676 0 -34.9326 6.73047 -48.3955 20.2432
c-13.4873 13.4629 -20.2188 29.6025 -20.2188 48.3955v43.9902h-17.5908v-22.8711h-93.2617v226.961h93.2617v-22.8721h22.8711v-8.80762zM670.347 -0.666016v383.556l-554.214 -158.347v-66.8623l43.9912 -12.3115l161.875 -45.7422zM290.319 59.1641h1.75195
l-131.947 38.7109v-38.7109c0 -14.0625 7.03125 -21.1191 21.1191 -21.1191h89.7334c12.8867 0 19.3428 7.03125 19.3428 21.1191z" />
    <glyph glyph-name="uniF12D" unicode="&#xf12d;" 
d="M74.4912 372.886c49.6367 50.082 109.938 75.1143 180.886 75.1143c70.9121 0 131.641 -25.0322 182.132 -75.1143c50.4736 -50.0635 75.292 -110.597 74.4912 -181.509c0 -70.9482 -25.0322 -131.249 -75.1143 -180.886
c-50.0635 -49.6729 -110.597 -74.4912 -181.509 -74.4912c-70.9482 0 -131.249 24.8184 -180.886 74.4912c-49.6729 49.6367 -74.4912 109.938 -74.4912 180.886c0 70.9121 24.8184 131.445 74.4912 181.509zM98.2764 34.8994
c42.9785 -43.4053 95.3213 -65.0898 157.101 -65.0898c61.7432 0 114.104 21.6846 157.101 65.0898c42.9775 43.3877 64.4668 95.5527 64.4668 156.478c0 60.9062 -21.5068 113.071 -64.4668 156.477c-42.9961 43.3877 -95.3574 65.0908 -157.101 65.0908
c-61.7793 0 -114.14 -21.7207 -157.101 -65.0908c-42.9961 -43.4053 -64.4668 -95.5703 -64.4668 -156.477c-0.0185547 -60.9248 21.4531 -113.107 64.4668 -156.478zM133.938 210.16l121.422 121.421l122.686 -121.421l-23.7861 -23.7861l-81.3633 80.1172v-214.055
h-33.791v214.055l-81.3633 -80.1172z" />
    <glyph glyph-name="uniF118" unicode="&#xf118;" 
d="M74.6729 373.327c49.7578 49.7578 110.206 74.6729 181.327 74.6729c71.085 0 131.766 -24.915 181.952 -74.6729c50.1865 -49.7754 75.2969 -110.242 75.2969 -181.327c0 -71.1035 -25.0928 -131.569 -75.2969 -181.327
c-50.1865 -49.7764 -110.867 -74.6729 -181.952 -74.6729c-71.1211 0 -131.569 24.8965 -181.327 74.6729c-49.7939 49.7578 -74.6729 110.224 -74.6729 181.327s24.8789 131.552 74.6729 181.327zM97.874 33.2676c43.4932 -43.9219 96.1963 -65.874 158.108 -65.874
c61.8936 0 114.828 22.1484 158.75 66.5156c43.9219 44.333 65.874 97.0537 65.874 158.108c0 61.0557 -21.9521 113.758 -65.874 158.108c-43.9219 44.332 -96.8389 66.499 -158.732 66.499c-61.0732 0 -113.562 -21.9521 -157.483 -65.874
s-65.874 -96.8389 -65.874 -158.751c-0.0175781 -61.9121 21.7197 -114.811 65.2314 -158.732zM306.187 112.955c-35.1416 0 -61.0732 -0.428711 -77.7959 -1.25h-8.78125c-2.5166 0.821289 -6.28223 2.92773 -11.2969 6.28223
c-5.01562 4.17676 -10.8867 12.1191 -17.5615 23.8447c-9.22754 14.2236 -18.8291 32.1963 -28.8594 53.9512c-1.69531 2.5166 -5.46094 10.459 -11.2969 23.8438c-5.87207 13.3682 -10.8867 23.416 -15.0635 30.127c-6.70996 11.707 -12.1357 20.0781 -16.3125 25.0928
c-6.70996 10.8506 -13.7959 17.1328 -21.3271 18.8291h13.7959c29.2695 0 51.0078 -0.838867 65.249 -2.5166c26.7715 -3.35547 47.2422 -9.22754 61.4844 -17.5615c13.3672 -8.37109 25.0928 -25.54 35.1406 -51.4541c2.5166 -6.70996 7.94238 -26.3604 16.3125 -58.9844
c0.821289 -3.35547 2.07031 -8.15625 3.76562 -14.4385c1.66016 -6.28223 2.92676 -11.1006 3.76562 -14.4385c2.5166 -8.37012 3.76562 -12.9932 3.76562 -13.7959c2.5166 -4.21191 4.17676 -6.72852 5.01562 -7.53125zM377.718 111.688h1.24902v-26.3604
c-8.37012 -1.69531 -15.9014 -1.24902 -22.5938 1.25c-7.53223 2.51562 -12.5469 5.01465 -15.0635 7.53125c-0.838867 0.820312 -3.35547 5.44336 -7.53125 13.7959c-1.69531 4.17578 -2.5166 14.6162 -2.5166 31.375c0 27.6094 -0.428711 48.5088 -1.24902 62.751
c0 0.821289 -0.428711 5.21094 -1.25 13.1709c-0.838867 7.94238 -1.69531 13.9922 -2.5166 18.2041c0 1.67773 -0.427734 3.96191 -1.24902 6.90723c-0.838867 2.92676 -1.24902 5.21094 -1.24902 6.90625c-2.5166 6.69336 -5.46094 10.0303 -8.78125 10.0303h1.25h22.5938
c5.01562 0 8.78125 -1.24902 11.2979 -3.76562c1.65918 -1.69531 3.33691 -5.85352 5.01465 -12.5469c0.821289 -1.69531 1.25 -4.38965 1.25 -8.15527c0 -3.7666 0.410156 -6.47852 1.24902 -8.15625c2.5166 -20.0781 3.76562 -40.585 3.76562 -61.4844v-31.375
c0 -7.53125 0.821289 -12.5469 2.5166 -15.0625c2.5166 -3.33789 7.10254 -5.01562 13.8135 -5.01562z" />
    <glyph glyph-name="uniF123" unicode="&#xf123;" 
d="M642.356 448v-98.9512v-413.049h-642.356v427.188v84.8125h642.356zM598.398 -21.583v342.376h-556.004v-342.376h556.004zM340.812 151.169c3.14941 2.07715 6.52148 6.00781 10.2295 11.7715c3.6416 5.74023 6.00879 9.15723 7.05859 10.207
c5.22656 8.37695 7.8623 16.7305 7.8623 25.1289c0 6.27637 -0.558594 10.9902 -1.56348 14.1396c-1.0498 5.22656 -3.14941 9.93945 -6.27637 14.1387c-4.19922 6.27637 -8.4209 10.4531 -12.5527 12.5537c-6.2998 3.14941 -13.626 4.71289 -22.002 4.71289
c-7.34863 0 -14.1396 -1.56348 -20.416 -4.71289c-5.24902 -2.12207 -9.42578 -6.83594 -12.5527 -14.1396c-4.19922 -8.39844 -6.83496 -15.1885 -7.8623 -20.416c-1.0498 -5.24902 -1.56348 -13.625 -1.56348 -25.1279h-40.832c0 17.7793 1.56348 30.8691 4.71289 39.2676
c4.17773 11.5029 9.94043 21.4434 17.2666 29.8418c10.4531 10.4531 19.3662 17.2656 26.6924 20.415c12.5527 5.22754 25.1289 7.86328 37.7041 7.86328s25.1289 -2.63574 37.7041 -7.86328c12.5537 -7.34863 20.9521 -13.625 25.1289 -18.8516
c6.27637 -8.39844 10.9893 -16.7529 14.1387 -25.1289c3.14941 -9.42578 4.71289 -18.3379 4.71289 -26.6924c0 -10.4756 -1.56348 -19.3877 -4.71289 -26.6924c-2.14355 -6.27637 -6.85742 -13.625 -14.1387 -21.9785
c-3.14941 -4.19922 -8.88965 -10.4766 -17.2666 -18.8525c-11.5703 -9.42578 -18.3379 -14.6748 -20.415 -15.7021c-3.14941 -1.0498 -7.08105 -3.68555 -11.7939 -7.86328c-4.71289 -4.19922 -8.13086 -6.83496 -10.208 -7.8623
c-12.5527 -7.34863 -19.3877 -11.5479 -20.416 -12.5527c-4.19922 -3.14941 -9.42578 -7.8623 -15.7021 -14.1396c-5.24902 -5.24902 -8.39844 -10.4756 -9.42578 -15.7021h120.952v-37.7041h-169.624c2.07715 24.0781 6.79004 42.3945 14.1387 54.9697
c9.42676 15.7031 23.0068 29.3057 40.832 40.832c3.14941 2.07715 7.30371 4.95801 12.5527 8.64355c5.22656 3.66406 9.42578 6.52246 12.5537 8.64453c6.23145 4.17676 14.6074 10.4541 25.084 18.8525z" />
    <glyph glyph-name="uniF139" unicode="&#xf139;" 
d="M75.1104 11.1494c-50.0605 50.1006 -75.1104 110.331 -75.1104 180.851c0 70.4805 25.0498 130.79 75.1104 180.851c50.0605 50.0596 110.37 75.1494 180.89 75.1494c70.4805 0 130.275 -25.0498 179.465 -75.1104c49.1104 -50.0996 73.7256 -110.409 73.7256 -180.85
c0 -70.5205 -24.6152 -130.79 -73.7256 -180.851c-49.1895 -50.0996 -108.984 -75.1104 -179.465 -75.1104c-70.5195 -0.0791016 -130.79 24.9707 -180.89 75.0703zM701.2 11.1494c-50.0996 50.1006 -75.1104 110.331 -75.1104 180.851
c0 70.4805 25.0498 130.79 75.1104 180.851c50.0605 50.0596 110.33 75.1494 180.851 75.1494c70.4795 0 130.789 -25.0498 180.85 -75.1104s75.1104 -110.409 75.1104 -180.85c0 -70.5205 -25.0498 -130.79 -75.1104 -180.851s-110.409 -75.1104 -180.85 -75.1104
c-70.5205 -0.0791016 -130.79 24.9707 -180.851 75.0703z" />
    <glyph glyph-name="uniF182" unicode="&#xf182;" 
d="M256 -64l-256 256l256 256l11.3682 -12.8037l-244.612 -243.196l244.632 -244.632z" />
    <glyph glyph-name="uniF119" unicode="&#xf119;" 
d="M509.847 3.7959c-43.7461 -1.125 -106.588 -0.574219 -188.456 1.6748c-8.99805 0 -16.2725 0.550781 -21.8721 1.67578c-8.99805 3.37402 -17.9482 8.42383 -26.9229 15.1484c-12.3721 10.0986 -27.4961 28.5967 -45.4199 55.5195
c-21.3232 33.6465 -44.3447 77.9658 -68.9932 132.936c-26.9463 58.2949 -48.2686 102.064 -63.9434 131.236c-11.2471 20.1973 -24.6963 40.9453 -40.3945 62.2686c-16.8242 23.5479 -34.7959 38.1211 -53.8447 43.7451h33.6465
c69.543 -2.27344 122.837 -5.0498 159.858 -8.42383c68.3945 -6.72461 118.888 -20.1973 151.434 -40.3711c35.8965 -23.5479 64.4941 -65.6182 85.8164 -126.188c10.0986 -29.1953 23.5479 -77.9902 40.3955 -146.385c8.97363 -42.6445 13.999 -65.6182 15.1475 -68.9922
c5.60059 -20.1982 8.97461 -31.3975 10.0996 -33.6475c4.45117 -12.3721 8.9502 -19.1201 13.4492 -20.1973zM684.828 3.7959h1.67578v-65.6182c-19.0967 -3.37402 -37.0215 -2.7998 -53.8447 1.6748c-14.5977 3.375 -26.9219 9.50098 -37.0205 18.499
c-4.49902 3.37402 -10.6738 14.5498 -18.499 33.6465c-3.37402 8.97461 -5.0498 34.2207 -5.0498 75.7168c0 51.5713 -1.6748 102.64 -5.04883 153.109c-2.27344 33.6475 -5.0498 58.8945 -8.42383 75.7178c-2.27344 15.6982 -5.0498 27.4727 -8.42383 35.3457
c-6.72461 15.6982 -13.4492 23.5479 -20.1973 23.5479h5.04883h55.5195c13.4492 0 22.4238 -2.7998 26.9229 -8.42383c1.10059 -1.125 5.04883 -11.7734 11.7734 -31.9717c2.22559 -6.72461 4.47559 -19.0967 6.72461 -37.0205
c4.47559 -33.6465 7.8252 -83.5664 10.0986 -149.76c1.10156 -16.8232 1.67578 -42.6445 1.67578 -77.3916c0 -17.9482 1.6748 -29.7227 5.04883 -35.3457c5.64844 -10.0518 16.2969 -14 32.0195 -11.7266z" />
    <glyph glyph-name="uniF13D" unicode="&#xf13d;" 
d="M360.671 448l149.921 -149.921v-212.158l-149.921 -149.921h-210.75l-149.921 149.921v212.158l149.921 149.921h210.75zM472.393 101.47v179.632l-125.883 127.291h-181.04l-127.29 -127.291v-179.632l127.29 -127.29h179.632zM230.544 266.96v49.5049h50.9121v-49.5049
l-14.1406 -125.883h-24.0381zM238.328 73.1875c-5.18945 4.70703 -7.78418 10.8223 -7.78418 18.3857c0 7.54297 2.57422 13.6582 7.78418 18.3857c5.16992 4.70703 11.0635 7.08105 17.6816 7.08105c6.57812 0 12.4922 -2.37402 17.6816 -7.08105
c5.16992 -4.72754 7.78516 -10.8623 7.78516 -18.3857c0 -7.56348 -2.61523 -13.6787 -7.78516 -18.3857c-5.18945 -4.72656 -11.1035 -7.08008 -17.6816 -7.08008c-6.61816 0.0195312 -12.5312 2.35352 -17.6816 7.08008z" />
    <glyph glyph-name="uniF14A" unicode="&#xf14a;" 
d="M0 390.773v57.2266h572.247v-57.2266h-572.247zM0 164.886v57.2266h572.247v-57.2266h-572.247zM0 -64v57.2266h572.247v-57.2266h-572.247z" />
    <glyph glyph-name="uniF136" unicode="&#xf136;" 
d="M0 448h487.896v-512h-346.073l-141.822 141.822v370.178zM449.591 -25.6953v433.979h-411.307v-307.769h124.818l1.41211 -126.23h285.076v0.0205078zM358.821 284.897l-130.485 -130.486l-75.1777 76.5898l25.5361 26.9482l49.6416 -48.2295l102.105 102.106z" />
    <glyph glyph-name="uniF15C" unicode="&#xf15c;" 
d="M111.607 249.012l109.191 -38.8242l-109.191 -41.2402l-111.607 41.2402zM344.555 312.097l-109.192 -41.2402l-109.191 41.2402l109.191 38.8594zM126.171 108.277l109.191 38.8242l109.192 -38.8242l-109.192 -41.2402zM475.591 406.76l-111.607 -38.8242
l-111.642 38.8242l111.642 41.2402zM368.85 249.012l109.192 -38.8242l-109.192 -41.2402l-111.642 41.2402zM492.57 270.856l-111.607 41.2402l111.607 38.8252l109.191 -38.8252zM380.963 108.277l111.607 38.8242l109.191 -38.8242l-109.191 -41.2402zM380.963 -22.7598
l111.607 41.2402l109.191 -41.2402l-109.191 -41.2402zM732.799 406.76l-111.607 -38.8242l-111.607 38.8242l111.607 41.2402zM626.058 249.012l109.191 -38.8242l-109.191 -41.2402l-111.607 41.2402zM749.812 270.856l-111.607 41.2402l111.607 38.8252l109.192 -38.8252
zM638.171 108.277l111.607 38.8242l109.191 -38.8242l-109.191 -41.2402zM883.266 249.012l109.191 -38.8242l-109.191 -41.2402l-111.607 41.2402z" />
    <glyph glyph-name="uniF11D" unicode="&#xf11d;" 
d="M437.068 10.9316c-49.9424 -49.9424 -110.328 -74.9316 -181.068 -74.9316c-70.7578 0 -131.126 24.9717 -181.068 74.9316s-74.9316 110.293 -74.9316 181.068c0 70.7402 24.9717 131.126 74.9316 181.068s110.311 74.9316 181.068 74.9316
c70.7402 0 131.126 -24.9717 181.068 -74.9316s74.9316 -110.328 74.9316 -181.068c0 -70.7754 -24.9717 -131.126 -74.9316 -181.068zM419.592 355.592c-44.9512 44.9521 -99.4941 67.4365 -163.592 67.4365c-64.1152 0 -118.836 -22.6973 -164.214 -68.0576
c-45.3955 -45.3965 -68.0576 -99.708 -68.0576 -162.971c0 -64.1152 22.6621 -118.854 68.0576 -164.214c45.3779 -45.3955 100.099 -68.0576 164.214 -68.0576c63.2627 0 117.574 22.6621 162.971 68.0576c45.3779 45.3604 68.0576 100.099 68.0576 164.214
c0 64.0977 -22.4844 118.641 -67.4365 163.592zM172.33 192c-12.4854 -2.50391 -22.0586 1.65137 -28.7188 12.4854c-6.67773 10.7988 -8.73828 20.7979 -6.25195 29.9805c2.50488 21.6318 11.2432 33.2832 26.2324 34.9697
c8.3125 0.817383 15.6113 -2.30859 21.8457 -9.35938c6.25195 -7.08691 9.78613 -13.96 10.6211 -20.6025c4.15527 -27.4932 -3.74805 -43.3174 -23.7285 -47.4736zM343.417 147.048c1.66992 -1.68652 3.53418 -3.95996 5.6123 -6.87305
c2.06055 -2.93066 4.7959 -9.18262 8.11719 -18.7373c3.32129 -9.59082 2.05957 -19.7852 -3.74805 -30.6016c-4.17383 -10.834 -12.29 -17.4766 -24.3496 -19.9805c-12.0771 -2.50391 -23.1064 -2.50391 -33.0879 0l-14.9893 3.74707
c-1.6875 0.817383 -3.96094 1.43945 -6.87402 1.86523c-2.93066 0.408203 -8.54297 0.817383 -16.8545 1.24316c-8.33008 0.408203 -15.8242 -0.212891 -22.4844 -1.86426l-44.9521 -3.74805c-18.3115 -0.834961 -30.4062 10.7988 -36.2139 34.9707
c-1.6875 8.31152 -1.24316 16.2334 1.24316 23.7275c2.48633 7.49512 5.80762 13.3027 9.98145 17.4766l12.4854 12.4854l6.25195 4.99121l7.49512 4.99023c4.99023 4.15625 9.98145 8.93359 14.9902 14.3691c4.99023 5.39844 9.16406 11.0293 12.4854 16.8545
c7.49512 12.4854 18.1152 19.3584 31.8447 20.6016c13.7285 1.24316 27.6709 -6.87305 41.8262 -24.3496c5.80762 -8.3291 12.9111 -16.6592 21.2236 -24.9707c8.31152 -8.33008 15.3984 -14.9902 21.2236 -19.9805zM247.262 92.0967v89.9043h-17.4766v-23.7285h-19.9805
c-12.4854 -0.833984 -21.2236 -8.73828 -26.2324 -23.7275c-1.68652 -9.18262 -0.425781 -17.9209 3.74805 -26.2324c4.15527 -8.33008 11.6504 -13.7285 22.4844 -16.2334h37.457v0.0175781zM224.777 249.438c-8.33008 0 -14.9902 3.74707 -19.9805 11.2422
c-4.99121 7.49512 -7.49512 17.0508 -7.49512 28.7188c0 10.7988 2.68164 20.1758 8.11621 28.0977c5.41699 7.90332 11.8643 11.8633 19.3594 11.8633c7.49414 0 14.1553 -3.95996 19.9805 -11.8633c5.80762 -7.92188 8.73828 -17.2988 8.73828 -28.0977
c0 -10.834 -2.93066 -20.1934 -8.73828 -28.0967c-5.8252 -7.92188 -12.4863 -11.8643 -19.9805 -11.8643zM213.534 143.301v1.24316h14.9902v-36.2139h-13.7285c-6.67871 -0.834961 -11.2432 2.91309 -13.7295 11.2422
c-0.833984 4.99121 -0.425781 9.55566 1.24316 13.7295c2.4873 4.99023 6.23438 8.31152 11.2246 9.99902zM314.698 92.0967v63.6895h-17.4766v-47.4561h-17.4932c-3.33984 0 -5.43555 1.65234 -6.25195 4.99121v42.4648h-17.4766v-47.4561
c0.817383 -7.49512 6.66016 -12.9297 17.4766 -16.2334h41.2217zM292.214 246.951c-19.1641 2.50391 -27.0498 15.8066 -23.7285 39.9609c1.66992 8.31152 6.25195 16.8545 13.7295 25.5928c7.47656 8.73828 14.5459 12.2725 21.2236 10.6211
c7.49512 -1.6875 13.9238 -6.67773 19.3584 -14.9902c5.41699 -8.3291 7.69043 -16.6592 6.87402 -24.9707c-1.6875 -9.18262 -5.82617 -17.708 -12.4863 -25.5928c-6.67773 -7.93945 -14.9717 -11.4736 -24.9707 -10.6211zM375.884 218.215
c0 -27.4756 -9.18262 -41.6484 -27.4756 -42.4658c-9.98145 0 -17.4766 2.06055 -22.4854 6.25195c-4.99023 4.15625 -7.9209 8.52441 -8.73828 13.1074c-0.833984 4.56445 -1.24316 10.1768 -1.24316 16.8545c0 25.7881 9.16504 38.7178 27.4756 38.7178
c10.7988 0 18.915 -3.74707 24.3496 -11.2422c5.41699 -7.47754 8.11719 -14.5635 8.11719 -21.2236z" />
    <glyph glyph-name="uniF12E" unicode="&#xf12e;" 
d="M74.4912 372.886c49.6367 50.082 109.938 75.1143 180.886 75.1143c70.9121 0 131.445 -25.0322 181.509 -75.1143c50.0645 -50.082 75.1143 -110.597 75.1143 -181.509c0 -70.9482 -25.0322 -131.249 -75.1143 -180.886
c-50.0635 -49.6729 -110.597 -74.4912 -181.509 -74.4912c-70.9482 0 -131.249 24.8184 -180.886 74.4912c-49.6729 49.6367 -74.4912 109.938 -74.4912 180.886c0 70.9121 24.8184 131.445 74.4912 181.509zM412.478 347.854
c-42.9961 43.3877 -95.3574 65.0908 -157.101 65.0908c-61.7793 0 -114.14 -21.7207 -157.101 -65.0908c-42.9961 -43.4053 -64.4668 -95.5703 -64.4668 -156.477c0 -60.9248 21.4707 -113.107 64.4668 -156.478c42.9785 -43.4053 95.3213 -65.0898 157.101 -65.0898
c61.7432 0 114.104 21.6846 157.101 65.0898c42.9775 43.3877 64.4668 95.5527 64.4668 156.478c0 60.9062 -21.4893 113.071 -64.4668 156.477zM326.734 83.7178l-88.876 86.3838v197.781h35.0547v-182.772l77.6074 -77.6064z" />
    <glyph glyph-name="uniF11F" unicode="&#xf11f;" 
d="M74.6729 373.327c49.7578 49.7578 110.206 74.6729 181.327 74.6729c71.085 0 131.766 -24.915 181.952 -74.6729c50.1865 -49.793 75.2969 -110.242 75.2969 -181.327c0 -71.1211 -25.0928 -131.569 -75.2969 -181.327
c-50.1865 -49.7939 -110.867 -74.6729 -181.952 -74.6729c-71.1211 0 -131.569 24.8789 -181.327 74.6729c-49.7939 49.7578 -74.6729 110.206 -74.6729 181.327c0 71.1035 24.8789 131.552 74.6729 181.327zM97.874 33.2676
c43.4932 -43.9219 96.1963 -65.874 158.108 -65.874c61.8936 0 114.828 22.1484 158.75 66.5156c43.9219 44.333 65.874 97.0352 65.874 158.108c0 61.0557 -21.9521 113.758 -65.874 158.108c-43.9219 44.332 -96.8389 66.499 -158.732 66.499
c-61.0732 0 -113.562 -21.9521 -157.483 -65.874s-65.874 -96.8389 -65.874 -158.751c-0.0175781 -61.9121 21.7197 -114.811 65.2314 -158.732zM169.405 331.297v-1.24902h62.751v-74.0303c27.6094 10.8516 55.2188 8.35254 82.8291 -7.53125
c23.415 -13.3857 38.46 -33.0713 45.1709 -58.9854c6.69238 -25.9492 3.33691 -50.6318 -10.0303 -74.0293c-13.3857 -23.4336 -32.8389 -38.4971 -58.3604 -45.1719c-25.5391 -6.70996 -50.0078 -3.35547 -73.4053 10.0303
c-30.9648 18.3828 -47.2773 45.9922 -48.9375 82.8291v168.138h-0.0175781zM264.781 200.781c-12.5469 0 -22.1846 -5.87207 -28.8594 -17.5625l-3.76562 -7.53125c-4.19434 -18.418 1.24902 -31.8037 16.3125 -40.1562c8.35254 -5.01465 17.3477 -6.28223 26.9844 -3.76562
c9.60254 2.5166 16.9375 7.94238 21.9521 16.3125c5.01562 8.35254 6.05078 17.1328 3.1416 26.3604c-2.94531 9.19141 -8.58496 16.3125 -16.9375 21.3271c-5.87109 3.33789 -12.1533 5.01562 -18.8281 5.01562z" />
    <glyph glyph-name="uniF16A" unicode="&#xf16a;" 
d="M74.4912 372.886c49.6367 50.082 109.938 75.1143 180.886 75.1143c70.9121 0 131.445 -25.0322 181.509 -75.1143c50.0645 -50.082 75.1143 -110.597 75.1143 -181.509c0 -70.9307 -25.0322 -131.249 -75.1143 -180.886
c-50.0635 -49.6553 -110.597 -74.4912 -181.509 -74.4912c-70.9307 0 -131.249 24.8359 -180.886 74.4912c-49.6553 49.6367 -74.4912 109.955 -74.4912 180.886c0 70.9121 24.8359 131.445 74.4912 181.509zM412.478 347.854
c-42.9961 43.3877 -95.3398 65.0908 -157.101 65.0908c-61.7793 0 -114.122 -21.7207 -157.101 -65.0908c-42.9961 -43.4053 -64.4668 -95.5703 -64.4668 -156.477c0 -60.9248 21.4707 -113.107 64.4668 -156.478c42.9785 -43.4053 95.3213 -65.0898 157.101 -65.0898
c61.7607 0 114.104 21.7021 157.101 65.0898c42.9775 43.3877 64.4668 95.5527 64.4668 156.478c0 60.9062 -21.4893 113.089 -64.4668 156.477zM181.509 300.282l201.539 -110.169l-201.539 -108.906v219.075z" />
    <glyph glyph-name="uniF131" unicode="&#xf131;" 
d="M0 228.177v219.823h219.823v-219.823h-219.823zM0 -64v218.411h219.823v-218.411h-219.823zM295.001 228.177v219.823h219.823v-219.823h-219.823zM295.001 -64v218.411h219.823v-218.411h-219.823z" />
    <glyph glyph-name="uniF12F" unicode="&#xf12f;" 
d="M395.93 448c51.1904 0 95.293 -17.0635 132.26 -51.1904c36.9424 -34.127 58.2783 -76.2393 64.0059 -126.289c31.8457 -13.6406 57.4287 -34.9756 76.7979 -64.0059c19.3447 -29.0049 29.0059 -61.1904 29.0059 -96.4336c0 -48.9326 -17.0635 -90.1963 -51.1904 -123.74
c-34.127 -33.5684 -75.0986 -50.3408 -122.866 -50.3408h-349.861c-48.9326 0 -90.1963 16.7725 -123.74 50.3408c-33.5684 33.5439 -50.3408 74.8076 -50.3408 123.74c0 48.9082 17.0635 90.4629 51.1904 124.59s75.0986 51.1904 122.891 51.1904
c12.5244 0 21.6025 -0.583008 27.3066 -1.69922c7.93652 47.792 30.1211 87.04 66.5547 117.77c36.4082 30.7041 79.0791 46.0684 127.987 46.0684zM395.93 401.932c-37.5488 0 -70.2686 -11.6758 -98.1328 -34.9766c-27.8887 -23.3262 -44.6611 -53.7637 -50.3408 -91.3125
l-8.51953 -46.0938l-44.3701 8.54395c-4.5625 1.11719 -11.3838 1.69922 -20.4854 1.69922c-35.292 0 -65.4385 -12.791 -90.4629 -38.3984c-25.0488 -25.6074 -37.5498 -56.0693 -37.5498 -91.3125c0 -35.292 12.501 -65.4385 37.5498 -90.4629
c25 -25.0488 55.1465 -37.5498 90.4629 -37.5498h349.861c35.2432 0 65.4131 12.501 90.4629 37.5498c25 25 37.5488 55.1709 37.5488 90.4629c0 55.7295 -26.1895 94.9775 -78.4971 117.77l-23.8838 11.9414l-3.44629 25.6074
c-4.56348 38.666 -21.0684 71.0938 -49.4912 97.2832c-28.4473 26.1416 -62.04 39.249 -100.706 39.249z" />
    <glyph glyph-name="uniF187" unicode="&#xf187;" 
d="M211.954 367.379c53.7393 53.7393 118.283 80.6211 193.655 80.6211s140.199 -26.8818 194.506 -80.6211c54.2832 -53.7627 80.8809 -118.306 79.793 -193.654c0 -76.46 -26.5977 -141.311 -79.793 -194.506l-29.9316 31.5859
c44.3066 43.2178 66.4824 97.501 66.4824 162.92c0 64.2598 -22.4365 118.851 -67.333 163.747c-44.8975 44.8975 -99.4873 67.334 -163.747 67.334c-64.2842 0 -118.851 -22.4365 -163.748 -67.334c-44.8965 -44.8965 -67.333 -99.4873 -67.333 -163.747v-154.598
l101.402 101.402l29.9307 -31.5869l-152.942 -152.942l-152.896 152.919l29.9316 31.5859l101.402 -101.401v154.598c0 75.3721 26.834 139.892 80.6201 193.678z" />
    <glyph glyph-name="uniF137" unicode="&#xf137;" 
d="M436.886 10.4912c-50.0635 -49.6367 -110.597 -74.4912 -181.509 -74.4912c-70.9307 0 -131.249 24.8545 -180.886 74.4912c-49.6553 49.6367 -74.4912 109.938 -74.4912 180.886c0 70.9121 24.8359 131.445 74.4912 181.509
c49.6367 50.082 109.938 75.1143 180.886 75.1143c70.9121 0 131.445 -25.0322 181.509 -75.1143c50.0645 -50.082 75.1143 -110.597 75.1143 -181.509c0 -70.9482 -25.0322 -131.249 -75.1143 -180.886zM255.377 415.455c-60.9248 0 -113.285 -21.8984 -157.101 -65.7139
c-43.8145 -43.8154 -65.7129 -96.6035 -65.7129 -158.364c0 -61.7793 21.7021 -114.354 65.0898 -157.724c43.3877 -43.4053 95.9619 -65.0898 157.724 -65.0898c61.7607 0 114.549 21.8984 158.364 65.7129c43.8154 43.8154 65.7139 96.1758 65.7139 157.101
c0 61.7432 -21.8984 114.549 -65.7139 158.364s-96.6211 65.7139 -158.364 65.7139zM265.383 77.4688l-22.54 -22.54l-137.694 136.448l137.694 137.694l22.54 -22.54l-115.173 -115.172zM380.555 77.4688l-23.7852 -22.54l-136.448 136.448l136.448 137.694l23.7852 -22.54
l-115.172 -115.172z" />
    <glyph glyph-name="uniF163" unicode="&#xf163;" 
d="M74.9316 373.068c49.9424 49.96 110.293 74.9316 181.068 74.9316c70.7402 0 131.126 -24.9717 181.068 -74.9316s74.9316 -110.328 74.9316 -181.068c0 -70.7578 -24.9717 -131.126 -74.9316 -181.068s-110.328 -74.9316 -181.068 -74.9316
c-70.7754 0 -131.126 24.9717 -181.068 74.9316s-74.9316 110.311 -74.9316 181.068c0 70.7402 24.9717 131.126 74.9316 181.068zM256 413.029c-61.6289 0 -114.076 -21.668 -157.341 -64.9326c-43.2998 -43.2998 -64.9316 -95.3379 -64.9316 -156.097
c0 -60.7764 21.8447 -113.01 65.5537 -156.719s95.9424 -65.5537 156.719 -65.5537c60.7588 0 112.797 21.6494 156.097 64.9316c43.2832 43.2832 64.9326 95.7295 64.9326 157.341c0 60.7588 -21.668 112.814 -64.9326 156.097
c-43.2998 43.2832 -95.3379 64.9326 -156.097 64.9326zM172.33 99.5918v183.573h63.6895v-183.573h-63.6895zM282.232 99.5918v183.573h64.9326v-183.573h-64.9326z" />
    <glyph glyph-name="uniF152" unicode="&#xf152;" 
d="M74.9316 373.068c49.9424 49.96 110.293 74.9316 181.068 74.9316c70.7402 0 131.126 -24.9717 181.068 -74.9316s74.9316 -110.328 74.9316 -181.068c0 -70.7578 -24.9717 -131.126 -74.9316 -181.068s-110.328 -74.9316 -181.068 -74.9316
c-70.7754 0 -131.126 24.9717 -181.068 74.9316s-74.9316 110.311 -74.9316 181.068c0 70.7402 24.9717 131.126 74.9316 181.068zM99.2812 35.2812c43.709 -43.709 95.9424 -65.5537 156.719 -65.5537c60.7588 0 112.797 21.6494 156.097 64.9316
c43.2832 43.2832 64.9326 95.7295 64.9326 157.341c0 60.7588 -21.668 112.814 -64.9326 156.097c-43.2998 43.2832 -95.3379 64.9326 -156.097 64.9326c-61.6289 0 -114.076 -21.668 -157.341 -64.9326c-43.2998 -43.2998 -64.9316 -95.3379 -64.9316 -156.097
c-0.0185547 -60.7764 21.8447 -113.01 65.5537 -156.719zM257.243 295.65c15.8066 15.8066 34.5264 23.7275 56.1943 23.7275c21.6318 0 40.3701 -7.9209 56.1943 -23.7275c15.8066 -15.8242 23.7275 -34.5439 23.7275 -56.1943
c0 -21.668 -7.9209 -40.3877 -23.7275 -56.1943c-15.8242 -15.8242 -34.5625 -23.7275 -56.1943 -23.7275c-12.4854 0 -21.668 1.24316 -27.4756 3.74707l-19.9805 -19.9805h-32.4658v-32.4668h-31.2236v-31.2227h-32.4658v-16.2334h-16.2334
c-9.98145 0 -14.9902 5.41699 -14.9902 16.2334v47.4561l96.1562 97.3984c-0.834961 3.32129 -1.24316 8.3125 -1.24316 14.9902c0 21.6504 7.90332 40.3701 23.7275 56.1943zM337.166 239.456c6.66016 0 12.4854 2.29102 17.4756 6.87305
c4.99121 4.56445 7.49512 10.1768 7.49512 16.8555c0 6.66016 -2.50391 12.4854 -7.49512 17.4756c-4.99023 4.99121 -10.8154 7.49512 -17.4756 7.49512c-6.67871 0 -12.291 -2.50391 -16.8555 -7.49512c-4.58203 -4.99023 -6.87305 -10.8154 -6.87305 -17.4756
c0 -15.8252 7.90332 -23.7285 23.7285 -23.7285z" />
    <glyph glyph-name="uniF144" unicode="&#xf144;" 
d="M74.6729 373.327c49.7578 49.7578 110.206 74.6729 181.327 74.6729c71.085 0 131.766 -24.915 181.952 -74.6729c50.1865 -49.793 75.2969 -110.242 75.2969 -181.327c0 -71.1211 -25.0928 -131.569 -75.2969 -181.327
c-50.1865 -49.7939 -110.867 -74.6729 -181.952 -74.6729c-71.1035 0 -131.569 24.8789 -181.327 74.6729c-49.7764 49.7578 -74.6729 110.206 -74.6729 181.327c0 71.1035 24.8965 131.552 74.6729 181.327zM97.874 33.2676
c43.4932 -43.9219 96.1963 -65.874 158.108 -65.874c61.9111 0 114.828 22.1484 158.75 66.5156c43.9219 44.333 65.874 97.0352 65.874 158.108c0 61.0557 -21.9521 113.758 -65.874 158.108c-43.9219 44.332 -96.8389 66.499 -158.732 66.499
c-61.0732 0 -113.562 -21.9521 -157.483 -65.874s-65.874 -96.8389 -65.874 -158.751c-0.0175781 -61.9121 21.7373 -114.811 65.2314 -158.732zM286.108 318.751c4.17578 -7.53223 8.35254 -15.4912 12.5459 -23.8438c4.17676 -8.37109 8.15625 -15.4922 11.9229 -21.3281
c3.76562 -5.87109 7.31641 -11.2969 10.6719 -16.3115c3.33789 -5.01562 5.83594 -8.78125 7.53223 -11.2979l2.51562 -3.76562l-16.3115 -219.609c-10.8691 -11.7256 -30.9473 -17.5615 -60.2344 -17.5615c-13.3857 0 -24.915 1.44531 -34.5166 4.38965
c-9.62012 2.92773 -16.1162 5.64062 -19.4531 8.15625l-5.01562 5.01562l-16.3125 219.609c16.7412 24.2539 31.7861 50.1865 45.1719 77.7959c10.8506 19.2393 19.2393 40.9775 25.0928 65.249v-186.984c-8.37012 -2.5166 -12.5469 -7.95996 -12.5469 -16.3125
c0 -11.7256 5.83594 -17.5615 17.5615 -17.5615c11.708 0 17.5625 5.83594 17.5625 17.5615c0 7.53125 -3.7666 12.957 -11.2979 16.3125v186.984c5.0332 -19.2568 13.3857 -41.4053 25.1113 -66.498z" />
    <glyph glyph-name="uniF13A" unicode="&#xf13a;" 
d="M74.6729 373.327c49.7578 49.7578 110.206 74.6729 181.327 74.6729c71.085 0 131.766 -24.915 181.952 -74.6729c50.1865 -49.793 75.2969 -110.242 75.2969 -181.327c0 -71.1211 -25.0928 -131.569 -75.2969 -181.327
c-50.1865 -49.7939 -110.867 -74.6729 -181.952 -74.6729c-71.1211 0 -131.569 24.8789 -181.327 74.6729c-49.7939 49.7578 -74.6729 110.206 -74.6729 181.327c0 71.1035 24.8789 131.552 74.6729 181.327zM97.874 33.2676
c43.4932 -43.9219 96.1963 -65.874 158.108 -65.874c61.8936 0 114.828 22.1484 158.75 66.5156c43.9219 44.333 65.874 97.0352 65.874 158.108c0 61.0557 -21.9521 113.758 -65.874 158.108c-43.9219 44.332 -96.8389 66.499 -158.732 66.499
c-61.0732 0 -113.562 -21.9521 -157.483 -65.874s-65.874 -96.8389 -65.874 -158.751c-0.0175781 -61.9121 21.7197 -114.811 65.2314 -158.732zM141.171 154.985c-11.2969 11.2969 -16.9365 24.8789 -16.9365 40.7803c0 15.8838 5.63965 29.4834 16.9365 40.7812
c11.2979 11.2969 24.8789 16.9365 40.7812 16.9365c15.8838 0 29.4834 -5.63965 40.7803 -16.9365c11.2979 -11.2979 16.9375 -24.915 16.9375 -40.7812c0 -15.9014 -5.63965 -29.4834 -16.9375 -40.7803c-11.2969 -11.2979 -24.9141 -16.9375 -40.7803 -16.9375
c-15.9023 0 -29.4834 5.63965 -40.7812 16.9375zM282.967 154.985c-11.2969 11.2969 -16.9365 24.8789 -16.9365 40.7803c0 15.8838 5.63965 29.4834 16.9365 40.7812c11.2979 11.2969 24.8789 16.9365 40.7812 16.9365c15.8838 0 29.4834 -5.63965 40.7803 -16.9365
c11.2979 -11.2979 16.9375 -24.915 16.9375 -40.7812c0 -15.9014 -5.63965 -29.4834 -16.9375 -40.7803c-11.2969 -11.2979 -24.9141 -16.9375 -40.7803 -16.9375c-15.8838 0 -29.4834 5.63965 -40.7812 16.9375z" />
    <glyph glyph-name="uniF172" unicode="&#xf172;" 
d="M528.893 -41.9141l-22.0859 -22.0859l-159.83 159.83c-40.7344 -38.1279 -87.9365 -57.1826 -141.645 -57.1826c-56.332 0 -104.606 20.1455 -144.896 60.4355s-60.4355 88.5645 -60.4355 144.896c0 56.3145 20.1455 104.386 60.4355 144.251
c40.2715 39.8281 88.5645 59.7695 144.878 59.7695c56.3145 0 104.386 -19.9414 144.25 -59.7695c39.8281 -39.8467 59.7705 -87.9365 59.7705 -144.251c0 -45.9268 -13.8613 -87.5107 -41.584 -124.751zM205.313 71.1387c48.5146 0 89.4521 16.6709 122.812 50.0303
c33.3408 33.3408 50.0303 74.2783 50.0303 122.811c0 48.5146 -16.6895 89.4521 -50.0303 122.812c-33.3594 33.3408 -74.2969 50.0303 -122.812 50.0303c-48.5332 0 -89.4697 -16.6895 -122.811 -50.0303c-33.3604 -33.3594 -50.0303 -74.2969 -50.0303 -122.812
c0 -47.6455 16.8926 -88.3604 50.6768 -122.146c33.7842 -33.7842 74.5186 -50.6953 122.164 -50.6953z" />
    <glyph glyph-name="uniF109" unicode="&#xf109;" 
d="M370.872 255.994h-1.63379v41.0293c0 9.84863 -3.29102 18.04 -9.84863 24.6221c-6.55859 6.58105 -14.7734 9.84863 -24.6221 9.84863s-18.3213 -3.29102 -25.4395 -9.84863c-7.1416 -6.55859 -10.665 -14.7734 -10.665 -24.6221v-213.338
c-1.09766 -41.5889 -16.1504 -76.5732 -45.1367 -105.022c-28.9863 -28.4736 -63.7373 -42.6631 -104.207 -42.6631c-40.4688 0 -75.4766 14.4932 -105.022 43.4795c-29.5234 28.9863 -44.2969 64.2744 -44.2969 105.863v93.541h114.872v-93.541
c0 -9.84863 3.29102 -18.04 9.84863 -24.6221c6.55859 -6.58105 14.7734 -9.84863 24.6221 -9.84863c9.84961 0 18.2979 3.29102 25.4395 9.84863c7.11816 6.55859 10.665 14.7734 10.665 24.6221v216.604c2.19434 40.4463 17.4814 74.917 45.9541 103.39
c28.4258 28.4502 62.874 42.6631 103.366 42.6631c40.4453 0 74.916 -14.2129 103.39 -42.6631c28.4492 -28.4727 43.7363 -62.9199 45.9531 -103.39v-47.5869l-68.918 -19.6973zM554.663 178.884h116.506v-93.541c0 -40.4688 -14.7734 -75.4766 -44.2969 -105.023
c-29.5234 -29.5459 -65.0908 -44.2959 -106.657 -44.2959c-40.4688 0 -75.2432 14.1895 -104.206 42.6631c-28.9863 28.4492 -44.0635 63.4336 -45.1367 105.022v93.541l45.9531 -21.3311l67.2852 21.3311v-95.1748c0 -9.84863 3.52441 -18.04 10.666 -24.6221
c7.11816 -6.55762 15.5898 -9.84863 25.4385 -9.84863c9.84961 0 18.041 3.29102 24.6221 9.84863c6.58203 6.55859 9.84961 14.7734 9.84961 24.6221v96.8086h-0.0234375z" />
    <glyph glyph-name="uniF108" unicode="&#xf108;" 
d="M74.6729 373.327c49.7578 49.7578 110.206 74.6729 181.327 74.6729c71.085 0 131.766 -24.915 181.952 -74.6729c50.1865 -49.7754 75.2969 -110.242 75.2969 -181.327c0 -71.1035 -25.0928 -131.569 -75.2969 -181.327
c-50.1865 -49.7764 -110.867 -74.6729 -181.952 -74.6729c-71.1035 0 -131.569 24.8965 -181.327 74.6729c-49.7764 49.7578 -74.6729 110.224 -74.6729 181.327s24.8965 131.552 74.6729 181.327zM97.874 33.2676c43.4932 -43.9219 96.1963 -65.874 158.108 -65.874
c61.9111 0 114.828 22.1484 158.75 66.5156c43.9219 44.333 65.874 97.0537 65.874 158.108c0 61.0557 -21.9521 113.758 -65.874 158.108c-43.9219 44.332 -96.8389 66.499 -158.732 66.499c-61.0732 0 -113.562 -21.9521 -157.483 -65.874
s-65.874 -96.8389 -65.874 -158.751c-0.0175781 -61.9121 21.7373 -114.811 65.2314 -158.732zM269.796 218.36h-1.24902v18.8291c0 9.20898 -5.01562 13.7959 -15.0635 13.7959s-15.0625 -4.60547 -15.0625 -13.7959v-89.0938
c0 -16.7402 -6.08594 -31.375 -18.2041 -43.9219c-12.1367 -12.5469 -26.5566 -18.8281 -43.2979 -18.8281c-16.7402 0 -31.375 6.06738 -43.9219 18.2041c-12.5469 12.1182 -18.8291 26.9844 -18.8291 44.5459v38.9072h48.9375v-38.9072
c0 -10.0303 4.58691 -15.0625 13.7959 -15.0625c10.0303 0 15.0625 5.01465 15.0625 15.0625v90.3428c0.821289 16.7402 7.31738 30.9287 19.4541 42.6729c12.1182 11.707 26.5381 17.5615 43.2969 17.5615c16.7412 0 30.9297 -5.85449 42.6729 -17.5615
c11.708 -11.7256 17.9902 -25.9326 18.8291 -42.6729v-20.0781l-27.6104 -8.78125zM346.343 186.985v-1.25h47.6875v-37.6396c0 -16.7402 -6.08594 -31.375 -18.2041 -43.9219c-12.1367 -12.5469 -26.9854 -18.8281 -44.5469 -18.8281
c-16.7402 0 -31.1787 6.28125 -43.2969 18.8281c-12.1367 12.5469 -18.2041 27.1641 -18.2041 43.9219v38.9072l18.8281 -8.78125l27.6104 7.53223v-38.9072c0 -10.0303 5.01465 -15.0635 15.0625 -15.0635s15.0635 5.01562 15.0635 15.0635v40.1387z" />
    <glyph glyph-name="uniF181" unicode="&#xf181;" 
d="M468.376 -64l-468.376 470.661l41.3389 41.3389l427.037 -427.037l427.036 427.037l43.625 -41.3389z" />
    <glyph glyph-name="uniF164" unicode="&#xf164;" 
d="M204.231 448l137.565 -136.154v-17.0244v-358.821h-341.797v512h188.639h15.5928zM307.769 294.821h-120.562v117.718h-153.158v-442.511h273.72v324.793zM136.154 99.1025c0.927734 -1.91602 1.87598 -4.03418 2.84375 -6.37402
c0.927734 -2.36035 1.87598 -4.49805 2.84473 -6.37402c1.875 -5.66797 2.84375 -10.4287 2.84375 -14.1807c0 -3.79199 -0.948242 -8.51172 -2.84375 -14.1797c-0.948242 -3.79199 -2.84473 -7.58398 -5.66895 -11.3359
c-1.91602 -3.79199 -4.73926 -6.61621 -8.51172 -8.5127c-2.84375 -1.91602 -7.58398 -2.84375 -14.1797 -2.84375c-2.84473 0 -7.10059 0.927734 -12.7686 2.84375c-3.79199 1.89648 -6.63672 4.7207 -8.5127 8.5127v-34.0488h-19.8682v95.0254h17.0244v-8.51172
c2.84375 4.71973 6.13184 7.56348 9.92383 8.51172c2.84473 1.89648 6.59668 2.84375 11.3359 2.84375c7.56445 0 12.7686 -0.947266 15.5928 -2.84375c3.77148 -0.967773 7.09961 -3.79199 9.94434 -8.53223zM123.386 65.0742
c0.927734 1.89551 1.41211 4.71973 1.41211 8.51172c0 2.84473 -0.484375 5.18457 -1.41211 7.10059c-0.948242 0.907227 -1.41211 2.31934 -1.41211 4.23535c0 1.89648 -0.483398 3.30859 -1.41211 4.25684c-0.947266 0.927734 -2.84375 2.33984 -5.66797 4.25586
c-3.79199 1.89648 -6.17188 2.84375 -7.09961 2.84375c-1.91602 0 -4.74023 -0.947266 -8.5127 -2.84375c-1.91602 -0.948242 -3.32812 -2.36035 -4.25586 -4.25586c-0.948242 -0.948242 -1.41211 -2.36035 -1.41211 -4.25684
c0 -1.91602 -0.483398 -3.32812 -1.41211 -4.25586c-0.947266 -1.91602 -1.41113 -4.74023 -1.41113 -8.51172c0 -2.84473 0.463867 -5.2041 1.41113 -7.10059c0.928711 -0.948242 1.41211 -2.11816 1.41211 -3.5498c0 -1.43262 0.463867 -2.62207 1.41211 -3.5498
c1.87598 -2.84473 3.30859 -4.74023 4.25586 -5.66797c3.77246 -1.91699 6.59668 -2.84473 8.5127 -2.84473c0.927734 0 3.30762 0.927734 7.09961 2.84473c2.84473 0.927734 4.7207 2.84375 5.66797 5.66797c0.928711 0.927734 1.41211 2.11719 1.41211 3.5498
c0 1.43164 0.463867 2.62207 1.41211 3.57031zM170.203 107.614c1.87598 0.928711 4.71973 1.41211 8.51172 1.41211c1.87598 0.927734 3.77246 1.41211 5.66797 1.41211c1.87598 0 5.66797 -0.948242 11.3359 -2.84375c4.7207 -2.84473 7.56445 -5.2041 8.5127 -7.10059
v35.4609h19.8477v-97.8701h-18.4355v8.5127c-2.84473 -4.74023 -5.66797 -7.58398 -8.5127 -8.5127c-2.84375 -0.947266 -7.09961 -1.41113 -12.7686 -1.41113c-6.63574 0 -11.3359 0.927734 -14.1797 2.84375c-4.74023 1.89551 -8.04785 4.25586 -9.92383 7.09961
c-1.91699 2.84473 -3.79297 7.10059 -5.66797 12.7686c-0.948242 3.77246 -1.41211 8.5127 -1.41211 14.1807c0 6.5957 0.463867 11.3359 1.41211 14.1797c0.927734 3.77246 2.84375 7.56445 5.66797 11.3359c3.77148 3.79297 7.09961 6.61621 9.94434 8.53223z
M197.131 94.8467c-1.91602 0.927734 -4.74023 1.41211 -8.51172 1.41211c-1.91699 0 -4.74023 -0.948242 -8.5127 -2.84473c-1.91602 -0.948242 -3.32812 -2.35938 -4.25586 -4.25586c0 -0.948242 -0.484375 -2.36035 -1.41211 -4.25586
c-0.948242 -1.91602 -1.41211 -3.32812 -1.41211 -4.25586c-0.947266 -1.91699 -1.41211 -4.74023 -1.41211 -8.5127c0 -2.84375 0.464844 -5.2041 1.41211 -7.09961c0 -0.948242 0.463867 -2.11816 1.41211 -3.55078c0.927734 -1.41211 1.41211 -2.62207 1.41211 -3.5498
c1.87598 -2.84375 3.30762 -4.74023 4.25586 -5.66797c3.77246 -1.91602 6.5957 -2.84375 8.5127 -2.84375c1.87598 0 4.71973 0.927734 8.51172 2.84375c0.927734 0.927734 2.33984 2.84375 4.25586 5.66797c0 0.927734 0.463867 2.11816 1.41211 3.5498
c0.927734 1.41211 1.41211 2.60254 1.41211 3.55078c0.927734 1.89551 1.41211 4.71973 1.41211 8.51172c0 3.77246 -0.484375 6.5957 -1.41211 8.51172c0 0.928711 -0.484375 2.11816 -1.41211 3.55078c-0.948242 1.41211 -1.41211 2.60156 -1.41211 3.5498
c-1.89551 2.86426 -3.32812 4.74023 -4.25586 5.68848zM243.948 38.126v58.1523h-11.3369v12.7686h11.3369v5.66797c0 6.5957 1.87598 11.8203 5.66797 15.5918c3.77148 3.77246 9.43945 5.66895 17.0244 5.66895h5.66797h5.66797v-14.1807h-8.5127
c-2.84375 0 -4.74023 -0.484375 -5.66797 -1.41211c-0.948242 -0.948242 -1.41211 -3.32812 -1.41211 -7.09961v-4.25684h14.1807v-12.7676h-14.1807v-58.1533h-18.4355v0.0205078z" />
    <glyph glyph-name="uniF160" unicode="&#xf160;" 
d="M74.9443 10.9443c-49.9922 49.9922 -74.9443 110.196 -74.9443 181.056c0 70.6816 24.9521 131.152 74.9443 181.056s110.196 74.9443 181.056 74.9443c70.6816 0 131.152 -24.9521 181.056 -74.9443s74.9443 -110.374 74.9443 -181.056
c0 -70.8594 -24.9521 -131.152 -74.9443 -181.056s-110.374 -74.9443 -181.056 -74.9443c-70.8594 0 -131.152 25.041 -181.056 74.9443zM1098.86 10.9443c-49.9033 49.9033 -74.9443 110.196 -74.9443 181.056c0 70.6816 24.9521 131.152 74.9443 181.056
s110.196 74.9443 181.056 74.9443c70.6816 0 131.152 -24.9521 181.056 -74.9443c49.9043 -49.9922 74.9443 -110.374 74.9443 -181.056c0 -70.8594 -24.9521 -131.152 -74.9443 -181.056s-110.374 -74.9443 -181.056 -74.9443c-70.8594 0 -131.063 25.041 -181.056 74.9443
zM2122.77 10.9443c-49.9033 49.9033 -74.9443 110.196 -74.9443 181.056c0 70.6816 24.9521 131.152 74.9443 181.056s110.196 74.9443 181.056 74.9443c70.6816 0 131.152 -24.9521 181.056 -74.9443c49.9043 -49.9922 74.9443 -110.374 74.9443 -181.056
c0 -70.8594 -24.9512 -131.152 -74.9443 -181.056c-49.9922 -49.9033 -110.374 -74.9443 -181.056 -74.9443c-70.8594 0 -131.063 25.041 -181.056 74.9443z" />
    <glyph glyph-name="uniF146" unicode="&#xf146;" 
d="M244.632 425.244c2.85254 -1.92188 7.58594 -6.18945 14.2207 -12.8037c6.61426 -6.65527 11.3672 -12.8047 14.2197 -18.4883c3.78223 -7.60547 8.03027 -16.1416 12.8037 -25.6084c2.85254 -9.48633 4.26855 -20.875 4.26855 -34.1436
c-1.92188 -26.5596 -7.12012 -45.998 -15.6367 -58.3164c-1.9209 -1.90137 -4.77344 -5.19824 -8.55566 -9.93164c-3.80273 -4.75391 -6.65527 -8.07129 -8.53613 -9.95215c-9.48633 -7.60547 -16.1416 -13.2891 -19.9043 -17.0723
c-3.80273 -3.80273 -7.12012 -8.53613 -9.95215 -14.2197c-3.80273 -4.75391 -5.68359 -10.9229 -5.68359 -18.4883c0 -8.53613 1.88086 -14.7256 5.68359 -18.4873c1.88184 -0.951172 3.7832 -2.62988 5.68457 -4.97656c1.88086 -2.38672 3.31738 -4.51074 4.26758 -6.3916
l22.7559 -18.4883c15.1514 -12.3389 27.4893 -25.1426 36.9766 -38.3916c8.53613 -12.3389 13.7344 -31.292 15.6357 -56.8799c0 -33.2139 -14.2197 -62.1191 -42.6602 -86.7559c-29.4102 -24.6777 -72.5361 -37.9268 -129.416 -39.8281
c-48.3633 1.88086 -83.4385 12.2979 -105.244 31.292c-23.7266 18.9121 -35.5596 40.7178 -35.5596 65.3955c0 13.2695 3.78223 27.0244 11.3682 41.2441c6.61426 14.2197 19.9033 27.4893 39.8281 39.8281c18.9531 11.3672 41.709 19.418 68.2676 24.1719
c26.5391 4.7334 46.4424 7.12012 59.7324 7.12012c-1.92188 2.85156 -6.19043 9.46582 -12.8047 19.9033c-4.75293 7.58594 -7.12012 16.1016 -7.12012 25.6084c0 3.78223 0.930664 8.53613 2.85254 14.2197c0 1.88184 0.464844 4.02539 1.41602 6.39258
c0.930664 2.3457 1.88086 4.02539 2.85156 4.97559c-5.68359 -0.950195 -13.2891 -1.41602 -22.7559 -1.41602c-35.0947 1.88086 -62.1191 13.2695 -81.0723 34.1445c-19.9033 19.9033 -29.8555 43.5898 -29.8555 71.0996c0 33.1729 13.7344 63.5146 41.2441 91.0244
c18.002 15.1504 37.9062 25.1016 59.7314 29.876c21.8057 4.71289 40.7588 7.09961 56.9004 7.09961h136.536l-41.2441 -24.1719h-41.2441v1.41602zM270.22 36.9756c0 16.1016 -5.68359 30.7871 -17.0723 44.0967c-10.457 11.3682 -28.9453 26.5381 -55.4639 45.5117
h-14.2197c-1.92188 0.930664 -10.9229 0.464844 -27.0234 -1.41602l-42.6602 -8.53613c-0.951172 0 -2.85254 -0.950195 -5.68457 -2.85156c-2.85156 -1.92188 -5.68359 -3.33789 -8.53613 -4.26855c-7.60547 -2.85156 -14.2197 -6.6543 -19.9033 -11.3672
c-5.68359 -4.75391 -10.9229 -11.874 -15.6357 -21.3408c-4.75391 -7.60547 -7.12012 -17.5576 -7.12012 -29.876c0 -23.7061 10.417 -43.165 31.292 -58.3154c18.9531 -15.1709 46.9277 -22.7568 83.9033 -22.7568c35.0547 1.88184 59.7324 8.53613 73.9521 19.9043
c16.1016 12.3184 24.1719 29.3906 24.1719 51.2158zM176.364 234.66c18.9531 1.88086 33.6387 8.03027 44.0957 18.4873c5.68457 9.4668 9.4668 18.4883 11.3682 27.0244c0.930664 5.68359 1.41602 13.2695 1.41602 22.7559c0 27.4893 -6.65527 54.0479 -19.9043 79.6562
c-7.60547 14.2197 -16.1416 24.6377 -25.6074 31.292c-9.4873 6.61426 -21.8262 10.8828 -36.9766 12.7842c-18.0225 -0.951172 -33.1934 -8.53613 -45.5117 -22.7559c-11.3682 -18.0234 -16.6074 -34.6299 -15.6357 -49.7803c0 -24.6777 7.12012 -49.7803 21.3398 -75.3887
c6.61426 -12.3389 15.6357 -22.7559 27.0244 -31.292c11.3877 -8.53613 24.1719 -12.7832 38.3916 -12.7832zM509.168 226.124v-34.1445h-69.6836v-71.1201h-34.1445v71.1201h-71.1201v34.1445h71.1201v71.1201h34.1445v-71.1201h69.6836z" />
    <glyph glyph-name="uniF14B" unicode="&#xf14b;" 
d="M406.355 448c41.5146 0 76.7295 -14.4482 105.645 -43.3438c28.8965 -28.916 43.7871 -64.1309 44.6924 -105.645c0 -40.6279 -14.4482 -76.3242 -43.3438 -107.012l-235.677 -256c-115.604 129.127 -193.7 214.447 -234.328 256
c-28.915 28.877 -43.3438 64.5537 -43.3438 107.012c0 41.5137 14.4287 76.7285 43.3438 105.645c28.8965 28.8955 64.1113 43.3438 105.645 43.3438c56.8867 0 99.7686 -24.3887 128.684 -73.1455c28.8965 48.7568 71.7969 73.1455 128.684 73.1455zM406.355 411.437
c-43.3438 0 -76.3232 -18.0693 -98.8818 -54.1699l-31.1504 -52.8223l-31.1494 52.8223c-21.6719 36.1006 -53.7471 54.1699 -96.166 54.1699c-30.707 0 -57.1182 -10.8262 -79.2334 -32.5176c-22.1533 -21.6719 -33.2109 -48.3145 -33.2109 -79.9072
c0 -30.707 10.8262 -57.792 32.5176 -81.2754c37.9307 -39.7412 107.455 -115.141 208.591 -226.198c112.868 124.619 181.949 200 207.243 226.198c21.6719 23.4639 32.5176 50.5684 32.5176 81.2754c0 31.5928 -10.8262 58.2354 -32.5176 79.9072
s-47.8711 32.5176 -78.5596 32.5176z" />
    <glyph glyph-name="uniF112" unicode="&#xf112;" 
d="M409.874 362.898h68.0771v-205.643h-68.0771v-221.256h-187.207h-18.4355l-136.154 136.154v17.0244v68.0771h-68.0771v205.643h68.0771v85.1016h341.797v-85.1016zM102.105 412.539v-49.6406h273.721v49.6406h-273.721zM222.667 -31.3838h153.179v256.717h-273.74
v-136.154h120.562v-120.562z" />
    <glyph glyph-name="uniF113" unicode="&#xf113;" 
d="M0 448h769.888v-512h-769.888v512zM717.175 395.287h-666.363v-73.4062h666.363v73.4062zM50.8115 -13.1885h666.363v212.725h-666.363v-212.725zM122.345 37.6504v35.7666h101.65v-35.7666h-101.65zM288.005 37.6504v35.7666h101.65v-35.7666h-101.65z" />
    <glyph glyph-name="uniF16E" unicode="&#xf16e;" 
d="M206.467 -64c-56.7461 0 -105.337 20.2383 -145.793 60.6943s-60.6738 89.5029 -60.6738 147.181c0 56.7061 19.9805 105.317 59.9795 145.793c39.9805 40.4561 88.8086 60.6943 146.487 60.6943h154.859v-37.6787h-154.859
c-46.5078 0.913086 -86.2695 -15.3574 -119.265 -48.8291c-33.0361 -33.4912 -49.5234 -73.4717 -49.5234 -119.979c0 -46.5273 16.5078 -86.4873 49.5234 -119.979c32.9951 -33.4922 72.7568 -50.2178 119.284 -50.2178c46.4883 0 86.4873 16.7451 119.979 50.2178
l26.5078 -26.5078c-39.0869 -40.9326 -87.916 -61.3887 -146.507 -61.3887zM272.042 216.414l-26.5078 26.5078l89.2842 89.2852l-89.2842 89.2852l26.5078 26.5078l117.182 -115.793z" />
    <glyph glyph-name="uniF150" unicode="&#xf150;" 
d="M412.719 448c26.4639 0 49.3984 -9.70215 68.7832 -29.0664c19.3633 -19.3848 29.0654 -42.8027 29.0654 -70.1953v-103.537v-209.899c0 -27.4326 -9.70215 -50.8506 -29.0654 -70.1953c-19.3848 -19.3838 -42.3398 -29.0664 -68.7832 -29.0664h-313.438
c-26.4844 0 -49.6406 9.9248 -69.4883 29.793c-19.8486 19.8682 -29.793 42.9639 -29.793 69.4482v208.487v104.95c0 27.4121 9.92383 50.8105 29.793 70.1943c19.8477 19.3848 43.0039 29.0869 69.4883 29.0869h313.438zM462.359 35.2812v209.899h-76.5898
c7.56445 -17.0244 11.3369 -34.5322 11.3369 -52.4844c0 -38.7891 -13.7168 -71.8691 -41.1289 -99.2822c-27.4326 -27.4326 -60.5127 -41.1279 -99.2812 -41.1279c-38.7891 0 -71.8691 13.6953 -99.2822 41.1279c-27.4326 27.4131 -41.1279 60.4932 -41.1279 99.2822
c0 20.7754 3.30762 38.2842 9.92383 52.4844h-76.5693v-209.899c0 -13.252 4.96191 -24.8096 14.8867 -34.7539c9.92383 -9.94434 21.4814 -14.8867 34.7539 -14.8867h313.438c13.2314 0 24.8096 4.96191 34.7539 14.8867c9.94434 9.92383 14.8867 21.502 14.8867 34.7539z
M182.951 245.181c-10.4287 -15.1279 -16.5605 -32.6162 -18.4365 -52.4844c0 -24.6094 8.97559 -45.8691 26.9482 -63.8213c17.9521 -17.9727 39.2129 -26.9482 63.8213 -26.9482c24.5684 0 45.6064 8.97559 63.1152 26.9482
c17.4873 17.9521 26.2422 39.2119 26.2422 63.8213c0 20.7754 -5.66797 38.2842 -17.0244 52.4844c-17.0244 24.5684 -41.1289 36.873 -72.333 36.873c-30.2773 0 -54.3809 -12.2842 -72.333 -36.873zM441.079 388.436h-75.1777v-86.5137h86.5137v75.1572v11.3564h-11.3359z
" />
    <glyph glyph-name="uniF143" unicode="&#xf143;" 
d="M141.822 358.643c7.56445 -16.0967 16.5195 -32.6162 26.9482 -49.6406c10.4082 -17.0244 18.4365 -30.2764 24.1045 -39.7168l9.92383 -14.1807l-21.2598 -296.412c-13.2529 -15.1279 -39.7168 -22.6924 -79.4336 -22.6924
c-17.9727 0 -33.5645 1.87598 -46.7969 5.66797c-13.252 3.77246 -22.2285 7.56445 -26.9482 11.3359l-7.10059 5.66797l-21.2598 296.453c22.6924 32.1123 43.0244 66.6445 60.9766 103.518c14.2002 29.2881 25.5371 59.0811 34.0488 89.3574v-252.46
c-11.3359 -2.84375 -17.0244 -9.92383 -17.0244 -21.2803c0 -15.1279 7.56445 -22.6924 22.6924 -22.6924c6.5957 0 12.2637 2.11816 17.0244 6.37402c4.71973 4.25586 7.10059 9.68164 7.10059 16.3184c0 9.43945 -5.2041 16.5195 -15.5928 21.2803v252.46
c10.3887 -34.9971 21.2607 -64.7686 32.5967 -89.3574z" />
    <glyph glyph-name="uniF11B" unicode="&#xf11b;" 
d="M74.4912 372.886c49.6367 50.082 109.938 75.1143 180.886 75.1143c70.9121 0 131.445 -25.0322 181.509 -75.1143c50.0645 -50.082 75.1143 -110.597 75.1143 -181.509c0 -70.9307 -25.0322 -131.249 -75.1143 -180.886
c-50.0635 -49.6553 -110.597 -74.4912 -181.509 -74.4912c-70.9307 0 -131.249 24.8359 -180.886 74.4912c-49.6553 49.6367 -74.4912 109.955 -74.4912 180.886c0 70.9121 24.8359 131.445 74.4912 181.509zM97.6357 33.6533
c43.3877 -43.4053 95.9619 -65.0898 157.724 -65.0898c61.7607 0 114.549 21.8984 158.364 65.7129c43.8145 43.8154 65.7129 96.1758 65.7129 157.101c0 60.9062 -21.8984 113.481 -65.7129 157.724c-43.8154 44.2246 -96.6035 66.3545 -158.364 66.3545
c-61.7793 0 -114.354 -21.8984 -157.724 -65.7139c-43.4053 -43.8154 -65.0908 -96.6035 -65.0908 -158.364c0 -61.7793 21.7031 -114.354 65.0908 -157.724zM337.986 297.772l-53.8213 -90.123h105.149v-31.2988h-105.149l53.8213 -91.3867l-27.543 -15.0264
l-55.084 90.123l-55.085 -90.123l-27.543 15.0264l55.085 91.3867h-105.131v31.2988h105.149l-55.085 90.123l27.542 16.2725l55.085 -91.3867l55.085 91.3867z" />
    <glyph glyph-name="uniF121" unicode="&#xf121;" 
d="M431.377 448v-512l-214.994 169.734l-216.383 -169.734v512h431.377zM393.198 408.393h-355.019v-393.198l154.165 121.639l24.0381 19.7939l22.6299 -19.7939l154.165 -121.639v393.198h0.0205078z" />
    <glyph glyph-name="uniF13F" unicode="&#xf13f;" 
d="M74.6729 373.327c49.7578 49.7578 110.206 74.6729 181.327 74.6729c71.085 0 131.766 -24.915 181.952 -74.6729c50.1865 -49.793 75.2969 -110.242 75.2969 -181.327c0 -71.1211 -25.0928 -131.569 -75.2969 -181.327
c-50.1865 -49.7939 -110.867 -74.6729 -181.952 -74.6729c-71.1035 0 -131.569 24.8789 -181.327 74.6729c-49.7764 49.7578 -74.6729 110.206 -74.6729 181.327c0 71.1035 24.8965 131.552 74.6729 181.327zM97.874 33.2676
c43.4932 -43.9219 96.1963 -65.874 158.108 -65.874c61.9111 0 114.828 22.1484 158.75 66.5156c43.9219 44.333 65.874 97.0352 65.874 158.108c0 61.0557 -21.9521 113.758 -65.874 158.108c-43.9219 44.332 -96.8389 66.499 -158.732 66.499
c-61.0732 0 -113.562 -21.9521 -157.483 -65.874s-65.874 -96.8389 -65.874 -158.751c-0.0175781 -61.9121 21.7373 -114.811 65.2314 -158.732zM269.796 64h-47.6875v116.703h-38.9072v45.1709h38.9072v33.874c0 19.2393 5.44336 34.0703 16.3125 44.5469
c10.8506 10.4404 25.0928 15.6875 42.6719 15.6875c20.8994 0 32.625 -0.428711 35.1416 -1.25v-41.4053h-25.0938c-14.2412 0 -21.3271 -7.12109 -21.3271 -21.3271v-30.126h43.9219l-5.01465 -45.1709h-38.9072v-116.703h-0.0175781z" />
    <glyph glyph-name="uniF193" unicode="&#xf193;" 
d="M74.6729 373.327c49.7578 49.7578 110.206 74.6729 181.327 74.6729c71.085 0 131.766 -24.915 181.952 -74.6729c50.1865 -49.7754 75.2969 -110.242 75.2969 -181.327c0 -71.1035 -25.0928 -131.569 -75.2969 -181.327
c-50.1865 -49.7764 -110.867 -74.6729 -181.952 -74.6729c-71.1211 0 -131.569 24.8965 -181.327 74.6729c-49.7939 49.7578 -74.6729 110.224 -74.6729 181.327s24.8789 131.552 74.6729 181.327zM97.874 33.2676c43.4932 -43.9219 96.1963 -65.874 158.108 -65.874
c61.8936 0 114.828 22.1484 158.75 66.5156c43.9219 44.333 65.874 97.0537 65.874 158.108c0 61.0557 -21.9521 113.758 -65.874 158.108c-43.9219 44.332 -96.8389 66.499 -158.732 66.499c-61.0732 0 -113.562 -21.9521 -157.483 -65.874
s-65.874 -96.8389 -65.874 -158.751c-0.0175781 -61.9121 21.7197 -114.811 65.2314 -158.732zM368.937 235.922l-2.51562 -6.28223h-22.5947c-1.69531 -0.838867 -2.94531 -1.24902 -3.76562 -1.24902h-2.5166c-5.01562 -1.69531 -18.8291 -11.7256 -41.4053 -30.126
c-22.5947 -18.4004 -35.1416 -30.5547 -37.6396 -36.3906c-0.838867 -2.5166 -1.07129 -11.2969 -0.625 -26.3604c0.410156 -15.0635 1.03516 -24.2725 1.87402 -27.6094h20.7021c12.1191 0 19.4541 -0.428711 21.9521 -1.25l-1.24902 -13.7949
c-4.19434 0.820312 -27.1992 1.24902 -69.0146 1.24902c-0.838867 0 -10.2627 -0.428711 -28.2344 -1.24902c-18.0078 -0.838867 -29.0732 -0.838867 -33.25 0l2.5166 13.7949h10.0303c5.83594 0 11.4941 0.411133 16.9375 1.25
c5.4248 0.820312 8.97656 2.07031 10.6719 3.76562c1.66016 1.67773 2.5166 9.20898 2.5166 22.5947c0 13.3672 -0.427734 22.5947 -1.24902 27.6094c-1.69531 4.17578 -12.7607 19.4531 -33.249 45.7959c-20.5068 26.3604 -34.5166 42.458 -42.0303 48.3125h-40.1562
v17.5967h133.015v-1.24902h1.25l-1.25 -2.5166v-13.7959h-40.1562c1.66016 -2.5166 20.0781 -27.1807 55.2197 -74.0303l53.9521 48.9375h-32.625l-5.01465 18.8291h116.702v-1.25zM353.874 115.453l11.2969 -1.24902l11.2979 -1.24902l-3.76562 -18.8291l-10.0303 1.24902
l-8.78125 1.25v18.8281h-0.0175781zM357.64 129.268l-1.24902 82.8281c7.53125 -2.5166 20.4883 -3.76562 38.9062 -3.76562l-20.0781 -80.3125z" />
    <glyph glyph-name="uniF103" unicode="&#xf103;" 
d="M74.6729 373.327c49.7578 49.7578 110.206 74.6729 181.327 74.6729c71.085 0 131.766 -24.915 181.952 -74.6729c50.1865 -49.7754 75.2969 -110.242 75.2969 -181.327c0 -71.1035 -25.0928 -131.569 -75.2969 -181.327
c-50.1865 -49.7764 -110.867 -74.6729 -181.952 -74.6729c-71.1035 0 -131.569 24.8965 -181.327 74.6729c-49.7764 49.7578 -74.6729 110.224 -74.6729 181.327s24.8965 131.552 74.6729 181.327zM97.874 33.2676c-43.4941 43.9219 -65.249 96.8203 -65.2314 158.732
c0 61.9121 21.9521 114.829 65.874 158.751s96.4102 65.874 157.483 65.874c61.8936 0 114.811 -22.167 158.732 -66.499c43.9219 -44.3506 65.874 -97.0527 65.874 -158.108c0 -61.0547 -21.9521 -113.775 -65.874 -158.108
c-43.9219 -44.3672 -96.8389 -66.5156 -158.75 -66.5156c-61.9121 0 -114.615 21.9521 -158.108 65.874zM387.766 218.36c26.7705 -6.71094 27.1631 -25.0928 1.24902 -55.2197c-9.22656 -10.8682 -27.1807 -20.916 -53.9512 -30.126
c-1.69629 -0.838867 -2.5166 -1.69531 -2.5166 -2.51562c0.820312 -17.5625 2.92676 -37.6396 6.28223 -60.2344c0.820312 -13.3857 -3.76562 -21.542 -13.7959 -24.4688c-10.0303 -2.94434 -23.8438 0.196289 -41.4062 9.40527
c-17.5615 9.20898 -35.1406 21.3271 -52.7021 36.3906c-1.69531 0.821289 -2.94531 0.821289 -3.76562 0c-3.35547 -3.35547 -16.7412 -12.9932 -40.1562 -28.8594c-18.4004 -11.7256 -31.376 -4.60449 -38.9072 21.3281c-6.70996 23.415 -5.01465 53.9521 5.01562 91.6094
c1.67773 2.5166 1.67773 4.58691 0 6.28223c-18.4004 26.7705 -28.0381 52.7021 -28.8594 77.7959c-0.856445 12.5645 1.66016 21.7734 7.51367 27.627c5.83594 5.83594 11.708 7.08594 17.5615 3.76562c20.0781 -10.8682 37.6396 -17.5615 52.7031 -20.0771
c0.821289 -0.838867 2.07031 -0.428711 3.76562 1.24902c20.8994 24.2539 41.4053 40.5664 61.4834 48.9365c23.416 10.0303 37.2119 2.5166 41.4053 -22.5947c5.01562 -30.126 8.78125 -52.292 11.2979 -66.5156c0 -0.838867 0.410156 -1.25 1.24902 -1.25
c17.5791 -4.17578 39.7461 -8.35254 66.5342 -12.5283zM289.874 155.609c-30.9473 -23.415 -56.4688 -31.8037 -76.5283 -25.0928c-13.3857 5.01465 -23.4336 25.0928 -30.127 60.2344h-3.76562l-2.5166 1.24902c5.83691 0 11.2979 2.08789 16.3125 6.28223
l-7.53125 -7.53125c5.01465 -30.9473 15.4736 -48.9375 31.375 -53.9521c20.0781 -6.71094 43.9219 0.410156 71.5322 21.3271c-0.838867 3.31934 -0.446289 6.6748 1.24902 10.0303c0 -6.71094 2.08789 -12.1357 6.28223 -16.3125
c-0.838867 -0.838867 -2.94531 0.410156 -6.28223 3.76562zM204.547 210.829c1.67773 13.3672 5.83594 24.8789 12.5459 34.498c6.69336 9.60156 13.7959 13.9922 21.3281 13.1719c10.0293 -2.49902 15.8662 -10.8691 17.5615 -25.0938
c6.69238 8.35254 14.2236 11.2979 22.5947 8.78125c15.8838 -5.01562 19.6494 -21.7559 11.2969 -50.1865c-7.53125 -22.5771 -18.0078 -32.2139 -31.375 -28.8594c-11.7256 2.49902 -16.7588 12.1191 -15.0635 28.8594
c-8.35254 -10.0303 -16.7402 -14.2422 -25.0928 -12.5469c-10.8691 2.5166 -15.4912 12.9756 -13.7959 31.376zM233.405 214.595c-2.5166 0.820312 -3.97949 2.92676 -4.39062 6.28223c-0.427734 3.33691 0.196289 6.69238 1.87402 10.0303
c0.821289 5.01465 2.5166 8.78027 5.01562 11.2969c2.49805 2.5166 5.01465 3.33789 7.53125 2.5166c5.01465 -1.69531 5.44336 -8.37012 1.24902 -20.0781c-4.17578 -7.5498 -7.94141 -10.8867 -11.2793 -10.0479zM240.937 240.937
c2.5166 0 3.7666 -1.24902 3.7666 -3.76562s-1.25 -3.76562 -3.7666 -3.76562c-2.51562 0 -3.76562 1.24902 -3.76562 3.76562c0.821289 2.5166 2.07031 3.76562 3.76562 3.76562zM276.078 198.282c-4.19434 0.821289 -5.46094 6.28223 -3.76562 16.3125
c0.820312 5.01465 2.30176 8.97656 4.39062 11.9219c2.07031 2.92676 3.96191 3.96191 5.63965 3.14062c5.01465 -0.838867 6.28223 -7.10254 3.76562 -18.8281c-1.67773 -8.37109 -5.01562 -12.5469 -10.0303 -12.5469zM284.859 220.859
c0 -2.49902 -1.25 -3.7666 -3.7666 -3.7666c-2.51562 0 -3.76562 1.25 -3.76562 3.7666c0 2.51562 1.25 3.76562 3.76562 3.76562c2.5166 0 3.7666 -1.25 3.7666 -3.76562z" />
    <glyph glyph-name="uniF142" unicode="&#xf142;" 
d="M105.848 71.0049c33.1211 -33.8584 73.4629 -50.7568 120.994 -50.7568s88.5801 17.2666 123.146 51.8633h69.1309c-43.1992 -70.5752 -107.291 -105.848 -192.276 -105.848c-61.9414 0 -115.249 21.9375 -159.861 65.9053
c-44.6436 43.875 -66.9805 97.5205 -66.9805 160.906c0 63.3545 22.3369 117.001 66.9805 160.938c44.6123 43.9053 97.9512 65.1367 159.861 63.7236c86.3984 0 151.229 -36.7168 194.428 -110.18h-69.1309c-33.1523 37.4229 -74.9082 56.165 -125.297 56.165
c-47.5312 0 -87.8418 -16.5918 -120.994 -49.6826c-33.1523 -33.1211 -49.6826 -73.4326 -49.6826 -120.964s16.5303 -88.2422 49.6826 -122.07zM626.512 448l257.075 -254.925l-257.075 -257.075l-38.8975 38.8975l190.126 190.126h-550.898v53.9834h550.898
l-190.126 192.277z" />
    <glyph glyph-name="uniF185" unicode="&#xf185;" 
d="M630.744 387.86c-15.4189 -23.666 -36.5176 -46.2568 -63.2324 -67.8604v-15.4189c0 -93.5654 -33.4258 -178.38 -100.232 -254.465c-66.8516 -76.1064 -156.294 -114.116 -268.326 -114.116c-74.0234 0 -140.327 19.0156 -198.932 57.0693
c7.17285 -1.03125 17.459 -1.53516 30.8379 -1.53516c60.6445 0 114.116 18.5107 160.373 55.5117c-27.7666 1.00879 -52.7051 10.0234 -74.791 26.9775c-22.1299 16.9541 -37.2861 38.2949 -45.4883 64c10.2637 -2.08398 18.5107 -3.09277 24.6738 -3.09277
c12.3262 0 23.6436 1.53516 33.9307 4.62793c-29.8291 6.16309 -54.7451 21.3408 -74.791 45.4883c-20.0469 24.1484 -30.0703 51.6523 -30.0703 82.5117v1.53516c15.4189 -9.25586 34.9395 -14.9141 58.6045 -16.9541c-38.0752 24.6748 -57.0908 60.666 -57.0908 107.953
c0 23.6436 5.63672 45.2256 16.9541 64.7686c68.8691 -85.3633 157.807 -130.566 266.791 -135.721c-2.08398 6.16309 -3.09277 15.9453 -3.09277 29.3018c0 35.9922 12.5674 66.5449 37.79 91.7676c25.2012 25.2002 55.7754 37.79 91.7676 37.79
c39.0615 0 70.9307 -13.3574 95.6045 -40.0928c32.8994 7.17188 60.1396 17.4805 81.7441 30.8369c-9.25586 -29.8281 -28.2939 -53.4717 -57.0693 -70.9307c27.7666 3.07031 52.4414 9.75977 74.0449 20.0469z" />
    <glyph glyph-name="uniF159" unicode="&#xf159;" 
d="M204.797 448c54.9502 0 103.224 -19.9805 144.854 -59.9414c39.9609 -39.9619 59.9414 -88.252 59.9414 -144.855c0 -60.7764 -19.9805 -111.979 -59.9414 -153.593l-144.854 -153.593l-144.855 153.575c-39.9609 42.4658 -59.9414 93.6689 -59.9414 153.61
c0 54.9336 19.9805 103.207 59.9414 144.855c39.9619 39.9609 88.2344 59.9414 144.855 59.9414zM204.797 413.029c-47.4561 0 -87.8438 -16.6592 -121.127 -49.9424c-33.3008 -33.3008 -49.9424 -73.6709 -49.9424 -121.127c0 -49.9424 17.0498 -93.2422 51.2031 -129.864
l119.884 -127.379l119.883 127.379c34.1182 36.6221 51.2041 80.3301 51.2041 131.126c0 47.4561 -16.6592 87.8252 -49.9424 121.126c-32.502 32.4492 -72.8896 48.6816 -121.162 48.6816zM156.719 195.126c-13.7285 13.7285 -20.6025 29.7666 -20.6025 48.0771
c0 18.2939 6.87402 34.3496 20.6025 48.0781s29.749 20.6025 48.0781 20.6025c18.293 0 34.3486 -6.87402 48.0771 -20.6025s20.6025 -29.7842 20.6025 -48.0781c0 -18.3105 -6.87402 -34.3486 -20.6025 -48.0771s-29.7842 -20.6025 -48.0771 -20.6025
c-18.3115 0 -34.3311 6.85547 -48.0781 20.6025z" />
    <glyph glyph-name="uniF15E" unicode="&#xf15e;" 
d="M22.7559 -64l-22.7559 21.3203l233.244 234.68l-233.244 233.244l22.7559 22.7559l257.437 -256z" />
    <glyph glyph-name="uniF178" unicode="&#xf178;" 
d="M436.193 -64l-166.235 121.012l-167.558 -121.012l63.834 195.494l-166.234 121.012h206.124l63.834 195.494l62.5107 -195.494h206.124l-166.234 -121.012zM110.382 216.607l98.4092 -71.8164l-37.2412 -114.373l98.4082 70.4922l97.0859 -70.4922l-37.2422 114.373
l98.4092 71.8164h-121.011l-37.2422 114.372l-37.2412 -114.372h-122.335z" />
    </font>
</defs>
</svg>
